<?xml version="1.0" encoding="utf-8"?>
<svg version="1.2" baseProfile="tiny" id="Layer_1" xmlns="http://www.w3.org/2000/svg" xmlns:xlink="http://www.w3.org/1999/xlink" width="264px" height="162px" viewBox="0 0 264 162"><defs><rect id="r" x="0" y="5" fill="#E5E5E5" width="22" height="6"/></defs><polygon fill="white" points="24.833,151.362 13.366,161.357 0.5,151.749 0.5,0.5 263.5,0.5 263.5,152.249 254.5,158.954 254.5,42.5 215.5,42.5 215.5,155.1 211.107,151.369 203.5,156.699 203.5,42.5 48.5,42.5 48.5,153.349 38.749,161.38"/><path fill="#E5E5E5" d="M263,1v150.998l-8,5.96V43v-1h-1h-38h-1v1v111.019l-3.274-2.779l-0.589-0.499l-0.633,0.44L204,155.738V43v-1h-1H49h-1v1v110.099l-9.257,7.661l-13.295-9.569l-0.644-0.465l-0.598,0.521l-10.864,9.47L1,151.499V1H263 M264,0H0v152l13.391,10l11.473-10l13.891,10L49,153.6V43h154v114.66l8.078-5.66l4.922,4.18V43h38v116.95l10-7.45V0L264,0z"/><path fill="#E5E5E5" d="M203,157.66V43H49v110.6l2.145-1.6L63.7,162l13.809-10l14.229,10l12.972-10l12.973,10l13.811-10l12.136,10l13.391-10l14.229,10l12.972-10l12.974,10L203,157.66z"/><path fill="#E5E5E5" d="M11,36c0-7.732,6.268-14,14-14s14,6.268,14,14s-6.268,14-14,14S11,43.732,11,36z"/><path fill="#E5E5E5" d="M254,159.95V43h-38v113.18l7.551,5.82l13.811-10l13.891,10L254,159.95z"/><path fill="#E5E5E5" d="M38,107V72H13v35H38z"/><path fill="#E5E5E5" d="M232.51,5h26v6h-26V5z"/><use xlink:href="#r" x="208.51"/><path fill="#E5E5E5" d="M142,6v4H50V6H142 M143,5H49v6h94V5L143,5z"/><use xlink:href="#r" x="184.51"/><use xlink:href="#r" x="161.51" width="13"/><use xlink:href="#r" x="176.51" width="6"/><use xlink:href="#r" x="153.51" width="6"/><use xlink:href="#r" x="9" width="32"/><path fill="#E5E5E5" stroke="#E5E5E5" d="M2,14.5h260"/><path fill="#A3A3A3" d="M221,73h24v1h-24V73z"/><use x="52" y="2" width="2" height="2"/><path fill="#E5E5E5" d="M38,59v-5H13v5H38z"/><path fill="#8ACDFF" d="M250,47h-30v24h30V47z M229.732,58h1.08l6.69,6.596l3.634-2.172l5.477,4.557V67h-23.959L229.732,58z"/><path fill="white" d="M54,15h155v128H54V15z"/><path fill="#2693FF" d="M204,24H60v112h144V24z M106.321,74h5.184l32.129,34.005l17.446-10.42l26.28,21.317V119H72.343L106.321,74z"/><path fill="white" d="M191.795,34.937L187.955,31H198v10.067l-3.948-4.221l-6.478,6.494L191.21,47H182V36.933l3.637,4.046L191.795,34.937z"/></svg>
