<?xml version="1.0" encoding="UTF-8" standalone="no"?>
<svg
   xmlns:dc="http://purl.org/dc/elements/1.1/"
   xmlns:cc="http://creativecommons.org/ns#"
   xmlns:rdf="http://www.w3.org/1999/02/22-rdf-syntax-ns#"
   xmlns:svg="http://www.w3.org/2000/svg"
   xmlns="http://www.w3.org/2000/svg"
   xmlns:xlink="http://www.w3.org/1999/xlink"
   xmlns:sodipodi="http://sodipodi.sourceforge.net/DTD/sodipodi-0.dtd"
   xmlns:inkscape="http://www.inkscape.org/namespaces/inkscape"
   version="1.2"
   id="Layer_1"
   width="264px"
   height="162px"
   viewBox="0 0 264 162"
   inkscape:version="0.48.4 r9939"
   sodipodi:docname="viewer-rtl.svg">
  <metadata
     id="metadata52">
    <rdf:RDF>
      <cc:Work
         rdf:about="">
        <dc:format>image/svg+xml</dc:format>
        <dc:type
           rdf:resource="http://purl.org/dc/dcmitype/StillImage" />
      </cc:Work>
    </rdf:RDF>
  </metadata>
  <sodipodi:namedview
     pagecolor="#ffffff"
     bordercolor="#666666"
     borderopacity="1"
     objecttolerance="10"
     gridtolerance="10"
     guidetolerance="10"
     inkscape:pageopacity="0"
     inkscape:pageshadow="2"
     inkscape:window-width="640"
     inkscape:window-height="480"
     id="namedview50"
     showgrid="false"
     inkscape:zoom="1.1022727"
     inkscape:cx="132"
     inkscape:cy="81"
     inkscape:window-x="0"
     inkscape:window-y="27"
     inkscape:window-maximized="0"
     inkscape:current-layer="Layer_1" />
  <defs
     id="defs3">
    <rect
       id="r"
       x="0"
       y="5"
       fill="#E5E5E5"
       width="22"
       height="6" />
  </defs>
  <polygon
     points="13.366,161.357 0.5,151.749 0.5,0.5 263.5,0.5 263.5,152.249 254.5,158.954 254.5,42.5 215.5,42.5 215.5,155.1 211.107,151.369 203.5,156.699 203.5,42.5 48.5,42.5 48.5,153.349 38.749,161.38 24.833,151.362 "
     id="polygon6"
     transform="matrix(-1,0,0,1,264,0)"
     style="fill:#ffffff" />
  <path
     d="m 1,1 v 150.998 l 8,5.96 V 43 42 h 1 38 1 v 1 111.019 l 3.274,-2.779 0.589,-0.499 0.633,0.44 6.504,4.557 V 43 42 h 1 154 1 v 1 110.099 l 9.257,7.661 13.295,-9.569 0.644,-0.465 0.598,0.521 10.864,9.47 L 263,151.499 V 1 H 1 M 0,0 H 264 V 152 L 250.609,162 239.136,152 225.245,162 215,153.6 V 43 H 61 V 157.66 L 52.922,152 48,156.18 V 43 H 10 V 159.95 L 0,152.5 V 0 l 0,0 z"
     id="path8"
     inkscape:connector-curvature="0"
     style="fill:#e5e5e5" />
  <path
     d="M 61,157.66 V 43 H 215 V 153.6 L 212.855,152 200.3,162 186.491,152 172.262,162 159.29,152 146.317,162 132.506,152 120.37,162 106.979,152 92.75,162 79.778,152 66.804,162 61,157.66 z"
     id="path10"
     inkscape:connector-curvature="0"
     style="fill:#e5e5e5" />
  <path
     d="m 253,36 c 0,-7.732 -6.268,-14 -14,-14 -7.732,0 -14,6.268 -14,14 0,7.732 6.268,14 14,14 7.732,0 14,-6.268 14,-14 z"
     id="path12"
     inkscape:connector-curvature="0"
     style="fill:#e5e5e5" />
  <path
     d="M 10,159.95 V 43 H 48 V 156.18 L 40.449,162 26.638,152 12.747,162 10,159.95 z"
     id="path14"
     inkscape:connector-curvature="0"
     style="fill:#e5e5e5" />
  <path
     d="M 226,107 V 72 h 25 v 35 h -25 z"
     id="path16"
     inkscape:connector-curvature="0"
     style="fill:#e5e5e5" />
  <path
     d="m 31.49,5 h -26 v 6 h 26 V 5 z"
     id="path18"
     inkscape:connector-curvature="0"
     style="fill:#e5e5e5" />
  <use
     xlink:href="#r"
     x="208.50999"
     id="use20"
     transform="matrix(-1,0,0,1,264,0)"
     y="0"
     width="264"
     height="162" />
  <path
     d="m 122,6 v 4 h 92 V 6 h -92 m -1,-1 h 94 v 6 H 121 V 5 l 0,0 z"
     id="path22"
     inkscape:connector-curvature="0"
     style="fill:#e5e5e5" />
  <use
     xlink:href="#r"
     x="184.50999"
     id="use24"
     transform="matrix(-1,0,0,1,264,0)"
     y="0"
     width="264"
     height="162" />
  <use
     xlink:href="#r"
     x="161.50999"
     width="13"
     id="use26"
     transform="matrix(-1,0,0,1,264,0)"
     y="0"
     height="162" />
  <use
     xlink:href="#r"
     x="176.50999"
     width="6"
     id="use28"
     transform="matrix(-1,0,0,1,264,0)"
     y="0"
     height="162" />
  <use
     xlink:href="#r"
     x="153.50999"
     width="6"
     id="use30"
     transform="matrix(-1,0,0,1,264,0)"
     y="0"
     height="162" />
  <use
     xlink:href="#r"
     x="9"
     width="32"
     id="use32"
     transform="matrix(-1,0,0,1,264,0)"
     y="0"
     height="162" />
  <path
     d="M 262,14.5 H 2"
     id="path34"
     inkscape:connector-curvature="0"
     style="fill:#e5e5e5;stroke:#e5e5e5" />
  <path
     d="M 43,73 H 19 v 1 h 24 v -1 z"
     id="path36"
     inkscape:connector-curvature="0"
     style="fill:#a3a3a3" />
  <use
     x="52"
     y="2"
     width="2"
     height="2"
     id="use38"
     transform="matrix(-1,0,0,1,264,0)" />
  <path
     d="m 226,59 v -5 h 25 v 5 h -25 z"
     id="path40"
     inkscape:connector-curvature="0"
     style="fill:#e5e5e5" />
  <path
     d="M 14,47 H 44 V 71 H 14 V 47 z m 20.268,11 h -1.08 l -6.69,6.596 -3.634,-2.172 -5.477,4.557 V 67 h 23.959 l -7.078,-9 z"
     id="path42"
     inkscape:connector-curvature="0"
     style="fill:#8acdff" />
  <path
     d="M 210,15 H 55 V 143 H 210 V 15 z"
     id="path44"
     inkscape:connector-curvature="0"
     style="fill:#ffffff" />
  <path
     d="M 60,24 H 204 V 136 H 60 V 24 z m 97.679,50 h -5.184 L 120.366,108.005 102.92,97.585 76.64,118.902 V 119 H 191.657 L 157.679,74 z"
     id="path46"
     inkscape:connector-curvature="0"
     style="fill:#2693ff" />
  <path
     d="M 72.205,34.937 76.045,31 H 66 V 41.067 L 69.948,36.846 76.426,43.34 72.79,47 H 82 V 36.933 l -3.637,4.046 -6.158,-6.042 z"
     id="path48"
     inkscape:connector-curvature="0"
     style="fill:#ffffff" />
</svg>
