<?xml version="1.0" encoding="UTF-8"?><svg xmlns="http://www.w3.org/2000/svg" viewBox="0 0 14.633 17.227" enable-background="new 0 0 14.633 17.227"><path d="M11.388 14.167h-2.193c-.233 0-.486-.18-.562-.4 0 0-.349-1.012-.583-2.183-.104-.519-.199-1.064-.199-1.064-.04-.23.079-.533.265-.673 0 0 3.016-2.278 3.466-4.531.41-2.048.288-4.892.288-4.892-.009-.233-.208-.424-.441-.424h-8.225c-.233 0-.432.191-.442.423 0 0-.121 2.845.288 4.892.451 2.253 3.467 4.531 3.467 4.531.186.14.305.443.265.673 0 0-.095.545-.199 1.064-.234 1.172-.583 2.184-.583 2.184-.076.22-.329.4-.562.4h-2.193c-.233 0-.424.191-.424.424v2.212c0 .233.191.424.424.424h8.143c.233 0 .424-.191.424-.424v-2.212c0-.233-.191-.424-.424-.424zm3.155-11.27c-.052-.216-.125-.431-.243-.648-.12-.224-.313-.45-.55-.595-.237-.148-.508-.22-.761-.222-.254-.004-.49.055-.696.15l-.042.02c-.044.025-.082.14-.083.257l-.006.298c-.003.116.088.191.202.166l.14-.01c.14-.004.269.014.374.054l.138.071.1.089.071.105.01.019.022.052.011.03.003.009v.002l.005.012.06.212.03.174c.038.278.04.584.007.881-.033.295-.104.592-.208.816l-.079.147-.04.057-.059.066c-.085.09-.184.173-.287.236-.207.128-.42.191-.68.154l-.046-.006c-.053-.013-.121.068-.151.18l-.112.366c-.039.11-.044.216-.012.235l.032.016c.208.106.452.172.701.179.249.01.497-.039.722-.123.226-.086.43-.204.616-.351l.137-.12.137-.147c.085-.101.154-.205.213-.308.118-.207.199-.416.261-.624.062-.208.103-.417.128-.626.045-.42.035-.843-.065-1.273zm-11.568 3.374c.032-.02.027-.126-.012-.235l-.113-.366c-.03-.112-.098-.194-.151-.18l-.046.006c-.26.037-.473-.026-.68-.154-.103-.063-.203-.146-.288-.236l-.058-.066-.041-.058-.078-.146c-.103-.224-.175-.521-.208-.817-.034-.297-.032-.603.007-.881l.029-.174.06-.212.005-.012v.001-.002l.003-.009.011-.03.022-.052.01-.019.07-.105.1-.089.138-.071c.105-.04.234-.058.374-.054l.14.01c.113.025.204-.049.201-.166l-.005-.297c-.002-.117-.039-.232-.083-.257l-.042-.02c-.206-.095-.442-.154-.696-.15-.253.002-.524.075-.761.223-.237.145-.431.371-.55.595-.119.217-.192.432-.244.648-.1.43-.109.853-.061 1.272.025.209.066.418.128.626.062.207.143.416.261.623.059.104.128.207.213.308l.137.147.137.12c.186.148.39.266.616.351.225.083.473.132.722.123.248-.007.493-.074.701-.18l.032-.015z" fill="#bbb"/></svg>