<?xml version="1.0" encoding="utf-8"?>
<!-- Generator: Adobe Illustrator 17.1.0, SVG Export Plug-In . SVG Version: 6.00 Build 0)  -->
<!DOCTYPE svg PUBLIC "-//W3C//DTD SVG 1.1//EN" "http://www.w3.org/Graphics/SVG/1.1/DTD/svg11.dtd">
<svg version="1.1"
	 id="Layer_1" xmlns:cc="http://creativecommons.org/ns#" xmlns:svg="http://www.w3.org/2000/svg" xmlns:dc="http://purl.org/dc/elements/1.1/" xmlns:rdf="http://www.w3.org/1999/02/22-rdf-syntax-ns#"
	 xmlns="http://www.w3.org/2000/svg" xmlns:xlink="http://www.w3.org/1999/xlink" x="0px" y="0px" viewBox="0 0 900.4 768"
	 enable-background="new 0 0 900.4 768" xml:space="preserve">
<g>
	<polygon fill="#777777" points="599.9,186.4 631.1,217.6 545.5,303.2 524.1,281.7 519,369.6 606.9,364.6 585.4,343.1 671,257.5 
		702.2,288.7 709.2,179.4 	"/>
	<polygon fill="#777777" points="545.5,268.8 587.6,227 503.5,227 541.3,264.8 	"/>
	<path fill="#777777" d="M520.4,393.9l-27.3,1.6l1.6-27.3l5-87.7l3.1-53.5H191.2v362h471V385.8l-53.8,3.1L520.4,393.9z M611.2,541
		H237.7l110.5-144.1L365,390l104.4,109.3l56.5-33.7l85.2,75.1L611.2,541L611.2,541z"/>
	<polygon fill="#777777" points="624.2,347.3 662.2,385.3 662.2,301 620,343.1 	"/>
</g>
</svg>
