<?xml version="1.0" encoding="UTF-8"?>
<!-- Generator: Adobe Illustrator 16.0.4, SVG Export Plug-In . SVG Version: 6.00 Build 0)  -->
<!DOCTYPE svg PUBLIC "-//W3C//DTD SVG 1.1//EN" "http://www.w3.org/Graphics/SVG/1.1/DTD/svg11.dtd">
<svg version="1.1" id="Layer_1" xmlns="http://www.w3.org/2000/svg" xmlns:xlink="http://www.w3.org/1999/xlink" x="0px" y="0px" width="80px" height="80px" viewBox="0 0 80 80" enable-background="new 0 0 80 80" xml:space="preserve">
<g>
	
		<linearGradient id="SVGID_1_" gradientUnits="userSpaceOnUse" x1="326" y1="-301.0737" x2="326" y2="-329.7758" gradientTransform="matrix(1 0 0 -1 -286 -294)">
		<stop offset="0" style="stop-color:#FFFFFF;stop-opacity:0.95"/>
		<stop offset="0.7874" style="stop-color:#FFFFFF"/>
	</linearGradient>
	<rect fill="url(#SVGID_1_)" width="80" height="80"/>
	<path fill="#929497" d="M67.171,46.794l3.663-3.662c0.101-0.083,0.189-0.184,0.284-0.278l0.053-0.056   c0.189-0.19,0.354-0.408,0.48-0.639c0.888-1.259,1.354-2.717,1.354-4.258V14.47c0-1.991-0.778-3.874-2.191-5.288   c-1.409-1.401-3.286-2.183-5.284-2.183H42.104c-1.661,0-3.229,0.537-4.552,1.562c-0.062,0.04-0.12,0.092-0.179,0.138   C37.013,9,36.684,9.316,36.397,9.66l-2.885,2.882c-0.251,0.206-0.477,0.399-0.685,0.604l-11.587,11.6L10.974,35.01l-2.497,2.498   c-1.979,1.975-1.979,5.183,0,7.151l2.497,2.505l21.854,21.854l2.501,2.498c1.979,1.978,5.182,1.978,7.153,0l2.505-2.498   l10.262-10.271L66.84,47.164C66.954,47.054,67.055,46.94,67.171,46.794z M60.468,19.535c3.744,3.744,3.738,9.784,0,13.515   c-3.729,3.74-9.78,3.74-13.518,0c-3.727-3.729-3.734-9.785,0-13.515C50.68,15.803,56.746,15.803,60.468,19.535z"/>
</g>
</svg>