<?xml version="1.0" encoding="UTF-8" standalone="no"?>
<svg
   viewBox="0 0 64 64"
   version="1.1"
   id="svg1"
   sodipodi:docname="restrict-LGBT.svg"
   width="64"
   height="64"
   inkscape:version="1.3.2 (091e20e, 2023-11-25)"
   xmlns:inkscape="http://www.inkscape.org/namespaces/inkscape"
   xmlns:sodipodi="http://sodipodi.sourceforge.net/DTD/sodipodi-0.dtd"
   xmlns="http://www.w3.org/2000/svg"
   xmlns:svg="http://www.w3.org/2000/svg">
  <defs
     id="defs1" />
  <sodipodi:namedview
     id="namedview1"
     pagecolor="#ffffff"
     bordercolor="#000000"
     borderopacity="0.25"
     inkscape:showpageshadow="2"
     inkscape:pageopacity="0.0"
     inkscape:pagecheckerboard="0"
     inkscape:deskcolor="#d1d1d1"
     inkscape:zoom="5.6331019"
     inkscape:cx="37.723443"
     inkscape:cy="39.498664"
     inkscape:window-width="1440"
     inkscape:window-height="743"
     inkscape:window-x="0"
     inkscape:window-y="25"
     inkscape:window-maximized="0"
     inkscape:current-layer="svg1" />
  <path
     d="m 9.2135707,59.857358 c 0,-1.214998 0,-0.946297 1.1486343,-2.243075 5.851828,-6.565668 18.253979,-20.491427 21.699882,-28.786131 0.682972,-1.647258 0.80715,-1.647258 0.574317,-3.025816 C 31.022107,15.942152 26.551746,7.133409 15.298229,7.133409 c -2.188614,0 -4.594537,0.6892777 -7.0004626,1.9860559 C 7.1491324,9.7269645 6.3419844,9.983983 5.7676674,9.983983 4.9605181,9.983983 4.7276857,9.902202 4.7276857,9.0376859 4.7276857,6.7946105 12.193812,1 18.511303,1 c 11.377691,0 14.932251,11.752779 19.061126,29.744111 1.490121,6.483889 3.445906,13.750519 5.85183,20.140946 1.381465,3.633315 4.936023,4.322593 6.783154,4.322593 4.128875,0.08178 6.891808,-1.378556 7.807612,-1.378556 0.574317,0 1.257289,0.35048 1.257289,0.782739 0,4.579612 -4.703195,8.131148 -9.654742,8.131148 -3.787389,0 -7.12464,-1.121537 -8.847589,-5.44413 C 38.472712,51.597701 36.066786,42.520256 35.026807,36.550405 34.918151,36.118146 34.561144,36.036367 34.343835,36.468625 31.580903,41.655737 23.773291,52.8127 18.49578,59.892406 18.154294,60.406445 16.772828,63 15.857025,63 14.25825,62.976635 9.2135707,61.422838 9.2135707,59.857358 Z"
     fill="#9c4e97"
     id="path1"
     style="fill:#020102;fill-opacity:1;stroke-width:0.134663" />
</svg>
