<?xml version="1.0" encoding="utf-8"?>
<!-- Generator: Adobe Illustrator 16.0.4, SVG Export Plug-In . SVG Version: 6.00 Build 0)  -->
<!DOCTYPE svg PUBLIC "-//W3C//DTD SVG 1.1//EN" "http://www.w3.org/Graphics/SVG/1.1/DTD/svg11.dtd">
<svg version="1.1" id="Layer_1" xmlns="http://www.w3.org/2000/svg" xmlns:xlink="http://www.w3.org/1999/xlink" x="0px" y="0px"
	 width="80px" height="80px" viewBox="0 0 80 80" enable-background="new 0 0 80 80" xml:space="preserve">
<g>
	
		<linearGradient id="SVGID_1_" gradientUnits="userSpaceOnUse" x1="326" y1="-301.0742" x2="326" y2="-329.7761" gradientTransform="matrix(1 0 0 -1 -286 -294)">
		<stop  offset="0" style="stop-color:#FFFFFF;stop-opacity:0.95"/>
		<stop  offset="0.7874" style="stop-color:#FFFFFF"/>
	</linearGradient>
	<rect fill="url(#SVGID_1_)" width="80" height="80"/>
	<path fill="#929497" d="M61.615,10.966c-2.91-2.913-6.309-5.171-10.109-6.716c-11.435-4.632-24.46-1.979-33.178,6.728
		c-5.783,5.792-8.975,13.166-8.975,20.791c0,7.613,3.19,14.995,8.975,20.781l3.182,3.153c6.386,6.31,11.893,11.758,16.618,19.331
		L39.966,78l1.85-2.966c4.725-7.573,10.232-13.021,16.607-19.324l3.191-3.17C73.658,40.496,73.658,23.011,61.615,10.966z
		 M49.477,42.641c-5.25,5.258-13.76,5.258-19.011,0c-5.249-5.24-5.249-13.75,0-19c5.251-5.24,13.761-5.24,19.011,0
		C54.715,28.891,54.715,37.399,49.477,42.641z"/>
</g>
</svg>
