<?xml version="1.0" encoding="UTF-8" standalone="no"?>
<!-- Created with Inkscape (http://www.inkscape.org/) -->

<svg
   xmlns:dc="http://purl.org/dc/elements/1.1/"
   xmlns:cc="http://creativecommons.org/ns#"
   xmlns:rdf="http://www.w3.org/1999/02/22-rdf-syntax-ns#"
   xmlns:svg="http://www.w3.org/2000/svg"
   xmlns="http://www.w3.org/2000/svg"
   version="1.1"
   width="21.125"
   height="21.78125"
   id="svg2">
  <defs
     id="defs4" />
  <metadata
     id="metadata7">
    <rdf:RDF>
      <cc:Work
         rdf:about="">
        <dc:format>image/svg+xml</dc:format>
        <dc:type
           rdf:resource="http://purl.org/dc/dcmitype/StillImage" />
        <dc:title></dc:title>
      </cc:Work>
    </rdf:RDF>
  </metadata>
  <g
     transform="translate(-700.84821,-718.56757)"
     id="layer1">
    <path
       d="m 713.66071,718.56757 c 0.10108,0 0.1875,0.14431 0.1875,0.34375 l 0,3.78125 c 0,0.19944 -0.0864,0.375 -0.1875,0.375 l -5.125,0 9.4375,9.4375 0,-5.96875 c 0,-0.10497 0.13522,-0.1875 0.3125,-0.1875 l 3.375,0 c 0.17728,0 0.3125,0.0825 0.3125,0.1875 l 0,13.125 0,0.3125 c 0,0.19944 -0.0864,0.375 -0.1875,0.375 l -12.625,0 c -0.10108,0 -0.1875,-0.17556 -0.1875,-0.375 l 0,-3.78125 c 0,-0.19944 0.0864,-0.34375 0.1875,-0.34375 l 5.8125,0 -10.125,-10.09375 0,6.59375 c 0,0.10886 -0.16647,0.21875 -0.34375,0.21875 l -3.34375,0 c -0.17728,0 -0.3125,-0.10989 -0.3125,-0.21875 l 0,-9.65625 0,-3.78125 0,-0.15625 c 0,-0.0128 0.0275,-0.0191 0.0312,-0.0312 0.005,-0.0151 -0.01,-0.0488 0,-0.0625 0.0185,-0.0364 0.0375,-0.0444 0.0625,-0.0625 0.008,-0.005 0.0223,0.004 0.0312,0 0.0132,-0.006 0.0171,-0.0312 0.0312,-0.0312 l 0.15625,0 3.34375,0 9.15625,0 z"
       id="rect3107-3-4-1-1-0-9-5-5-7-4-50-7-5-7"
       style="fill:#000000;fill-opacity:0.53333309;stroke:none" />
    <path
       d="m 713.19196,719.06757 c 0.0753,0 0.15625,0.11505 0.15625,0.28125 l 0,2.40625 c 0,0.1662 -0.081,0.3125 -0.15625,0.3125 l -6.375,0 11.65625,11.65625 0,-6.75 c 0,-0.0784 0.1463,-0.125 0.3125,-0.125 l 2.40625,0 c 0.1662,0 0.28125,0.0466 0.28125,0.125 l 0,9.65625 0,2.40625 0,0.15625 c 0,0.0131 -0.0243,0.0192 -0.0312,0.0312 -0.003,0.008 0.003,0.0237 0,0.0312 -0.0151,0.0169 -0.0354,0.0185 -0.0625,0.0312 -0.0163,0.0151 -0.0124,0.0625 -0.0312,0.0625 l -11.75,0 c -0.0753,0 -0.125,-0.1463 -0.125,-0.3125 l 0,-2.40625 c 0,-0.1662 0.0497,-0.28125 0.125,-0.28125 l 7.28125,0 -12.53125,-12.53125 0,7.59375 c 0,0.0784 -0.1463,0.15625 -0.3125,0.15625 l -2.40625,0 c -0.1662,0 -0.28125,-0.0779 -0.28125,-0.15625 l 0,-9.65625 0,-2.40625 0,-0.15625 c 0,-0.0151 0.0221,-0.0176 0.0312,-0.0312 0.005,-0.008 -0.008,-0.0238 0,-0.0312 0.009,-0.0209 0.0194,-0.0173 0.0312,-0.0312 0.008,-0.004 0.0229,0.003 0.0312,0 0.0131,-0.009 0.0168,-0.0312 0.0312,-0.0312 l 0.15625,0 2.40625,0 9.15625,0 z"
       id="rect3107-3-50-5-3-7-8-2-0-8-9-8-8-9-8"
       style="fill:#ffffff;fill-opacity:1;stroke:none" />
  </g>
</svg>
