<?xml version="1.0" encoding="UTF-8" standalone="no"?>
<!-- Created with Inkscape (http://www.inkscape.org/) -->

<svg
   xmlns:dc="http://purl.org/dc/elements/1.1/"
   xmlns:cc="http://creativecommons.org/ns#"
   xmlns:rdf="http://www.w3.org/1999/02/22-rdf-syntax-ns#"
   xmlns:svg="http://www.w3.org/2000/svg"
   xmlns="http://www.w3.org/2000/svg"
   version="1.1"
   width="26"
   height="40"
   id="svg2">
  <defs
     id="defs4" />
  <metadata
     id="metadata7">
    <rdf:RDF>
      <cc:Work
         rdf:about="">
        <dc:format>image/svg+xml</dc:format>
        <dc:type
           rdf:resource="http://purl.org/dc/dcmitype/StillImage" />
        <dc:title></dc:title>
      </cc:Work>
    </rdf:RDF>
  </metadata>
  <path
     d="m 6,0.00747 c -0.10225,0 -0.2029,0.0466 -0.28125,0.125 l -5.0625,5.09375 c -0.1567,0.1567 -0.1567,0.40581 0,0.5625 l 14.1875,14.21875 -14.1875,14.21875 c -0.1567,0.1567 -0.1567,0.40581 0,0.5625 l 5.0625,5.09375 c 0.15669,0.1567 0.43705,0.1567 0.59375,0 l 14.46875,-14.5 5.09375,-5.09375 c 0.0784,-0.0784 0.125,-0.179 0.125,-0.28125 0,-0.0511 -0.0117,-0.10811 -0.0312,-0.15625 -0.0196,-0.0481 -0.0546,-0.0858 -0.0937,-0.125 L 20.78135,14.63247 6.3126,0.13247 C 6.2342,0.05407 6.10235,0.00747 6.0001,0.00747 z"
     id="rect3107-3-4-1-1"
     style="fill:#000000;fill-opacity:0.53333333;stroke:none" />
  <path
     d="m 6,0.69497 c -0.0767,0 -0.12874,0.004 -0.1875,0.0625 L 1.96875,4.60122 c -0.11752,0.11752 -0.11752,0.28873 0,0.40625 l 14.3125,14.28125 -14.9375,14.9375 c -0.1567,0.1567 -0.1567,0.40581 0,0.5625 l 3.6875,3.65625 c 0.15669,0.1567 0.4058,0.1567 0.5625,0 l 15.125,-15.125 3.75,-3.75 c 0.0219,-0.0219 0.0467,-0.0373 0.0625,-0.0625 0.0172,-0.0172 0.0191,-0.0427 0.0312,-0.0625 0.004,-0.009 -0.003,-0.0218 0,-0.0312 0.0386,-0.079 0.0351,-0.1386 0,-0.21875 -0.008,-0.0191 0.0125,-0.0451 0,-0.0625 -0.005,-0.0135 -0.0242,-0.0183 -0.0312,-0.0312 l -0.0625,-0.0937 -3.6875,-3.65625 L 6.21875,0.75762 C 6.15995,0.69882 6.07669,0.69512 6,0.69512 z"
     id="rect3107-3-5-2-3"
     style="fill:#ffffff;fill-opacity:1;stroke:none" />
</svg>
