<?xml version="1.0" encoding="utf-8"?>
<!DOCTYPE svg PUBLIC "-//W3C//DTD SVG 1.1//EN" "http://www.w3.org/Graphics/SVG/1.1/DTD/svg11.dtd">
<svg version="1.1" id="Layer_1" xmlns="http://www.w3.org/2000/svg" xmlns:xlink="http://www.w3.org/1999/xlink" x="0px" y="0px" width="80px" height="80px" viewBox="0 0 80 80" xml:space="preserve"><path fill="#929497" d="M62.621,17.368C56.585,11.326,48.549,8,39.996,8c-8.546,0-16.582,3.326-22.632,9.368C11.322,23.411,8,31.451,8,40s3.322,16.589,9.364,22.621C23.414,68.664,31.45,72,39.996,72c8.553,0,16.589-3.336,22.625-9.379C68.666,56.589,72,48.549,72,40S68.666,23.411,62.621,17.368z M50.477,55.118L36.804,41.467V18.066h5.145v21.243L54.11,51.477L50.477,55.118z"/></svg>
