<?xml version="1.0" encoding="utf-8"?>
<!-- Generator: Adobe Illustrator 16.0.4, SVG Export Plug-In . SVG Version: 6.00 Build 0)  -->
<!DOCTYPE svg PUBLIC "-//W3C//DTD SVG 1.1//EN" "http://www.w3.org/Graphics/SVG/1.1/DTD/svg11.dtd">
<svg version="1.1" id="Layer_1" xmlns="http://www.w3.org/2000/svg" xmlns:xlink="http://www.w3.org/1999/xlink" x="0px" y="0px"
	 width="80px" height="80px" viewBox="0 0 80 80" enable-background="new 0 0 80 80" xml:space="preserve">
<g>
	
		<linearGradient id="SVGID_1_" gradientUnits="userSpaceOnUse" x1="326" y1="-301.0742" x2="326" y2="-329.7763" gradientTransform="matrix(1 0 0 -1 -286 -294)">
		<stop  offset="0" style="stop-color:#FFFFFF;stop-opacity:0.95"/>
		<stop  offset="0.7874" style="stop-color:#FFFFFF"/>
	</linearGradient>
	<rect fill="url(#SVGID_1_)" width="80" height="80"/>
	<path fill="#929497" d="M62.621,17.368C56.585,11.326,48.549,8,39.996,8c-8.546,0-16.582,3.326-22.632,9.368
		C11.322,23.411,8,31.451,8,40s3.322,16.589,9.364,22.621C23.414,68.664,31.45,72,39.996,72c8.553,0,16.589-3.336,22.625-9.379
		C68.666,56.589,72,48.549,72,40S68.666,23.411,62.621,17.368z M50.477,55.118L36.804,41.467V18.066h5.145v21.243L54.11,51.477
		L50.477,55.118z"/>
</g>
</svg>
