<?xml version="1.0" encoding="utf-8"?>
<!DOCTYPE svg PUBLIC "-//W3C//DTD SVG 1.1//EN" "http://www.w3.org/Graphics/SVG/1.1/DTD/svg11.dtd">
<svg version="1.1" xmlns="http://www.w3.org/2000/svg" xmlns:xlink="http://www.w3.org/1999/xlink" width="80px" height="80px"><path fill="#929497" d="M16.436,8C8.396,8,8.014,15.667,8,16.049V72c28.596,0,50.623,0,55.562,0c8.039,0,8.422-7.667,8.438-8.049V8H16.436z"/><path fill="#FFFFFF" d="M31.202,26.303c2.565,0,4.649,2.086,4.649,4.655c0,2.573-2.084,4.653-4.649,4.653c-2.573,0-4.659-2.08-4.659-4.653C26.542,28.389,28.629,26.303,31.202,26.303z"/><circle fill="#FFFFFF" cx="50.476" cy="30.957" r="4.654"/><path fill="#FFFFFF" d="M40.835,57.729c-7.189,0-13.987-2.433-18.186-6.508c-1.057-1.025-1.082-2.714-0.056-3.771c1.025-1.056,2.714-1.082,3.771-0.056c3.226,3.131,8.636,5,14.471,5c5.749,0,11.117-1.83,14.359-4.896c1.068-1.011,2.756-0.966,3.77,0.105c1.012,1.07,0.965,2.758-0.105,3.77C54.588,55.413,48.019,57.729,40.835,57.729z"/></svg>
