<?xml version="1.0" encoding="UTF-8" standalone="no"?>
<svg
   xmlns:dc="http://purl.org/dc/elements/1.1/"
   xmlns:cc="http://creativecommons.org/ns#"
   xmlns:rdf="http://www.w3.org/1999/02/22-rdf-syntax-ns#"
   xmlns:svg="http://www.w3.org/2000/svg"
   xmlns="http://www.w3.org/2000/svg"
   xmlns:sodipodi="http://sodipodi.sourceforge.net/DTD/sodipodi-0.dtd"
   xmlns:inkscape="http://www.inkscape.org/namespaces/inkscape"
   version="1.1"
   width="80px"
   height="80px"
   id="svg2"
   inkscape:version="0.48.4 r9939"
   sodipodi:docname="user-rtl.svg">
  <metadata
     id="metadata16">
    <rdf:RDF>
      <cc:Work
         rdf:about="">
        <dc:format>image/svg+xml</dc:format>
        <dc:type
           rdf:resource="http://purl.org/dc/dcmitype/StillImage" />
      </cc:Work>
    </rdf:RDF>
  </metadata>
  <defs
     id="defs14" />
  <sodipodi:namedview
     pagecolor="#ffffff"
     bordercolor="#666666"
     borderopacity="1"
     objecttolerance="10"
     gridtolerance="10"
     guidetolerance="10"
     inkscape:pageopacity="0"
     inkscape:pageshadow="2"
     inkscape:window-width="640"
     inkscape:window-height="480"
     id="namedview12"
     showgrid="false"
     inkscape:zoom="2.95"
     inkscape:cx="40"
     inkscape:cy="40"
     inkscape:window-x="0"
     inkscape:window-y="27"
     inkscape:window-maximized="0"
     inkscape:current-layer="svg2" />
  <path
     d="m 63.564,8 c 8.04,0 8.422,7.667 8.436,8.049 V 72 C 43.404,72 21.377,72 16.438,72 8.399,72 8.016,64.333 8,63.951 V 8 h 55.564 z"
     id="path4"
     inkscape:connector-curvature="0"
     style="fill:#929497" />
  <path
     d="m 48.798,26.303 c -2.565,0 -4.649,2.086 -4.649,4.655 0,2.573 2.084,4.653 4.649,4.653 2.573,0 4.659,-2.08 4.659,-4.653 10e-4,-2.569 -2.086,-4.655 -4.659,-4.655 z"
     id="path6"
     inkscape:connector-curvature="0"
     style="fill:#ffffff" />
  <circle
     cx="50.476002"
     cy="30.957001"
     r="4.6539998"
     id="circle8"
     sodipodi:cx="50.476002"
     sodipodi:cy="30.957001"
     sodipodi:rx="4.6539998"
     sodipodi:ry="4.6539998"
     transform="matrix(-1,0,0,1,80,0)"
     style="fill:#ffffff" />
  <path
     d="m 39.165,57.729 c 7.189,0 13.987,-2.433 18.186,-6.508 1.057,-1.025 1.082,-2.714 0.056,-3.771 -1.025,-1.056 -2.714,-1.082 -3.771,-0.056 -3.226,3.131 -8.636,5 -14.471,5 -5.749,0 -11.117,-1.83 -14.359,-4.896 -1.068,-1.011 -2.756,-0.966 -3.77,0.105 -1.012,1.07 -0.965,2.758 0.105,3.77 4.271,4.04 10.84,6.356 18.024,6.356 z"
     id="path10"
     inkscape:connector-curvature="0"
     style="fill:#ffffff" />
</svg>
