<?xml version="1.0" encoding="utf-8"?>
<!-- Generator: Adobe Illustrator 17.1.0, SVG Export Plug-In . SVG Version: 6.00 Build 0)  -->
<!DOCTYPE svg PUBLIC "-//W3C//DTD SVG 1.1//EN" "http://www.w3.org/Graphics/SVG/1.1/DTD/svg11.dtd">
<svg version="1.1" id="Layer_1" xmlns="http://www.w3.org/2000/svg" xmlns:xlink="http://www.w3.org/1999/xlink" x="0px" y="0px"
	 viewBox="0 0 80 80" enable-background="new 0 0 80 80" xml:space="preserve">
<g id="g4939_2_" transform="matrix(1.052195,0,0,1.052195,-7.7556,-16.09329)">
	<path id="path4653_2_" fill="#777777" d="M44.6,85.1c-6.6-0.2-12.7-3.2-17-8.2c-3.6-4.2-5.5-9.5-5.5-15.1c0-5.6,1.9-10.9,5.6-15.2
		c0.5-0.6,1.7-1.8,1.8-1.8c0,0,1.4,1.4,3.1,3.1l3.1,3.1l0.9-0.8c0.5-0.5,0.9-0.8,0.9-0.8c0,0,0.6,1.9,1.8,6.4c0,0,0,0.1-0.1,0.1
		c0,0-5.9-1.6-6.3-1.7c0,0-0.1,0-0.1,0c0,0,0.4-0.4,0.8-0.9c0.5-0.5,0.8-0.9,0.8-0.9c0-0.1-1.5-1.6-1.5-1.6c0,0-0.4,0.5-0.8,0.9
		c-1.9,2.4-3.1,5.4-3.4,8.4c-0.1,0.8-0.1,0.9,0,1c0.1,0,2.1,0,2.2,0c0,0,0-0.3,0-1.2c0-1.2,0-1.2,0.1-1.2c0.1,0,5.7,3.3,5.7,3.3
		c0,0,0,0.1-0.1,0.1C36.5,62,31,65.1,31,65.1c0,0,0-0.5,0-1.2l0-1.2h-1.1h-1.1l0,0.3c0,0.6,0.2,1.7,0.4,2.5c0.5,2.4,1.6,4.6,3.1,6.5
		c0.3,0.3,0.8,1,0.8,1c0,0,1.6-1.5,1.6-1.6c0,0-0.4-0.4-0.8-0.9c-0.5-0.5-0.8-0.9-0.8-0.9c0-0.1,6.4-1.8,6.4-1.7
		c0,0-1.7,6.4-1.7,6.4c0,0-0.3-0.3-0.9-0.8c-0.5-0.5-0.9-0.9-0.9-0.9c-0.1,0-1.6,1.5-1.5,1.6c0,0.1,0.6,0.6,1.1,0.9
		c1.9,1.4,4.1,2.5,6.5,3c0.8,0.2,1.9,0.3,2.5,0.4l0.3,0v-1.1v-1.1l-1.2,0c-0.8,0-1.2,0-1.2,0c0-0.1,3.3-5.8,3.3-5.8
		c0,0,3.3,5.7,3.3,5.8c0,0-0.4,0-1.2,0l-1.2,0v1.1v1.1l0.3,0c0.6,0,1.7-0.2,2.5-0.4c2.4-0.5,4.6-1.6,6.5-3c0.4-0.3,1-0.8,1.1-0.9
		s-1.5-1.6-1.5-1.6c0,0-0.4,0.4-0.9,0.9c-0.5,0.5-0.9,0.8-0.9,0.8c0-0.1-1.7-6.4-1.7-6.4c0,0,6.4,1.7,6.4,1.7c0,0-0.3,0.3-0.8,0.9
		c-0.5,0.5-0.8,0.9-0.8,0.9c0,0.1,1.5,1.6,1.6,1.6c0.1,0,0.6-0.6,0.8-1c1.5-1.9,2.5-4.2,3.1-6.5c0.2-0.8,0.3-1.9,0.3-2.5l0-0.3H61
		h-1.1l0,1.2c0,0.7,0,1.2,0,1.2c0,0-5.5-3.1-5.7-3.3c0,0-0.1-0.1-0.1-0.1c0,0,5.6-3.3,5.7-3.3c0.1,0,0.1,0,0.1,1.2
		c0,0.9,0,1.2,0,1.2c0,0,2.1,0.1,2.2,0c0,0,0-0.1,0-1c-0.3-3-1.5-6-3.4-8.4c-0.4-0.5-0.8-0.9-0.8-0.9c0,0-1.5,1.5-1.5,1.5
		c0,0,0.4,0.4,0.8,0.9c0.5,0.5,0.8,0.9,0.8,0.9c0,0,0,0-0.1,0.1c-0.4,0.1-6.3,1.7-6.3,1.7c0,0-0.1,0,0-0.1c1.2-4.4,1.7-6.3,1.8-6.4
		c0,0,0.4,0.3,0.9,0.8l0.9,0.8l0.8-0.8c0.4-0.4,0.8-0.8,0.8-0.8c0,0-0.5-0.4-0.9-0.7c-0.9-0.6-1.5-0.8-4.4-2c-2-0.8-3-1.3-4.2-2.1
		c-2.6-1.8-4.3-4.1-5.4-7.4c-0.1-0.4-0.5-1.6-0.5-1.6c0-0.1-0.2,0-1.6,0.5C38,36.7,37.3,37,37.1,37c-0.3,0-0.4-0.1-0.2-0.3
		c0.1-0.2,0.2-0.3,0.5-0.7c0.7-0.9,1.3-1.7,2-3.1c1.2-2.2,2.4-5.2,3.4-8.6c0.3-1,0.7-2.3,0.8-2.6c0-0.1,0-0.2,0.1-0.2
		c0,0,2.9,4.9,4.3,7.2c2.7,4.8,3.9,7.3,3.6,7.5c-0.1,0.1-0.2,0-0.7-0.5c-0.7-0.7-1.1-0.9-1.8-1.2c-0.3-0.1-0.8-0.2-1.1-0.2
		c-0.3,0-0.3,0-0.2,0.4c0.4,1.6,1.1,2.8,2,3.6c0.9,0.9,2,1.5,4.8,2.6c2.2,0.9,3.6,1.6,4.8,2.4c1,0.7,1.8,1.3,2.6,2.2
		c5,5.1,7.3,12,6.5,19.1c-0.7,6.2-4,11.8-8.9,15.6c-2.8,2.1-5.9,3.6-9.3,4.3C48.5,84.9,46.4,85.1,44.6,85.1z"/>
	<path id="path4697_2_" fill="#777777" d="M44.9,69.6c-1.2-0.1-2-0.3-2.9-0.8c-0.9-0.4-1.5-0.9-2.2-1.6c-1.1-1.2-1.9-2.6-2.1-4.3
		c-0.1-0.6-0.1-1.7,0-2.2c0.1-0.8,0.3-1.5,0.6-2.1c1.1-2.4,3.3-4.1,6-4.5c0.3,0,0.5-0.1,1.1-0.1c0.6,0,0.9,0,1.1,0.1
		c2.7,0.4,4.9,2.1,6,4.5c0.3,0.7,0.5,1.3,0.6,2.1c0.1,0.5,0.1,1.7,0,2.2c-0.1,0.8-0.3,1.5-0.7,2.2C52,66,51.6,66.6,51,67.2
		c-0.7,0.7-1.3,1.2-2.2,1.6c-1.1,0.5-2.1,0.8-3.3,0.8C45.3,69.6,45,69.6,44.9,69.6z"/>
</g>
</svg>
