<?xml version="1.0" encoding="UTF-8" standalone="no"?>
<svg
   xmlns:dc="http://purl.org/dc/elements/1.1/"
   xmlns:cc="http://creativecommons.org/ns#"
   xmlns:rdf="http://www.w3.org/1999/02/22-rdf-syntax-ns#"
   xmlns:svg="http://www.w3.org/2000/svg"
   xmlns="http://www.w3.org/2000/svg"
   xmlns:sodipodi="http://sodipodi.sourceforge.net/DTD/sodipodi-0.dtd"
   xmlns:inkscape="http://www.inkscape.org/namespaces/inkscape"
   version="1.1"
   width="100%"
   height="100%"
   viewBox="0 0 80 80"
   id="Layer_1"
   xml:space="preserve"
   inkscape:version="0.48.2 r9819"
   sodipodi:docname="commons_white.svg"><sodipodi:namedview
   pagecolor="#ffffff"
   bordercolor="#666666"
   borderopacity="1"
   objecttolerance="10"
   gridtolerance="10"
   guidetolerance="10"
   inkscape:pageopacity="0"
   inkscape:pageshadow="2"
   inkscape:window-width="721"
   inkscape:window-height="480"
   id="namedview8"
   showgrid="false"
   inkscape:zoom="2.95"
   inkscape:cx="40"
   inkscape:cy="36.779661"
   inkscape:window-x="0"
   inkscape:window-y="0"
   inkscape:window-maximized="0"
   inkscape:current-layer="g4939_2_" /><metadata
   id="metadata10"><rdf:RDF><cc:Work
       rdf:about=""><dc:format>image/svg+xml</dc:format><dc:type
         rdf:resource="http://purl.org/dc/dcmitype/StillImage" /><dc:title /></cc:Work></rdf:RDF></metadata><defs
   id="defs8" />
<g
   transform="matrix(1.2578616,0,0,1.2578616,-17.079061,-27.044023)"
   id="g4939_2_">
	<path
   d="M 44.6,85.1 C 38,84.9 31.9,81.9 27.6,76.9 24,72.7 22.1,67.4 22.1,61.8 c 0,-5.6 1.9,-10.9 5.6,-15.2 0.5,-0.6 1.7,-1.8 1.8,-1.8 0,0 1.4,1.4 3.1,3.1 l 3.1,3.1 0.9,-0.8 c 0.5,-0.5 0.9,-0.8 0.9,-0.8 0,0 0.6,1.9 1.8,6.4 0,0 0,0.1 -0.1,0.1 0,0 -5.9,-1.6 -6.3,-1.7 0,0 -0.1,0 -0.1,0 0,0 0.4,-0.4 0.8,-0.9 0.5,-0.5 0.8,-0.9 0.8,-0.9 0,-0.1 -1.5,-1.6 -1.5,-1.6 0,0 -0.4,0.5 -0.8,0.9 -1.9,2.4 -3.1,5.4 -3.4,8.4 -0.1,0.8 -0.1,0.9 0,1 0.1,0 2.1,0 2.2,0 0,0 0,-0.3 0,-1.2 0,-1.2 0,-1.2 0.1,-1.2 0.1,0 5.7,3.3 5.7,3.3 0,0 0,0.1 -0.1,0.1 -0.1,-0.1 -5.6,3 -5.6,3 0,0 0,-0.5 0,-1.2 l 0,-1.2 h -1.1 -1.1 l 0,0.3 c 0,0.6 0.2,1.7 0.4,2.5 0.5,2.4 1.6,4.6 3.1,6.5 0.3,0.3 0.8,1 0.8,1 0,0 1.6,-1.5 1.6,-1.6 0,0 -0.4,-0.4 -0.8,-0.9 -0.5,-0.5 -0.8,-0.9 -0.8,-0.9 0,-0.1 6.4,-1.8 6.4,-1.7 0,0 -1.7,6.4 -1.7,6.4 0,0 -0.3,-0.3 -0.9,-0.8 C 36.4,73 36,72.6 36,72.6 c -0.1,0 -1.6,1.5 -1.5,1.6 0,0.1 0.6,0.6 1.1,0.9 1.9,1.4 4.1,2.5 6.5,3 0.8,0.2 1.9,0.3 2.5,0.4 l 0.3,0 v -1.1 -1.1 l -1.2,0 c -0.8,0 -1.2,0 -1.2,0 0,-0.1 3.3,-5.8 3.3,-5.8 0,0 3.3,5.7 3.3,5.8 0,0 -0.4,0 -1.2,0 l -1.2,0 v 1.1 1.1 l 0.3,0 c 0.6,0 1.7,-0.2 2.5,-0.4 2.4,-0.5 4.6,-1.6 6.5,-3 0.4,-0.3 1,-0.8 1.1,-0.9 0.1,-0.1 -1.5,-1.6 -1.5,-1.6 0,0 -0.4,0.4 -0.9,0.9 -0.5,0.5 -0.9,0.8 -0.9,0.8 0,-0.1 -1.7,-6.4 -1.7,-6.4 0,0 6.4,1.7 6.4,1.7 0,0 -0.3,0.3 -0.8,0.9 -0.5,0.5 -0.8,0.9 -0.8,0.9 0,0.1 1.5,1.6 1.6,1.6 0.1,0 0.6,-0.6 0.8,-1 1.5,-1.9 2.5,-4.2 3.1,-6.5 0.2,-0.8 0.3,-1.9 0.3,-2.5 l 0,-0.3 H 61 59.9 l 0,1.2 c 0,0.7 0,1.2 0,1.2 0,0 -5.5,-3.1 -5.7,-3.3 0,0 -0.1,-0.1 -0.1,-0.1 0,0 5.6,-3.3 5.7,-3.3 0.1,0 0.1,0 0.1,1.2 0,0.9 0,1.2 0,1.2 0,0 2.1,0.1 2.2,0 0,0 0,-0.1 0,-1 -0.3,-3 -1.5,-6 -3.4,-8.4 -0.4,-0.5 -0.8,-0.9 -0.8,-0.9 0,0 -1.5,1.5 -1.5,1.5 0,0 0.4,0.4 0.8,0.9 0.5,0.5 0.8,0.9 0.8,0.9 0,0 0,0 -0.1,0.1 -0.4,0.1 -6.3,1.7 -6.3,1.7 0,0 -0.1,0 0,-0.1 1.2,-4.4 1.7,-6.3 1.8,-6.4 0,0 0.4,0.3 0.9,0.8 l 0.9,0.8 0.8,-0.8 c 0.4,-0.4 0.8,-0.8 0.8,-0.8 0,0 -0.5,-0.4 -0.9,-0.7 -0.9,-0.6 -1.5,-0.8 -4.4,-2 -2,-0.8 -3,-1.3 -4.2,-2.1 -2.6,-1.8 -4.3,-4.1 -5.4,-7.4 -0.1,-0.4 -0.5,-1.6 -0.5,-1.6 0,-0.1 -0.2,0 -1.6,0.5 -1.8,0.9 -2.5,1.2 -2.7,1.2 -0.3,0 -0.4,-0.1 -0.2,-0.3 0.1,-0.2 0.2,-0.3 0.5,-0.7 0.7,-0.9 1.3,-1.7 2,-3.1 1.2,-2.2 2.4,-5.2 3.4,-8.6 0.3,-1 0.7,-2.3 0.8,-2.6 0,-0.1 0,-0.2 0.1,-0.2 0,0 2.9,4.9 4.3,7.2 2.7,4.8 3.9,7.3 3.6,7.5 -0.1,0.1 -0.2,0 -0.7,-0.5 -0.7,-0.7 -1.1,-0.9 -1.8,-1.2 -0.3,-0.1 -0.8,-0.2 -1.1,-0.2 -0.3,0 -0.3,0 -0.2,0.4 0.4,1.6 1.1,2.8 2,3.6 0.9,0.9 2,1.5 4.8,2.6 2.2,0.9 3.6,1.6 4.8,2.4 1,0.7 1.8,1.3 2.6,2.2 5,5.1 7.3,12 6.5,19.1 -0.7,6.2 -4,11.8 -8.9,15.6 -2.8,2.1 -5.9,3.6 -9.3,4.3 -1.8,0.4 -3.9,0.6 -5.7,0.6 z"
   id="path4653_2_"
   style="fill:#ffffff;fill-opacity:1" />
	<path
   d="m 44.9,69.6 c -1.2,-0.1 -2,-0.3 -2.9,-0.8 -0.9,-0.4 -1.5,-0.9 -2.2,-1.6 -1.1,-1.2 -1.9,-2.6 -2.1,-4.3 -0.1,-0.6 -0.1,-1.7 0,-2.2 0.1,-0.8 0.3,-1.5 0.6,-2.1 1.1,-2.4 3.3,-4.1 6,-4.5 0.3,0 0.5,-0.1 1.1,-0.1 0.6,0 0.9,0 1.1,0.1 2.7,0.4 4.9,2.1 6,4.5 0.3,0.7 0.5,1.3 0.6,2.1 0.1,0.5 0.1,1.7 0,2.2 -0.1,0.8 -0.3,1.5 -0.7,2.2 -0.4,0.9 -0.8,1.5 -1.4,2.1 -0.7,0.7 -1.3,1.2 -2.2,1.6 -1.1,0.5 -2.1,0.8 -3.3,0.8 -0.2,0 -0.5,0 -0.6,0 z"
   id="path4697_2_"
   style="fill:#ffffff;fill-opacity:1" />
</g>
</svg>