<?xml version="1.0" encoding="utf-8"?>
<!-- Generator: Adobe Illustrator 17.1.0, SVG Export Plug-In . SVG Version: 6.00 Build 0)  -->
<!DOCTYPE svg PUBLIC "-//W3C//DTD SVG 1.1//EN" "http://www.w3.org/Graphics/SVG/1.1/DTD/svg11.dtd">
<svg version="1.1" id="Layer_1" xmlns="http://www.w3.org/2000/svg" xmlns:xlink="http://www.w3.org/1999/xlink" x="0px" y="0px"
	 viewBox="0 0 30 16" enable-background="new 0 0 30 16" xml:space="preserve">
<path fill="#FFFFFF" d="M24.5,13.1c-0.2,0-0.4,0-0.5-0.1l-9-5.2L6,13c-0.2,0.1-0.3,0.1-0.5,0.1c-0.4,0-0.7-0.2-0.9-0.5l-0.4-0.7
	C4,11.7,4,11.4,4.1,11.1c0.1-0.3,0.2-0.5,0.5-0.6l10.1-5.8l0.4,0l0.1,0h0.2l0.2,0.1l9.9,5.7c0.2,0.1,0.4,0.4,0.5,0.6
	c0.1,0.3,0,0.5-0.1,0.8l-0.4,0.7C25.2,12.9,24.9,13.1,24.5,13.1z"/>
</svg>
