<?xml version="1.0" encoding="UTF-8" standalone="no"?>
<!-- Created with Inkscape (http://www.inkscape.org/) -->

<svg
   xmlns:dc="http://purl.org/dc/elements/1.1/"
   xmlns:cc="http://creativecommons.org/ns#"
   xmlns:rdf="http://www.w3.org/1999/02/22-rdf-syntax-ns#"
   xmlns:svg="http://www.w3.org/2000/svg"
   xmlns="http://www.w3.org/2000/svg"
   version="1.1"
   width="100%"
   height="100%"
   viewBox="0 0 30 16"
   id="Layer_1"
   xml:space="preserve"><metadata
   id="metadata9"><rdf:RDF><cc:Work
       rdf:about=""><dc:format>image/svg+xml</dc:format><dc:type
         rdf:resource="http://purl.org/dc/dcmitype/StillImage" /><dc:title></dc:title></cc:Work></rdf:RDF></metadata><defs
   id="defs7" />
<path
   d="m 24.5,12.2 c -0.2,0 -0.4,0 -0.5,-0.1 L 15,6.9 6,12.1 C 5.8,12.2 5.7,12.2 5.5,12.2 5.1,12.2 4.8,12 4.6,11.7 L 4.2,11 C 4,10.8 4,10.5 4.1,10.2 4.2,9.9 4.3,9.7 4.6,9.6 l 10.1,-5.8 0.4,0 0.1,0 h 0.2 l 0.2,0.1 9.9,5.7 c 0.2,0.1 0.4,0.4 0.5,0.6 0.1,0.3 0,0.5 -0.1,0.8 l -0.4,0.7 c -0.3,0.3 -0.6,0.5 -1,0.5 z"
   id="path3"
   style="fill:#ffffff" />
</svg>