<?xml version="1.0" encoding="UTF-8" standalone="no"?>
<!-- Created with Inkscape (http://www.inkscape.org/) -->

<svg
   xmlns:dc="http://purl.org/dc/elements/1.1/"
   xmlns:cc="http://creativecommons.org/ns#"
   xmlns:rdf="http://www.w3.org/1999/02/22-rdf-syntax-ns#"
   xmlns:svg="http://www.w3.org/2000/svg"
   xmlns="http://www.w3.org/2000/svg"
   version="1.1"
   width="100%"
   height="100%"
   viewBox="0 0 96 96"
   id="svg2"
   xml:space="preserve"><metadata
     id="metadata10"><rdf:RDF><cc:Work
         rdf:about=""><dc:format>image/svg+xml</dc:format><dc:type
           rdf:resource="http://purl.org/dc/dcmitype/StillImage" /><dc:title></dc:title></cc:Work></rdf:RDF></metadata><defs
     id="defs8" /><g
     transform="matrix(4.4909144,0,0,4.4909144,-132.48096,-35.36026)"
     id="g3781"><path
       d="m 38.125,7.875 c -0.003,9.204e-4 0.003,0.030271 0,0.03125 -0.003,0.00104 -0.02826,-0.0011 -0.03125,0 -0.003,0.00115 -0.02831,-0.00121 -0.03125,0 -0.0029,0.00127 0.0029,0.029925 0,0.03125 -0.0029,0.00132 -0.02838,-0.00138 -0.03125,0 -0.0028,0.00144 -0.02844,-0.00149 -0.03125,0 -0.0028,0.00155 0.0028,0.029651 0,0.03125 -0.0028,0.0016 -0.02853,-0.00165 -0.03125,0 -0.0027,0.00176 -0.02863,-0.00181 -0.03125,0 -0.0026,0.00181 0.0026,0.029392 0,0.03125 -0.0025,0.00191 -0.02874,-0.00196 -0.03125,0 -0.0025,0.00201 0.0024,0.029197 0,0.03125 -0.0024,0.00205 -0.02886,-0.0021 -0.03125,0 -0.0023,0.00215 0.0023,0.029059 0,0.03125 -0.0023,0.00219 -0.02898,-0.00224 -0.03125,0 -0.0022,0.00232 -0.02912,0.028886 -0.03125,0.03125 -0.002,0.00244 0.002,0.028766 0,0.03125 -0.002,0.00248 -0.02931,-0.00252 -0.03125,0 -0.0019,0.00256 0.0018,0.028655 0,0.03125 -0.0018,0.00263 -0.02951,-0.00266 -0.03125,0 -0.0017,0.00266 0.0017,0.028552 0,0.03125 -0.0016,0.00273 0.0016,0.028488 0,0.03125 -0.0016,0.00276 -0.02972,-0.00279 -0.03125,0 -0.0015,0.00282 0.0014,0.028401 0,0.03125 -0.0013,0.0029 -0.03,0.028323 -0.03125,0.03125 -0.0012,0.00295 0.0011,0.028277 0,0.03125 -0.001,0.00301 9.6e-4,0.028216 0,0.03125 -9.01e-4,0.00305 8.42e-4,0.028181 0,0.03125 -8.42e-4,0.00307 -0.03047,-0.00309 -0.03125,0 -7.22e-4,0.0031 6.62e-4,0.028137 0,0.03125 -6.01e-4,0.00313 5.4e-4,0.028114 0,0.03125 -4.79e-4,0.00315 4.18e-4,0.028095 0,0.03125 l -0.3125,1.875 c -0.327001,0.110775 -0.63361,0.227755 -0.9375,0.375 L 34.8125,9.625 c -0.0029,-0.00204 -0.0283,0.00197 -0.03125,0 -0.003,-0.00184 -0.02817,-0.029474 -0.03125,-0.03125 -0.0031,-0.00171 -0.0281,0.00164 -0.03125,0 -0.0032,-0.00157 -0.02803,0.0015 -0.03125,0 -0.0032,-0.0015 0.0033,-0.029817 0,-0.03125 -0.0033,-0.00136 -0.02794,0.00129 -0.03125,0 -0.0033,-0.00122 -0.02789,0.00115 -0.03125,0 -0.0034,-0.00107 -0.02784,-0.03025 -0.03125,-0.03125 -0.0034,-9.256e-4 -0.0278,8.51e-4 -0.03125,0 -0.0035,-7.008e-4 -0.02775,6.252e-4 -0.03125,0 -0.0035,-5.493e-4 -0.02773,4.731e-4 -0.03125,0 -0.0035,-3.967e-4 -0.02771,3.201e-4 -0.03125,0 -0.0035,-2.433e-4 -0.0277,1.665e-4 -0.03125,0 -0.0036,-8.96e-5 -0.0277,-0.031237 -0.03125,-0.03125 -0.0036,6.44e-5 -0.0277,0.031109 -0.03125,0.03125 -0.0035,2.182e-4 -0.02771,-2.95e-4 -0.03125,0 -0.0035,3.716e-4 -0.02773,-4.481e-4 -0.03125,0 -0.0035,5.244e-4 -0.02775,-6.004e-4 -0.03125,0 -0.0035,7.515e-4 -0.02779,-8.266e-4 -0.03125,0 -0.0034,9.012e-4 -0.02783,-9.755e-4 -0.03125,0 -0.0034,0.00105 -0.02788,0.030127 -0.03125,0.03125 -0.0033,0.0012 -0.02793,-0.00127 -0.03125,0 -0.0033,0.00134 -0.02799,-0.00141 -0.03125,0 -0.0032,0.00148 0.0032,0.0297 0,0.03125 -0.0032,0.00155 -0.02809,-0.00162 -0.03125,0 -0.0031,0.00169 -0.02816,-0.00175 -0.03125,0 -0.0031,0.00175 0.0031,0.029429 0,0.03125 -0.003,0.00189 -0.02828,-0.00195 -0.03125,0 -0.0029,0.00202 -0.02837,0.029172 -0.03125,0.03125 -0.0028,0.0022 -0.02851,0.028989 -0.03125,0.03125 -0.0026,0.00238 -0.02866,-0.00243 -0.03125,0 -0.0026,0.00243 0.0025,0.02876 0,0.03125 l -2.59375,2.59375 c -0.0025,0.0025 -0.02882,-0.0026 -0.03125,0 -0.0024,0.0026 0.0024,0.02861 0,0.03125 -0.0023,0.0027 -0.02905,0.02846 -0.03125,0.03125 -0.0021,0.0029 -0.02923,0.02833 -0.03125,0.03125 -0.002,0.003 0.0019,0.02824 0,0.03125 -0.0018,0.003 -0.0295,-0.0031 -0.03125,0 -0.0018,0.0031 0.0017,0.02812 0,0.03125 -0.0016,0.0032 0.0016,0.02805 0,0.03125 -0.0016,0.0032 -0.02977,-0.0032 -0.03125,0 -0.0014,0.0033 0.0013,0.02796 0,0.03125 -0.0013,0.0033 0.0012,0.02791 0,0.03125 -0.0011,0.0034 -0.0302,0.02786 -0.03125,0.03125 -9.75e-4,0.0034 9.01e-4,0.02781 0,0.03125 -8.27e-4,0.0035 7.51e-4,0.02778 0,0.03125 -6e-4,0.0035 5.24e-4,0.02774 0,0.03125 -4.48e-4,0.0035 3.72e-4,0.02772 0,0.03125 -2.95e-4,0.0035 2.18e-4,0.0277 0,0.03125 -1.41e-4,0.0035 -0.03119,0.0277 -0.03125,0.03125 1.3e-5,0.0036 0.03116,0.0277 0.03125,0.03125 1.66e-4,0.0035 -2.43e-4,0.02771 0,0.03125 3.2e-4,0.0035 -3.97e-4,0.02772 0,0.03125 4.73e-4,0.0035 -5.49e-4,0.02774 0,0.03125 6.25e-4,0.0035 -7.01e-4,0.02777 0,0.03125 8.51e-4,0.0034 -9.26e-4,0.02782 0,0.03125 0.001,0.0034 0.03018,0.02786 0.03125,0.03125 0.0011,0.0034 -0.0012,0.02791 0,0.03125 0.0013,0.0033 -0.0014,0.02797 0,0.03125 0.0014,0.0032 0.02975,-0.0032 0.03125,0 0.0015,0.0032 -0.0016,0.02806 0,0.03125 0.0016,0.0031 -0.0017,0.02814 0,0.03125 0.0018,0.0031 0.02941,0.02821 0.03125,0.03125 0.002,0.003 -0.002,0.02834 0,0.03125 l 1.09375,1.53125 C 32.182954,15.048539 32.060374,15.386747 31.9375,15.75 l -1.84375,0.28125 c -0.0036,5.55e-4 -0.02762,-6.37e-4 -0.03125,0 -0.0036,7.18e-4 -0.02765,-7.99e-4 -0.03125,0 -0.0036,8.8e-4 -0.02769,-9.6e-4 -0.03125,0 -0.0036,9.6e-4 0.0035,0.03021 0,0.03125 -0.0035,0.001 -0.02774,-0.0011 -0.03125,0 -0.0035,0.0012 -0.02779,-0.0013 -0.03125,0 -0.0034,0.0014 -0.02785,-0.0014 -0.03125,0 -0.0034,0.0014 0.0034,0.02974 0,0.03125 -0.0034,0.0015 -0.02792,-0.0016 -0.03125,0 -0.0033,0.0017 -0.02803,-0.0018 -0.03125,0 -0.0032,0.0018 0.0032,0.02938 0,0.03125 -0.0032,0.0019 -0.02812,-0.0019 -0.03125,0 -0.0031,0.002 -0.02821,0.02916 -0.03125,0.03125 -0.0029,0.0022 -0.02836,-0.0023 -0.03125,0 -0.0029,0.0023 0.0028,0.0289 0,0.03125 -0.0028,0.0023 -0.02846,-0.0024 -0.03125,0 -0.0027,0.0025 0.0027,0.02871 0,0.03125 -0.0027,0.0025 -0.02863,-0.0026 -0.03125,0 -0.0026,0.0027 0.0025,0.02854 0,0.03125 -0.0025,0.0027 -0.02881,-0.0028 -0.03125,0 -0.0024,0.0028 0.0023,0.02838 0,0.03125 -0.0023,0.0029 -0.029,-0.0029 -0.03125,0 -0.0022,0.0029 0.0022,0.02828 0,0.03125 -0.002,0.0031 -0.02928,0.02814 -0.03125,0.03125 -0.0019,0.0032 0.0018,0.02805 0,0.03125 -0.0018,0.0032 -0.02956,0.02797 -0.03125,0.03125 -0.0015,0.0034 0.0015,0.02786 0,0.03125 -0.0015,0.0034 -0.02987,-0.0034 -0.03125,0 -0.0014,0.0034 0.0013,0.0278 0,0.03125 -0.0012,0.0035 0.0012,0.02775 0,0.03125 -0.0011,0.0035 9.92e-4,0.0277 0,0.03125 -9.12e-4,0.0036 -0.03042,0.02766 -0.03125,0.03125 -7.51e-4,0.0036 6.69e-4,0.02762 0,0.03125 -5.87e-4,0.0036 5.05e-4,0.0276 0,0.03125 -4.23e-4,0.0037 3.41e-4,0.02758 0,0.03125 -2.58e-4,0.0037 1.75e-4,0.02757 0,0.03125 -9.2e-5,0.0037 9e-6,0.02756 0,0.03125 l 0,3.65625 c 9e-6,0.0037 -9.2e-5,0.02756 0,0.03125 1.75e-4,0.0037 -2.58e-4,0.02757 0,0.03125 3.41e-4,0.0037 -4.23e-4,0.02759 0,0.03125 5.05e-4,0.0037 -5.87e-4,0.02761 0,0.03125 6.69e-4,0.0036 -7.51e-4,0.02764 0,0.03125 8.32e-4,0.0036 0.03034,0.02768 0.03125,0.03125 9.92e-4,0.0036 -0.0011,0.02772 0,0.03125 0.0012,0.0035 -0.0012,0.02777 0,0.03125 0.0013,0.0034 -0.0014,0.02783 0,0.03125 0.0014,0.0034 0.02979,-0.0034 0.03125,0 0.0015,0.0034 -0.0015,0.0279 0,0.03125 0.0017,0.0033 0.02949,0.02801 0.03125,0.03125 0.0018,0.0032 -0.0019,0.02809 0,0.03125 0.002,0.0031 0.02921,0.02818 0.03125,0.03125 0.0022,0.003 -0.0022,0.02833 0,0.03125 0.0022,0.0029 0.02894,-0.0029 0.03125,0 0.0023,0.0029 -0.0024,0.02843 0,0.03125 0.0024,0.0028 0.02875,-0.0027 0.03125,0 0.0025,0.0027 -0.0026,0.0286 0,0.03125 0.0026,0.0026 0.02857,-0.0025 0.03125,0 0.0027,0.0025 -0.0027,0.02877 0,0.03125 0.0028,0.0024 0.02841,-0.0023 0.03125,0 0.0028,0.0023 -0.0029,0.02896 0,0.03125 0.0029,0.0023 0.0283,-0.0022 0.03125,0 0.003,0.0021 0.02816,0.02923 0.03125,0.03125 0.0031,0.0019 0.02808,-0.0019 0.03125,0 0.0032,0.0019 -0.0032,0.02945 0,0.03125 0.0032,0.0018 0.02799,-0.0017 0.03125,0 0.0033,0.0016 0.02789,-0.0015 0.03125,0 0.0034,0.0015 -0.0034,0.02982 0,0.03125 0.0034,0.0014 0.02782,-0.0014 0.03125,0 0.0035,0.0013 0.02776,-0.0012 0.03125,0 0.0035,0.0011 0.02771,-0.001 0.03125,0 0.0035,0.001 -0.0036,0.03029 0,0.03125 0.0036,9.6e-4 0.02767,-8.8e-4 0.03125,0 0.0036,7.99e-4 0.02763,-7.18e-4 0.03125,0 0.0036,6.37e-4 0.02761,-5.55e-4 0.03125,0 l 1.84375,0.3125 c 0.122133,0.357729 0.245025,0.697847 0.40625,1.03125 L 31.25,23.9375 c -0.002,0.0029 0.002,0.0283 0,0.03125 -0.0018,0.003 -0.02947,0.02817 -0.03125,0.03125 -0.0017,0.0031 0.0016,0.0281 0,0.03125 -0.0016,0.0032 0.0015,0.02803 0,0.03125 -0.0015,0.0032 -0.02982,-0.0033 -0.03125,0 -0.0014,0.0033 0.0013,0.02794 0,0.03125 -0.0012,0.0033 0.0011,0.02789 0,0.03125 -0.0011,0.0034 -0.03025,0.02784 -0.03125,0.03125 -9.26e-4,0.0034 8.51e-4,0.0278 0,0.03125 -7.01e-4,0.0035 6.25e-4,0.02775 0,0.03125 -5.49e-4,0.0035 4.73e-4,0.02773 0,0.03125 -3.97e-4,0.0035 3.2e-4,0.02771 0,0.03125 -2.43e-4,0.0035 1.66e-4,0.0277 0,0.03125 -9e-5,0.0036 -0.03124,0.0277 -0.03125,0.03125 6.4e-5,0.0036 0.03111,0.0277 0.03125,0.03125 2.18e-4,0.0035 -2.95e-4,0.02771 0,0.03125 3.72e-4,0.0035 -4.48e-4,0.02773 0,0.03125 5.24e-4,0.0035 -6e-4,0.02775 0,0.03125 7.51e-4,0.0035 -8.27e-4,0.0278 0,0.03125 9.01e-4,0.0034 -9.75e-4,0.02783 0,0.03125 0.001,0.0034 0.03013,0.02788 0.03125,0.03125 0.0012,0.0033 -0.0013,0.02793 0,0.03125 0.0013,0.0033 -0.0014,0.02799 0,0.03125 0.0015,0.0032 0.0297,-0.0032 0.03125,0 0.0016,0.0032 -0.0016,0.02809 0,0.03125 0.0017,0.0031 -0.0018,0.02816 0,0.03125 0.0018,0.0031 0.02943,-0.0031 0.03125,0 0.0019,0.003 -0.002,0.02828 0,0.03125 0.002,0.0029 0.02917,0.02837 0.03125,0.03125 0.0022,0.0028 0.02899,0.02851 0.03125,0.03125 0.0024,0.0026 -0.0024,0.02866 0,0.03125 0.0024,0.0026 0.02876,-0.0025 0.03125,0 l 2.59375,2.59375 c 0.0025,0.0025 -0.0026,0.02882 0,0.03125 0.0026,0.0024 0.02861,-0.0024 0.03125,0 0.0027,0.0023 0.02846,0.02905 0.03125,0.03125 0.0029,0.0021 0.02833,0.02923 0.03125,0.03125 0.003,0.002 0.02824,-0.0019 0.03125,0 0.0031,0.0018 -0.0031,0.0295 0,0.03125 0.0031,0.0018 0.02812,-0.0017 0.03125,0 0.0032,0.0016 0.02805,-0.0016 0.03125,0 0.0032,0.0016 -0.0032,0.02977 0,0.03125 0.0033,0.0014 0.02796,-0.0013 0.03125,0 0.0033,0.0013 0.0279,-0.0012 0.03125,0 0.0034,0.0011 0.02786,0.0302 0.03125,0.03125 0.0034,9.75e-4 0.02781,-9.01e-4 0.03125,0 0.0035,8.27e-4 0.02778,-7.51e-4 0.03125,0 0.0035,6e-4 0.02774,-5.24e-4 0.03125,0 0.0035,4.48e-4 0.02772,-3.72e-4 0.03125,0 0.0035,2.95e-4 0.0277,-2.18e-4 0.03125,0 0.0035,1.41e-4 0.0277,0.03119 0.03125,0.03125 0.0036,-1.3e-5 0.0277,-0.03116 0.03125,-0.03125 0.0035,-1.66e-4 0.02771,2.43e-4 0.03125,0 0.0035,-3.2e-4 0.02772,3.97e-4 0.03125,0 0.0035,-4.73e-4 0.02774,5.49e-4 0.03125,0 0.0035,-6.25e-4 0.02777,7.01e-4 0.03125,0 0.0034,-8.51e-4 0.02782,9.26e-4 0.03125,0 0.0034,-0.001 0.02786,-0.03018 0.03125,-0.03125 0.0034,-0.0011 0.02791,0.0012 0.03125,0 0.0033,-0.0013 0.02797,0.0014 0.03125,0 0.0033,-0.0014 -0.0032,-0.02975 0,-0.03125 0.0032,-0.0015 0.02806,0.0016 0.03125,0 0.0031,-0.0016 0.02814,0.0017 0.03125,0 0.0031,-0.0018 0.02821,-0.02941 0.03125,-0.03125 0.003,-0.002 0.02834,0.002 0.03125,0 l 1.53125,-1.09375 c 0.323311,0.153304 0.652235,0.261421 1,0.375 l 0.3125,1.875 c 5.55e-4,0.0036 -6.37e-4,0.02762 0,0.03125 7.18e-4,0.0036 -7.99e-4,0.02765 0,0.03125 8.8e-4,0.0036 -9.6e-4,0.02769 0,0.03125 9.6e-4,0.0036 0.03021,-0.0035 0.03125,0 0.001,0.0035 -0.0011,0.02774 0,0.03125 0.0012,0.0035 -0.0013,0.02779 0,0.03125 0.0014,0.0034 -0.0014,0.02785 0,0.03125 0.0014,0.0034 0.02974,-0.0034 0.03125,0 0.0015,0.0034 -0.0016,0.02792 0,0.03125 0.0017,0.0033 -0.0018,0.02803 0,0.03125 0.0018,0.0032 0.02938,-0.0032 0.03125,0 0.0019,0.0032 -0.0019,0.02812 0,0.03125 0.002,0.0031 0.02916,0.02821 0.03125,0.03125 0.0022,0.0029 -0.0023,0.02836 0,0.03125 0.0023,0.0029 0.0289,-0.0028 0.03125,0 0.0023,0.0028 -0.0024,0.02846 0,0.03125 0.0025,0.0027 0.02871,-0.0027 0.03125,0 0.0025,0.0027 -0.0026,0.02863 0,0.03125 0.0027,0.0026 0.02854,-0.0025 0.03125,0 0.0027,0.0025 -0.0028,0.02881 0,0.03125 0.0028,0.0024 0.02838,-0.0023 0.03125,0 0.0029,0.0023 -0.0029,0.029 0,0.03125 0.0029,0.0022 0.02828,-0.0022 0.03125,0 0.0031,0.002 0.02814,0.02928 0.03125,0.03125 0.0032,0.0019 0.02805,-0.0018 0.03125,0 0.0032,0.0018 0.02797,0.02956 0.03125,0.03125 0.0034,0.0015 0.02786,-0.0015 0.03125,0 0.0034,0.0015 -0.0034,0.02987 0,0.03125 0.0034,0.0014 0.0278,-0.0013 0.03125,0 0.0035,0.0012 0.02775,-0.0012 0.03125,0 0.0035,0.0011 0.0277,-9.92e-4 0.03125,0 0.0036,9.12e-4 0.02766,0.03042 0.03125,0.03125 0.0036,7.51e-4 0.02762,-6.69e-4 0.03125,0 0.0036,5.87e-4 0.0276,-5.05e-4 0.03125,0 0.0037,4.23e-4 0.02758,-3.41e-4 0.03125,0 0.0037,2.58e-4 0.02757,-1.75e-4 0.03125,0 0.0037,9.2e-5 0.02756,-9e-6 0.03125,0 l 3.6875,0 c 0.0037,-9e-6 0.02756,9.2e-5 0.03125,0 0.0037,-1.75e-4 0.02757,2.58e-4 0.03125,0 0.0037,-3.41e-4 0.02759,4.23e-4 0.03125,0 0.0037,-5.05e-4 0.02761,5.87e-4 0.03125,0 0.0036,-6.69e-4 0.02764,7.51e-4 0.03125,0 0.0036,-8.32e-4 0.02768,-0.03034 0.03125,-0.03125 0.0036,-9.92e-4 0.02772,0.0011 0.03125,0 0.0035,-0.0012 0.02777,0.0012 0.03125,0 0.0034,-0.0013 0.02783,0.0014 0.03125,0 0.0034,-0.0014 -0.0034,-0.02979 0,-0.03125 0.0034,-0.0015 0.0279,0.0015 0.03125,0 0.0033,-0.0017 0.02801,-0.02949 0.03125,-0.03125 0.0032,-0.0018 0.02809,0.0019 0.03125,0 0.0031,-0.002 0.02818,-0.02921 0.03125,-0.03125 0.003,-0.0022 0.02833,0.0022 0.03125,0 0.0029,-0.0022 -0.0029,-0.02894 0,-0.03125 0.0029,-0.0023 0.02843,0.0024 0.03125,0 0.0028,-0.0024 -0.0027,-0.02875 0,-0.03125 0.0027,-0.0025 0.0286,0.0026 0.03125,0 0.0026,-0.0026 -0.0025,-0.02857 0,-0.03125 0.0025,-0.0027 0.02878,0.0027 0.03125,0 0.0024,-0.0028 -0.0023,-0.02841 0,-0.03125 0.0023,-0.0028 0.02896,0.0029 0.03125,0 0.0023,-0.0029 -0.0022,-0.0283 0,-0.03125 0.0021,-0.003 0.02923,-0.02816 0.03125,-0.03125 0.0019,-0.0031 -0.0019,-0.02808 0,-0.03125 0.0019,-0.0032 0.02945,0.0032 0.03125,0 0.0018,-0.0032 -0.0017,-0.02799 0,-0.03125 0.0016,-0.0033 -0.0015,-0.02789 0,-0.03125 0.0015,-0.0034 0.02982,0.0034 0.03125,0 0.0014,-0.0034 -0.0014,-0.02782 0,-0.03125 0.0013,-0.0035 -0.0012,-0.02776 0,-0.03125 0.0011,-0.0035 -0.001,-0.02771 0,-0.03125 0.001,-0.0035 0.03029,0.0036 0.03125,0 9.6e-4,-0.0036 -8.8e-4,-0.02767 0,-0.03125 7.99e-4,-0.0036 -7.18e-4,-0.02763 0,-0.03125 6.37e-4,-0.0036 -5.55e-4,-0.02761 0,-0.03125 l 0.3125,-1.875 C 43.373933,26.65968 43.690964,26.531603 44,26.375 l 1.5625,1.09375 c 0.0029,0.002 0.0283,-0.002 0.03125,0 0.003,0.0018 0.02817,0.02947 0.03125,0.03125 0.0031,0.0017 0.0281,-0.0016 0.03125,0 0.0032,0.0016 0.02803,-0.0015 0.03125,0 0.0032,0.0015 -0.0033,0.02982 0,0.03125 0.0033,0.0014 0.02794,-0.0013 0.03125,0 0.0033,0.0012 0.02789,-0.0011 0.03125,0 0.0034,0.0011 0.02784,0.03025 0.03125,0.03125 0.0034,9.26e-4 0.0278,-8.51e-4 0.03125,0 0.0035,7.01e-4 0.02775,-6.25e-4 0.03125,0 0.0035,5.49e-4 0.02773,-4.73e-4 0.03125,0 0.0035,3.97e-4 0.02771,-3.2e-4 0.03125,0 0.0035,2.43e-4 0.0277,-1.66e-4 0.03125,0 0.0036,9e-5 0.0277,0.03124 0.03125,0.03125 0.0036,-6.4e-5 0.0277,-0.03111 0.03125,-0.03125 0.0035,-2.18e-4 0.02771,2.95e-4 0.03125,0 0.0035,-3.72e-4 0.02773,4.48e-4 0.03125,0 0.0035,-5.24e-4 0.02775,6e-4 0.03125,0 0.0035,-7.51e-4 0.02779,8.27e-4 0.03125,0 0.0034,-9.01e-4 0.02783,9.75e-4 0.03125,0 0.0034,-0.001 0.02788,-0.03013 0.03125,-0.03125 0.0033,-0.0012 0.02793,0.0013 0.03125,0 0.0033,-0.0013 0.02799,0.0014 0.03125,0 0.0032,-0.0015 -0.0032,-0.0297 0,-0.03125 0.0032,-0.0016 0.02809,0.0016 0.03125,0 0.0031,-0.0017 0.02816,0.0018 0.03125,0 0.0031,-0.0018 -0.0031,-0.02943 0,-0.03125 0.003,-0.0019 0.02828,0.002 0.03125,0 0.0029,-0.002 0.02837,-0.02917 0.03125,-0.03125 0.0028,-0.0022 0.02851,-0.02899 0.03125,-0.03125 0.0026,-0.0024 0.02866,0.0024 0.03125,0 0.0026,-0.0024 -0.0025,-0.02876 0,-0.03125 L 49,24.78125 c 0.0025,-0.0025 0.02882,0.0026 0.03125,0 0.0024,-0.0026 -0.0024,-0.02861 0,-0.03125 0.0023,-0.0027 0.02905,-0.02846 0.03125,-0.03125 0.0021,-0.0029 0.02923,-0.02832 0.03125,-0.03125 0.002,-0.003 -0.0019,-0.02824 0,-0.03125 0.0018,-0.0031 0.0295,0.0031 0.03125,0 0.0018,-0.0031 -0.0017,-0.02812 0,-0.03125 0.0016,-0.0032 -0.0016,-0.02805 0,-0.03125 0.0016,-0.0032 0.02977,0.0032 0.03125,0 0.0014,-0.0033 -0.0013,-0.02796 0,-0.03125 0.0013,-0.0033 -0.0012,-0.02791 0,-0.03125 0.0011,-0.0034 0.0302,-0.02786 0.03125,-0.03125 9.75e-4,-0.0034 -9.01e-4,-0.02781 0,-0.03125 8.27e-4,-0.0035 -7.51e-4,-0.02778 0,-0.03125 6e-4,-0.0035 -5.24e-4,-0.02774 0,-0.03125 4.48e-4,-0.0035 -3.72e-4,-0.02772 0,-0.03125 2.95e-4,-0.0035 -2.18e-4,-0.02771 0,-0.03125 1.41e-4,-0.0035 0.03119,-0.0277 0.03125,-0.03125 -1.3e-5,-0.0036 -0.03116,-0.0277 -0.03125,-0.03125 -1.66e-4,-0.0035 2.43e-4,-0.02771 0,-0.03125 -3.2e-4,-0.0035 3.97e-4,-0.02772 0,-0.03125 -4.73e-4,-0.0035 5.49e-4,-0.02774 0,-0.03125 -6.25e-4,-0.0035 7.01e-4,-0.02777 0,-0.03125 -8.51e-4,-0.0034 9.26e-4,-0.02782 0,-0.03125 -10e-4,-0.0034 -0.03018,-0.02786 -0.03125,-0.03125 -0.0011,-0.0034 0.0012,-0.02791 0,-0.03125 -0.0013,-0.0033 0.0014,-0.02797 0,-0.03125 -0.0014,-0.0033 -0.02975,0.0032 -0.03125,0 -0.0015,-0.0032 0.0016,-0.02807 0,-0.03125 -0.0016,-0.0032 0.0017,-0.02814 0,-0.03125 -0.0018,-0.0031 -0.02941,-0.02821 -0.03125,-0.03125 -0.002,-0.003 0.002,-0.02834 0,-0.03125 L 48,22.375 c 0.157982,-0.318056 0.283148,-0.644774 0.40625,-1 l 1.875,-0.3125 c 0.0036,-5.55e-4 0.02762,6.37e-4 0.03125,0 0.0036,-7.18e-4 0.02765,7.99e-4 0.03125,0 0.0036,-8.8e-4 0.02769,9.6e-4 0.03125,0 0.0036,-9.6e-4 -0.0035,-0.03021 0,-0.03125 0.0035,-0.001 0.02774,0.0011 0.03125,0 0.0035,-0.0012 0.02779,0.0013 0.03125,0 0.0034,-0.0014 0.02785,0.0014 0.03125,0 0.0034,-0.0014 -0.0034,-0.02974 0,-0.03125 0.0034,-0.0015 0.02792,0.0016 0.03125,0 0.0033,-0.0017 0.02803,0.0018 0.03125,0 0.0032,-0.0018 -0.0032,-0.02938 0,-0.03125 0.0032,-0.0019 0.02812,0.0019 0.03125,0 0.0031,-0.002 0.02821,-0.02916 0.03125,-0.03125 0.0029,-0.0022 0.02836,0.0023 0.03125,0 0.0029,-0.0023 -0.0028,-0.0289 0,-0.03125 0.0028,-0.0023 0.02846,0.0024 0.03125,0 0.0027,-0.0025 -0.0027,-0.02871 0,-0.03125 0.0027,-0.0025 0.02863,0.0026 0.03125,0 0.0026,-0.0027 -0.0025,-0.02854 0,-0.03125 0.0025,-0.0027 0.02881,0.0028 0.03125,0 0.0024,-0.0028 -0.0023,-0.02838 0,-0.03125 0.0023,-0.0029 0.029,0.0029 0.03125,0 0.0022,-0.0029 -0.0022,-0.02828 0,-0.03125 0.002,-0.0031 0.02928,-0.02814 0.03125,-0.03125 0.0019,-0.0032 -0.0018,-0.02805 0,-0.03125 0.0018,-0.0032 0.02956,-0.02797 0.03125,-0.03125 0.0015,-0.0034 -0.0015,-0.02786 0,-0.03125 0.0015,-0.0034 0.02987,0.0034 0.03125,0 0.0014,-0.0034 -0.0013,-0.0278 0,-0.03125 0.0012,-0.0035 -0.0012,-0.02775 0,-0.03125 0.0011,-0.0035 -9.92e-4,-0.0277 0,-0.03125 9.12e-4,-0.0036 0.03042,-0.02766 0.03125,-0.03125 7.51e-4,-0.0036 -6.69e-4,-0.02762 0,-0.03125 5.87e-4,-0.0036 -5.05e-4,-0.0276 0,-0.03125 4.23e-4,-0.0037 -3.41e-4,-0.02758 0,-0.03125 2.58e-4,-0.0037 -1.75e-4,-0.02757 0,-0.03125 9.2e-5,-0.0037 -9e-6,-0.02756 0,-0.03125 l 0,-3.65625 c -9e-6,-0.0037 9.2e-5,-0.02756 0,-0.03125 -1.75e-4,-0.0037 2.58e-4,-0.02757 0,-0.03125 -3.41e-4,-0.0037 4.23e-4,-0.02759 0,-0.03125 -5.05e-4,-0.0037 5.87e-4,-0.02761 0,-0.03125 -6.69e-4,-0.0036 7.51e-4,-0.02764 0,-0.03125 -8.32e-4,-0.0036 -0.03034,-0.02768 -0.03125,-0.03125 -9.92e-4,-0.0036 0.0011,-0.02772 0,-0.03125 -0.0012,-0.0035 0.0012,-0.02777 0,-0.03125 -0.0013,-0.0034 0.0014,-0.02783 0,-0.03125 -0.0014,-0.0034 -0.02979,0.0034 -0.03125,0 -0.0015,-0.0034 0.0015,-0.0279 0,-0.03125 -0.0017,-0.0033 -0.02949,-0.02801 -0.03125,-0.03125 -0.0018,-0.0032 0.0019,-0.02809 0,-0.03125 -0.002,-0.0031 -0.02921,-0.02818 -0.03125,-0.03125 -0.0022,-0.003 0.0022,-0.02833 0,-0.03125 -0.0022,-0.0029 -0.02894,0.0029 -0.03125,0 -0.0023,-0.0029 0.0024,-0.02843 0,-0.03125 -0.0024,-0.0028 -0.02875,0.0027 -0.03125,0 -0.0025,-0.0027 0.0026,-0.0286 0,-0.03125 -0.0026,-0.0026 -0.02857,0.0025 -0.03125,0 -0.0027,-0.0025 0.0027,-0.02877 0,-0.03125 -0.0028,-0.0024 -0.02841,0.0023 -0.03125,0 -0.0028,-0.0023 0.0029,-0.02896 0,-0.03125 -0.0029,-0.0023 -0.02831,0.0022 -0.03125,0 -0.003,-0.0021 -0.02816,-0.02923 -0.03125,-0.03125 -0.0031,-0.0019 -0.02808,0.0019 -0.03125,0 -0.0032,-0.0019 0.0032,-0.02945 0,-0.03125 -0.0032,-0.0018 -0.02799,0.0017 -0.03125,0 -0.0033,-0.0016 -0.02788,0.0015 -0.03125,0 -0.0034,-0.0015 0.0034,-0.02982 0,-0.03125 -0.0034,-0.0014 -0.02782,0.0014 -0.03125,0 -0.0035,-0.0013 -0.02776,0.0012 -0.03125,0 -0.0035,-0.0011 -0.02771,0.001 -0.03125,0 -0.0035,-0.001 0.0036,-0.03029 0,-0.03125 -0.0036,-9.6e-4 -0.02767,8.8e-4 -0.03125,0 -0.0036,-7.99e-4 -0.02763,7.18e-4 -0.03125,0 -0.0036,-6.37e-4 -0.02761,5.55e-4 -0.03125,0 l -1.875,-0.3125 C 48.286458,15.376583 48.154985,15.061099 48,14.75 l 1.09375,-1.5625 c 0.002,-0.0029 -0.002,-0.0283 0,-0.03125 0.0018,-0.003 0.02947,-0.02817 0.03125,-0.03125 0.0017,-0.0031 -0.0016,-0.0281 0,-0.03125 0.0016,-0.0032 -0.0015,-0.02803 0,-0.03125 0.0015,-0.0032 0.02982,0.0032 0.03125,0 0.0014,-0.0033 -0.0013,-0.02794 0,-0.03125 0.0012,-0.0033 -0.0011,-0.02789 0,-0.03125 0.0011,-0.0034 0.03025,-0.02784 0.03125,-0.03125 9.26e-4,-0.0034 -8.51e-4,-0.0278 0,-0.03125 7.01e-4,-0.0035 -6.25e-4,-0.02775 0,-0.03125 5.49e-4,-0.0035 -4.73e-4,-0.02773 0,-0.03125 3.97e-4,-0.0035 -3.2e-4,-0.02771 0,-0.03125 2.43e-4,-0.0035 -1.66e-4,-0.0277 0,-0.03125 9e-5,-0.0036 0.03124,-0.0277 0.03125,-0.03125 -6.4e-5,-0.0036 -0.03111,-0.0277 -0.03125,-0.03125 -2.18e-4,-0.0035 2.95e-4,-0.02771 0,-0.03125 -3.72e-4,-0.0035 4.48e-4,-0.02773 0,-0.03125 -5.24e-4,-0.0035 6e-4,-0.02775 0,-0.03125 -7.51e-4,-0.0035 8.27e-4,-0.02779 0,-0.03125 -9.01e-4,-0.0034 9.75e-4,-0.02783 0,-0.03125 -0.001,-0.0034 -0.03013,-0.02788 -0.03125,-0.03125 -0.0012,-0.0033 0.0013,-0.02793 0,-0.03125 -0.0013,-0.0033 0.0014,-0.02799 0,-0.03125 -0.0015,-0.0032 -0.0297,0.0032 -0.03125,0 -0.0016,-0.0032 0.0016,-0.02809 0,-0.03125 -0.0017,-0.0031 0.0018,-0.02816 0,-0.03125 -0.0018,-0.0031 -0.02943,0.003 -0.03125,0 -0.0019,-0.003 0.002,-0.02828 0,-0.03125 -0.002,-0.0029 -0.02917,-0.02837 -0.03125,-0.03125 -0.0022,-0.0028 -0.02899,-0.02851 -0.03125,-0.03125 -0.0024,-0.0026 0.0024,-0.02866 0,-0.03125 -0.0024,-0.0026 -0.02876,0.0025 -0.03125,0 L 46.4375,9.71875 c -0.0025,-0.00249 0.0026,-0.028816 0,-0.03125 -0.0026,-0.00243 -0.02861,0.00238 -0.03125,0 -0.0027,-0.00226 -0.02846,-0.029049 -0.03125,-0.03125 -0.0029,-0.00208 -0.02833,-0.029235 -0.03125,-0.03125 -0.003,-0.00195 -0.02824,0.00189 -0.03125,0 -0.0031,-0.00182 0.0031,-0.029496 0,-0.03125 -0.0031,-0.00175 -0.02812,0.00169 -0.03125,0 -0.0032,-0.00162 -0.02805,0.00155 -0.03125,0 -0.0032,-0.00155 0.0032,-0.02977 0,-0.03125 -0.0033,-0.00141 -0.02796,0.00134 -0.03125,0 -0.0033,-0.00127 -0.0279,0.0012 -0.03125,0 -0.0034,-0.00112 -0.02786,-0.030201 -0.03125,-0.03125 -0.0034,-9.755e-4 -0.02781,9.012e-4 -0.03125,0 -0.0035,-8.266e-4 -0.02778,7.515e-4 -0.03125,0 -0.0035,-6.004e-4 -0.02774,5.244e-4 -0.03125,0 -0.0035,-4.481e-4 -0.02772,3.716e-4 -0.03125,0 -0.0035,-2.95e-4 -0.0277,2.182e-4 -0.03125,0 -0.0035,-1.413e-4 -0.0277,-0.031186 -0.03125,-0.03125 -0.0036,1.26e-5 -0.0277,0.03116 -0.03125,0.03125 -0.0035,1.665e-4 -0.02771,-2.433e-4 -0.03125,0 -0.0035,3.201e-4 -0.02772,-3.967e-4 -0.03125,0 -0.0035,4.731e-4 -0.02774,-5.493e-4 -0.03125,0 -0.0035,6.252e-4 -0.02777,-7.008e-4 -0.03125,0 -0.0034,8.51e-4 -0.02782,-9.256e-4 -0.03125,0 -0.0034,9.997e-4 -0.02786,0.030177 -0.03125,0.03125 -0.0034,0.00115 -0.02791,-0.00122 -0.03125,0 -0.0033,0.00129 -0.02797,-0.00136 -0.03125,0 -0.0033,0.00143 0.0032,0.029747 0,0.03125 -0.0032,0.0015 -0.02806,-0.00157 -0.03125,0 -0.0031,0.00164 -0.02814,-0.00171 -0.03125,0 -0.0031,0.00178 -0.02821,0.029407 -0.03125,0.03125 -0.003,0.00197 -0.02834,-0.00204 -0.03125,0 L 44,10.71875 C 43.690117,10.563265 43.373365,10.435091 43.03125,10.3125 l -0.3125,-1.84375 0,-0.03125 c -7.18e-4,-0.00362 7.99e-4,-0.02765 0,-0.03125 -8.8e-4,-0.00358 9.6e-4,-0.02769 0,-0.03125 -9.6e-4,-0.00356 -0.03021,0.00354 -0.03125,0 -0.001,-0.00354 0.0011,-0.027737 0,-0.03125 -0.0012,-0.00349 0.0013,-0.027791 0,-0.03125 -0.0014,-0.00343 0.0014,-0.027852 0,-0.03125 -0.0014,-0.0034 -0.02974,0.00337 -0.03125,0 -0.0015,-0.00337 0.0016,-0.027919 0,-0.03125 -0.0017,-0.00326 0.0018,-0.028034 0,-0.03125 -0.0018,-0.00322 -0.02938,0.00318 -0.03125,0 -0.0019,-0.00318 0.0019,-0.028118 0,-0.03125 -0.002,-0.00309 -0.02916,-0.028209 -0.03125,-0.03125 -0.0022,-0.00294 0.0023,-0.028356 0,-0.03125 -0.0023,-0.00289 -0.0289,0.00284 -0.03125,0 -0.0023,-0.00284 0.0024,-0.028462 0,-0.03125 -0.0025,-0.00273 -0.02871,0.00268 -0.03125,0 -0.0025,-0.00268 0.0026,-0.028631 0,-0.03125 -0.0027,-0.00256 -0.02854,0.0025 -0.03125,0 -0.0027,-0.0025 0.0028,-0.028812 0,-0.03125 -0.0028,-0.00238 -0.02838,0.00231 -0.03125,0 -0.0029,-0.00231 0.0029,-0.029004 0,-0.03125 -0.0029,-0.00225 -0.02828,0.00218 -0.03125,0 -0.0031,-0.00204 -0.02814,-0.029276 -0.03125,-0.03125 -0.0032,-0.0019 -0.02805,0.00183 -0.03125,0 -0.0032,-0.00176 -0.02797,-0.029564 -0.03125,-0.03125 -0.0034,-0.00154 -0.02786,0.00146 -0.03125,0 -0.0034,-0.00146 0.0034,-0.029865 0,-0.03125 -0.0034,-0.00138 -0.0278,0.00131 -0.03125,0 -0.0035,-0.00123 -0.02775,0.00115 -0.03125,0 -0.0035,-0.00107 -0.0277,9.923e-4 -0.03125,0 -0.0036,-9.121e-4 -0.02766,-0.030418 -0.03125,-0.03125 -0.0036,-7.505e-4 -0.02762,6.691e-4 -0.03125,0 -0.0036,-5.874e-4 -0.0276,5.054e-4 -0.03125,0 -0.0037,-4.231e-4 -0.02758,3.406e-4 -0.03125,0 -0.0037,-2.579e-4 -0.02757,1.751e-4 -0.03125,0 -0.0037,-9.22e-5 -0.02756,9.2e-6 -0.03125,0 l -3.6875,0 c -0.0044,-1.156e-4 -0.0269,0 -0.03125,0 -0.0044,0 -0.0269,-1.156e-4 -0.03125,0 -0.0044,-1.156e-4 -0.0269,0 -0.03125,0 -0.0044,0 -0.0269,-1.156e-4 -0.03125,0 a 0.09696154,0.09696154 0 0 0 -0.03125,0 c -0.0031,7.415e-4 -0.02817,-8.014e-4 -0.03125,0 -0.0031,8.611e-4 -0.0282,-9.204e-4 -0.03125,0 z m 2.0625,7.53125 c 1.731221,0 3.15625,1.405037 3.15625,3.15625 0,1.756237 -1.393171,3.125 -3.15625,3.125 -1.758268,0 -3.15625,-1.39357 -3.15625,-3.125 0,-1.751214 1.425028,-3.15625 3.15625,-3.15625 z"
       id="path3779"
       style="fill:#000000;fill-opacity:0.53333285" /><path
       d="M 49.965537,20.219417 V 16.55275 l -2.249999,-0.375 c -0.166667,-0.604166 -0.416667,-1.1875 -0.708333,-1.708333 l 1.3125,-1.854167 -2.583334,-2.604167 -1.854167,1.3125 C 43.340538,11.031917 42.778038,10.781917 42.173871,10.61525 l -0.375,-2.2291678 h -3.666667 l -0.375,2.2500008 c -0.604166,0.166667 -1.1875,0.416667 -1.708333,0.708334 l -1.854167,-1.3125 -2.604166,2.583333 1.312499,1.854167 c -0.291666,0.541667 -0.541666,1.104167 -0.708333,1.729167 l -2.229166,0.354166 v 3.666667 l 2.229166,0.375 c 0.166667,0.604167 0.416667,1.1875 0.708333,1.729167 l -1.312499,1.854167 2.583333,2.583333 1.854167,-1.3125 c 0.541666,0.291667 1.104166,0.541667 1.729166,0.708333 l 0.375,2.229167 h 3.666667 l 0.375,-2.25 c 0.604167,-0.166667 1.1875,-0.416667 1.708333,-0.708333 l 1.854167,1.3125 2.583334,-2.583334 -1.3125,-1.854167 c 0.291666,-0.541666 0.541666,-1.104166 0.708333,-1.729166 l 2.249999,-0.354167 z m -9.999999,2 c -2.125,0 -3.833334,-1.729167 -3.833334,-3.833333 0,-2.125 1.729167,-3.833334 3.833334,-3.833334 2.104166,0 3.833333,1.708334 3.833333,3.833334 0,2.125 -1.708333,3.833333 -3.833333,3.833333 z"
       id="path2986-7"
       style="fill:#ffffff;fill-opacity:1" /></g></svg>