<?xml version="1.0" encoding="utf-8"?>
<!-- Generator: Adobe Illustrator 17.1.0, SVG Export Plug-In . SVG Version: 6.00 Build 0)  -->
<!DOCTYPE svg PUBLIC "-//W3C//DTD SVG 1.1//EN" "http://www.w3.org/Graphics/SVG/1.1/DTD/svg11.dtd">
<svg version="1.1" id="Layer_1" xmlns="http://www.w3.org/2000/svg" xmlns:xlink="http://www.w3.org/1999/xlink" x="0px" y="0px"
	 viewBox="0 0 612 792" enable-background="new 0 0 612 792" xml:space="preserve">
<g>
	<path fill="#777777" d="M16.3,443.2L118,472.3v79.9c0,28,22.8,50.8,50.8,50.8H336c28,0,50.8-22.8,50.8-50.8v-7.3l159.8,34.5V189
		L16.3,327C-5.5,348.8-5.5,421.4,16.3,443.2z M161.6,486.8l181.6,43.6v21.8c0,4-3.3,7.3-7.3,7.3h-167c-4,0-7.3-3.3-7.3-7.3
		L161.6,486.8L161.6,486.8z"/>
	<path fill="#777777" d="M582.9,450.5h-14.5v-138h14.5c13.2,0,29.1,15.8,29.1,29.1v80.1C612,437.6,598.9,450.5,582.9,450.5z"/>
</g>
</svg>
