<?xml version="1.0" encoding="utf-8"?>
<!-- Generator: Adobe Illustrator 18.0.0, SVG Export Plug-In . SVG Version: 6.00 Build 0)  -->
<!DOCTYPE svg PUBLIC "-//W3C//DTD SVG 1.1//EN" "http://www.w3.org/Graphics/SVG/1.1/DTD/svg11.dtd">
<svg version="1.1" id="Layer_1" xmlns="http://www.w3.org/2000/svg" xmlns:xlink="http://www.w3.org/1999/xlink" x="0px" y="0px"
	 viewBox="0 0 58.4 52.3" enable-background="new 0 0 58.4 52.3" xml:space="preserve">
<g>
	<rect x="0" y="0" fill="#E6E6E6" width="58.4" height="52.3"/>
	<g>
		<rect x="14.9" y="28.2" fill="#347BFF" width="13.8" height="1.6"/>
		<rect x="14.9" y="31.3" fill="#347BFF" width="38.8" height="1.6"/>
		<rect x="14.9" y="34.3" fill="#347BFF" width="38.8" height="1.6"/>
		<rect x="14.9" y="39.5" fill="#347BFF" width="13.8" height="1.6"/>
		<rect x="14.9" y="42.5" fill="#347BFF" width="38.8" height="1.6"/>
		<rect x="14.9" y="45.6" fill="#347BFF" width="38.8" height="1.6"/>
	</g>
	<path fill="#347BFF" d="M14.4,7.8v17.4h22.7V7.8H14.4z M34.6,21.6H16.7l5.3-6.9l0.8-0.3l5,5.3l2.7-1.6L34.6,21.6L34.6,21.6
		L34.6,21.6z"/>
	<rect x="0" y="10.8" fill="#CCCCCC" width="9.8" height="41.6"/>
	<circle fill="#CCCCCC" cx="5.4" cy="4.8" r="3.7"/>
</g>
</svg>
