<?xml version="1.0" encoding="UTF-8"?>
<svg xmlns="http://www.w3.org/2000/svg" width="16.831" height="22.457" viewBox="0 0 16.831 22.457">
	<path fill="#72777d" d="M13.39.56c2.981 1.39 4.271 4.933 2.881 7.915l-1.521 3.262c-.217.465-.487.889-.798 1.269-.044.054-.089.104-.134.154-.017.02-.034.04-.052.059-.123.135-.234.245-.348.352-.926.864-2.102 1.407-3.344 1.56-.022.002-.043.006-.065.008-.145.016-.266.024-.386.03-.145.007-.29.009-.435.005-.791-.021-1.59-.201-2.353-.556-.763-.356-1.413-.854-1.938-1.446l.507-1.086c.246-.528.664-.922 1.156-1.148.009.015.016.03.025.045.313.521.778.957 1.37 1.233.608.284 1.261.356 1.876.248.001.001.149-.012.384-.086.107-.034.23-.08.369-.146.664-.299 1.229-.828 1.561-1.541l.319-.683.192-.412.197-.422.956-2.051c.736-1.578.053-3.454-1.525-4.19-1.578-.736-3.454-.053-4.19 1.525l-.839 1.798-.124.267c-1.274.066-2.507.494-3.549 1.228.016-.063.031-.127.049-.19.084-.29.192-.576.323-.858L5.476 3.44C6.866.459 10.41-.831 13.39.56zM4.686 11.767l-.319.683-.192.412-.197.422-.956 2.051c-.736 1.578-.053 3.454 1.525 4.19 1.578.736 3.454.053 4.19-1.525l.839-1.799.124-.267c1.274-.066 2.507-.495 3.549-1.228-.016.063-.031.127-.049.19-.084.29-.192.577-.323.858l-1.521 3.262c-1.39 2.981-4.934 4.271-7.915 2.881C.46 20.507-.83 16.964.56 13.982l1.521-3.262c.217-.466.486-.89.798-1.269.044-.054.089-.104.133-.154l.051-.06c.123-.135.234-.245.348-.352.926-.864 2.102-1.407 3.344-1.56.022-.001.044-.005.065-.007.145-.016.266-.024.387-.029.145-.007.29-.009.435-.005.791.021 1.59.201 2.353.556.763.356 1.414.854 1.938 1.446l-.507 1.087c-.246.528-.665.922-1.157 1.148-.008-.015-.016-.03-.025-.045-.312-.521-.778-.957-1.37-1.233-.607-.285-1.26-.357-1.875-.248-.001 0-.149.012-.384.087-.107.034-.23.079-.369.145-.664.299-1.228.828-1.56 1.54z"/>
</svg>
