<?xml version="1.0" encoding="utf-8"?>
<!-- Generator: Adobe Illustrator 17.1.0, SVG Export Plug-In . SVG Version: 6.00 Build 0)  -->
<!DOCTYPE svg PUBLIC "-//W3C//DTD SVG 1.1//EN" "http://www.w3.org/Graphics/SVG/1.1/DTD/svg11.dtd">
<svg version="1.1" id="Layer_1" xmlns="http://www.w3.org/2000/svg" xmlns:xlink="http://www.w3.org/1999/xlink" x="0px" y="0px"
	 viewBox="0 0 16.831 22.457" enable-background="new 0 0 16.831 22.457" xml:space="preserve">
<path id="Shape_2_" fill="#3366BB" d="M13.39,0.56c2.981,1.39,4.271,4.933,2.881,7.915l-1.521,3.262
	c-0.217,0.465-0.487,0.889-0.798,1.269c-0.044,0.054-0.089,0.104-0.134,0.154c-0.017,0.02-0.034,0.04-0.052,0.059
	c-0.123,0.135-0.234,0.245-0.348,0.352c-0.926,0.864-2.102,1.407-3.344,1.56c-0.022,0.002-0.043,0.006-0.065,0.008
	c-0.145,0.016-0.266,0.024-0.386,0.03c-0.145,0.007-0.29,0.009-0.435,0.005c-0.791-0.021-1.59-0.201-2.353-0.556
	c-0.763-0.356-1.413-0.854-1.938-1.446l0.507-1.086c0.246-0.528,0.664-0.922,1.156-1.148c0.009,0.015,0.016,0.03,0.025,0.045
	c0.313,0.521,0.778,0.957,1.37,1.233c0.608,0.284,1.261,0.356,1.876,0.248c0.001,0.001,0.149-0.012,0.384-0.086
	c0.107-0.034,0.23-0.08,0.369-0.146c0.664-0.299,1.229-0.828,1.561-1.541l0.319-0.683l0.192-0.412l0.197-0.422l0.956-2.051
	c0.736-1.578,0.053-3.454-1.525-4.19c-1.578-0.736-3.454-0.053-4.19,1.525L7.255,6.256L7.131,6.523
	C5.857,6.589,4.624,7.017,3.582,7.751c0.016-0.063,0.031-0.127,0.049-0.19c0.084-0.29,0.192-0.576,0.323-0.858L5.476,3.44
	C6.866,0.459,10.41-0.831,13.39,0.56z M4.686,11.767L4.367,12.45l-0.192,0.412l-0.197,0.422l-0.956,2.051
	c-0.736,1.578-0.053,3.454,1.525,4.19c1.578,0.736,3.454,0.053,4.19-1.525l0.839-1.799L9.7,15.934
	c1.274-0.066,2.507-0.495,3.549-1.228c-0.016,0.063-0.031,0.127-0.049,0.19c-0.084,0.29-0.192,0.577-0.323,0.858l-1.521,3.262
	c-1.39,2.981-4.934,4.271-7.915,2.881c-2.981-1.39-4.271-4.933-2.881-7.915l1.521-3.262c0.217-0.466,0.486-0.89,0.798-1.269
	c0.044-0.054,0.089-0.104,0.133-0.154c0.017-0.02,0.034-0.04,0.051-0.06c0.123-0.135,0.234-0.245,0.348-0.352
	c0.926-0.864,2.102-1.407,3.344-1.56C6.777,7.324,6.799,7.32,6.82,7.318c0.145-0.016,0.266-0.024,0.387-0.029
	c0.145-0.007,0.29-0.009,0.435-0.005c0.791,0.021,1.59,0.201,2.353,0.556c0.763,0.356,1.414,0.854,1.938,1.446l-0.507,1.087
	c-0.246,0.528-0.665,0.922-1.157,1.148c-0.008-0.015-0.016-0.03-0.025-0.045c-0.312-0.521-0.778-0.957-1.37-1.233
	C8.267,9.958,7.614,9.886,6.999,9.995c-0.001,0-0.149,0.012-0.384,0.087c-0.107,0.034-0.23,0.079-0.369,0.145
	C5.582,10.526,5.018,11.055,4.686,11.767z"/>
</svg>
