<?xml version="1.0" encoding="UTF-8" standalone="no"?>

<svg
   xmlns:dc="http://purl.org/dc/elements/1.1/"
   xmlns:cc="http://creativecommons.org/ns#"
   xmlns:rdf="http://www.w3.org/1999/02/22-rdf-syntax-ns#"
   xmlns:svg="http://www.w3.org/2000/svg"
   xmlns="http://www.w3.org/2000/svg"
   version="1.1"
   width="80"
   height="80"
   viewBox="0 0 80 80"
   id="svg2">
  <metadata
     id="metadata17">
    <rdf:RDF>
      <cc:Work
         rdf:about="">
        <dc:format>image/svg+xml</dc:format>
        <dc:type
           rdf:resource="http://purl.org/dc/dcmitype/StillImage" />
        <dc:title></dc:title>
      </cc:Work>
    </rdf:RDF>
  </metadata>
  <defs
     id="defs15" />
  <linearGradient
     x1="326"
     y1="-301.07401"
     x2="326"
     y2="-329.776"
     id="a"
     gradientUnits="userSpaceOnUse"
     gradientTransform="matrix(1,0,0,-1,-286,-294)">
    <stop
       id="stop5"
       style="stop-color:#ffffff;stop-opacity:0.94999999"
       offset="0" />
    <stop
       id="stop7"
       style="stop-color:#ffffff;stop-opacity:1"
       offset="0.787" />
  </linearGradient>
  <path
     d="M 61.615,10.966 C 58.705,8.053 55.306,5.795 51.506,4.25 40.071,-0.382 27.046,2.271 18.328,10.978 12.545,16.77 9.353,24.144 9.353,31.769 c 0,7.613 3.19,14.995 8.975,20.781 l 3.182,3.153 c 6.386,6.31 11.893,11.758 16.618,19.331 L 39.966,78 41.816,75.034 C 46.541,67.461 52.048,62.013 58.423,55.71 l 3.191,-3.17 C 73.658,40.496 73.658,23.011 61.615,10.966 z M 49.477,42.641 c -5.25,5.258 -13.76,5.258 -19.011,0 -5.249,-5.24 -5.249,-13.75 0,-19 5.251,-5.24 13.761,-5.24 19.011,0 5.238,5.25 5.238,13.758 0,19 z"
     id="path11"
     style="fill:#929497" />
</svg>
