<?xml version="1.0" encoding="UTF-8" standalone="no"?>
<!-- Created with Inkscape (http://www.inkscape.org/) -->

<svg
   xmlns:dc="http://purl.org/dc/elements/1.1/"
   xmlns:cc="http://creativecommons.org/ns#"
   xmlns:rdf="http://www.w3.org/1999/02/22-rdf-syntax-ns#"
   xmlns:svg="http://www.w3.org/2000/svg"
   xmlns="http://www.w3.org/2000/svg"
   version="1.1"
   width="22.86124"
   height="22.83745"
   id="svg2">
  <defs
     id="defs4" />
  <metadata
     id="metadata7">
    <rdf:RDF>
      <cc:Work
         rdf:about="">
        <dc:format>image/svg+xml</dc:format>
        <dc:type
           rdf:resource="http://purl.org/dc/dcmitype/StillImage" />
        <dc:title></dc:title>
      </cc:Work>
    </rdf:RDF>
  </metadata>
  <path
     d="M 19.649385,5.0026555e-4 C 19.552285,0.00551027 19.446485,0.04710027 19.368135,0.12549977 L 11.336883,8.1254979 3.4931325,0.28174747 c -0.1567,-0.1566899 -0.390229,-0.1722696 -0.53125,-0.0312 L 0.27438252,2.9380477 c -0.14103,0.14103 -0.125449,0.3745605 0.0312,0.5312505 L 8.1493325,11.313049 0.12795552,19.334426 c -0.1567,0.1567 -0.17228,0.42148 -0.0312,0.562499 l 2.68749998,2.65625 c 0.141021,0.141031 0.374551,0.125451 0.531251,-0.0312 l 8.0213775,-8.021377 8.208895,8.208896 c 0.15669,0.1567 0.39022,0.17228 0.53125,0.0312 l 2.6875,-2.6875 c 0.14102,-0.14102 0.12544,-0.37455 -0.0312,-0.53125 l -8.208895,-8.208896 8.031249,-8.0312499 c 0.15669,-0.1566899 0.17227,-0.3902197 0.0312,-0.53125 L 19.899381,0.09430007 c -0.0705,-0.070499 -0.152868,-0.098902 -0.250001,-0.0937000044 z"
     id="rect3107-3-4-1-1-0-9-5-7"
     style="fill:#000000;fill-opacity:0.53333285;stroke:none" />
  <path
     d="m 19.649385,0.65674977 c -0.07671,0 -0.159989,0.035 -0.218747,0.093702 L 11.336888,8.8442021 3.4306375,0.93795187 c -0.117521,-0.1175204 -0.319981,-0.1175205 -0.437501,-5e-7 L 1.3056375,2.6254522 c -0.11752,0.11752 -0.11752,0.3199802 0,0.4374999 l 7.906249,7.9062499 -8.093749,8.093751 c -0.11752,0.11752 -0.11752,0.31998 -10e-7,0.437499 l 1.718751,1.687501 c 0.117519,0.11752 0.28873,0.11752 0.40625,0 l 8.0937505,-8.09375 8.281249,8.28125 c 0.11752,0.11752 0.31998,0.11752 0.4375,0 l 1.6875,-1.71875 c 0.11752,-0.11752 0.11752,-0.28873 0,-0.40625 l -8.281249,-8.28125 8.09375,-8.0937507 c 0.117519,-0.1175197 0.117519,-0.31998 0,-0.4374997 L 19.868137,0.75045217 c -0.0588,-0.058803 -0.142063,-0.093697 -0.218747,-0.093703 z"
     id="rect3107-3-50-5-3-7-8-0-9"
     style="fill:#ffffff;fill-opacity:1;stroke:none" />
</svg>
