<?xml version="1.0" encoding="utf-8"?>
<!-- Generator: Adobe Illustrator 17.1.0, SVG Export Plug-In . SVG Version: 6.00 Build 0)  -->
<!DOCTYPE svg PUBLIC "-//W3C//DTD SVG 1.1//EN" "http://www.w3.org/Graphics/SVG/1.1/DTD/svg11.dtd">
<svg version="1.1"
	 id="svg2" xmlns:svg="http://www.w3.org/2000/svg" xmlns:rdf="http://www.w3.org/1999/02/22-rdf-syntax-ns#" xmlns:cc="http://creativecommons.org/ns#" xmlns:dc="http://purl.org/dc/elements/1.1/"
	 xmlns="http://www.w3.org/2000/svg" xmlns:xlink="http://www.w3.org/1999/xlink" x="0px" y="0px" viewBox="0 0 960 560"
	 enable-background="new 0 0 960 560" xml:space="preserve">
<g>
	<path fill-opacity="0.5333" d="M265.4,536.9c-5.1,0-43.6-10.3-53.9-56.5c0-5.1,0-12.8,5.1-15.4l136.1-123.3
		c-48.8-82.2-33.4-190.1,33.4-256.9c41.1-38.6,92.5-61.7,151.6-61.7s113.1,20.6,151.6,61.7c82.2,82.2,82.2,218.3,0.1,303.1
		c-41.1,41.1-95.1,64.2-151.6,64.2c-46.3,0-89.9-15.4-125.9-41.1L275.7,531.8C273.1,534.3,270.5,536.9,265.4,536.9
		C265.4,536.9,262.9,536.9,265.4,536.9z M452.9,146.4c-25.7,23.1-38.5,56.5-38.5,89.9s12.8,66.8,38.5,89.9
		c23.1,25.7,56.5,38.5,89.9,38.5s64.2-15.4,89.9-38.5c46.3-48.8,48.8-125.8,2.6-177.2c-2.5-2.6-2.5-2.6-5.1-2.6
		c-25.7-25.7-59.1-38.5-92.5-38.5C501.8,107.9,470.9,120.7,452.9,146.4z"/>
	<path fill="#FFFFFF" d="M679,87.3c-35.9-35.9-92.4-56.5-143.8-56.5c-51.4,0-100.2,20.6-141.3,59.1
		c-66.8,66.8-77.1,172.1-25.7,249.2l-143.9,131c7.7,36,41.1,43.7,41.1,43.7l146.4-131c36,30.8,79.7,46.2,125.9,46.2
		c54,0,102.8-20.6,141.3-59.1C756.1,292.8,756.1,167,679,87.3z M640.5,331.4c-28.3,28.3-64.2,43.7-102.8,43.7s-74.5-15.4-102.8-43.7
		c-56.5-56.5-56.5-149,0-205.5c28.3-28.3,64.2-43.7,102.8-43.7s74.5,15.4,102.8,43.7c2.6,2.6,5.1,5.1,7.7,7.7
		C699.6,190.1,697,277.4,640.5,331.4z"/>
	<path fill-opacity="0.5333" d="M455.6,267.2c-5.2,0-10.3-5.2-10.3-10.3v-54.4c0-5.2,5.2-10.3,10.3-10.3l169.5,0.5
		c5.2,0,10.3,5.2,10.3,10.3v53.9c0,5.2-5.2,10.3-10.3,10.3H455.6z"/>
	<path fill="#FFFFFF" d="M455.5,200.4v46.3c0,2.6,2.6,2.6,2.6,2.6h167c2.6,0,2.6-2.6,2.6-2.6V203c0-2.6-2.6-2.6-2.6-2.6h-61.7h-48.8
		H455.5C455.5,200.4,453,200.4,455.5,200.4z"/>
</g>
</svg>
