<?xml version="1.0" encoding="UTF-8" standalone="no"?>
<!-- Created with Inkscape (http://www.inkscape.org/) -->
<svg xmlns:dc="http://purl.org/dc/elements/1.1/" xmlns:cc="http://creativecommons.org/ns#" xmlns:rdf="http://www.w3.org/1999/02/22-rdf-syntax-ns#" xmlns:svg="http://www.w3.org/2000/svg" xmlns="http://www.w3.org/2000/svg" version="1.1" width="22.86124" height="22.83745" id="svg2">
  <defs id="defs4"/>
  <metadata id="metadata7">
    <rdf:RDF>
      <cc:Work rdf:about="">
        <dc:format>image/svg+xml</dc:format>
        <dc:type rdf:resource="http://purl.org/dc/dcmitype/StillImage"/>
        <dc:title/>
      </cc:Work>
    </rdf:RDF>
  </metadata>
  <g transform="matrix(1.0348268,0,0,1.0348268,-0.39874977,-0.39825602)" id="g3864">
    <path d="M 10.34375,0.40625 C 9.8999226,0.40625 9.4893223,0.57317775 9.1875,0.875 8.8856777,1.1768223 8.71875,1.5874226 8.71875,2.03125 l 0,7.875 -3.78125,0 c -0.012819,-1.548e-4 -0.024452,-4.07e-5 -0.03125,0 -0.00735,-3.53e-5 -0.030234,-7.95e-5 -0.03125,0 -0.00367,-3.15e-5 -0.027864,6.5e-6 -0.03125,0 -0.00122,5.33e-5 -0.031376,2.13e-5 -0.03125,0 -0.00199,9.97e-5 -0.031125,-2.36e-5 -0.03125,0 -1.095e-4,1.34e-5 -0.031188,-1.63e-5 -0.03125,0 0,0 -0.03125,0 -0.03125,0 -1.4e-5,1.12e-5 0.00617,0.025114 0,0.03125 -0.00617,0.00614 -0.031237,-1.81e-5 -0.03125,0 -2.91e-5,1.3e-5 0.00471,0.028469 0,0.03125 -0.00471,0.00278 -0.031197,-4.02e-5 -0.03125,0 -0.00356,0.00359 -0.027566,-0.00381 -0.03125,0 -1.045e-4,2.56e-5 -0.031194,-3.12e-5 -0.03125,0 -5.44e-5,3.31e-5 1.037e-4,0.031164 0,0.03125 -0.00333,0.0034 -0.027551,-0.00378 -0.03125,0 -5.05e-5,1.6e-5 0.00732,0.02755 0,0.03125 -0.00732,0.0037 -0.031224,-1.9e-5 -0.03125,0 0,0 -0.00452,0.02474 0,0.03125 -0.011104,-0.005 -0.031244,-1.4e-5 -0.03125,0 -4.77e-5,1.9e-5 -0.031215,-2.1e-5 -0.03125,0 0,0 -0.00402,0.02442 0,0.03125 -4.59e-5,2e-5 -0.031217,-2.2e-5 -0.03125,0 0,0 -0.00444,0.02468 0,0.03125 -2.2e-5,1.1e-5 0.00413,0.02868 0,0.03125 0,0 -0.03125,0.03125 -0.03125,0.03125 -2.08e-5,1.2e-5 -0.026773,-0.0032 -0.03125,0 -2.91e-5,1.02e-4 2.31e-5,0.0311 0,0.03125 1.42e-5,-1.3e-5 0.026773,0.0032 0.03125,0 0,0 -0.03125,0.03125 -0.03125,0.03125 -0.0058,-0.004 0.00435,-0.02825 0,-0.03125 -0.00653,-0.0045 -0.03125,0 -0.03125,0 a 0.09677853,0.09677853 0 0 0 0,0.03125 c -2.34e-5,1.06e-4 1.86e-5,0.0311 0,0.03125 -0.00383,0.0037 0.00378,0.02752 0,0.03125 0.0046,0.0026 -0.00613,0.02777 0,0.03125 -0.01124,-0.0047 -0.03125,0 -0.03125,0 -1.67e-5,6.1e-5 1.37e-5,0.03114 0,0.03125 -2.67e-5,1.25e-4 1.258e-4,0.02904 0,0.03125 1.36e-5,0.0037 -5.15e-5,0.02757 0,0.03125 8.7e-6,0.0035 -3.79e-5,0.02758 0,0.03125 -8.67e-5,0.001 -3.9e-5,0.0239 0,0.03125 -6.34e-5,0.002 -1.573e-4,0.0433 0,0.03125 4.69e-5,0.002 -8.37e-5,0.02921 0,0.03125 -4.41e-5,0.0073 -9.69e-5,0.03024 0,0.03125 -4.04e-5,0.0037 9.5e-6,0.02773 0,0.03125 -5.4e-5,0.0037 1.45e-5,0.02752 0,0.03125 -1.32e-5,-1.1e-4 1.62e-5,0.03131 0,0.03125 1.42e-5,1.09e-4 -1.73e-5,0.03119 0,0.03125 0,0 0.020047,0.0048 0.03125,0 -0.00577,0.004 0.00432,0.02821 0,0.03125 1.63e-5,1.52e-4 -2.04e-5,0.03114 0,0.03125 1.9e-5,1.51e-4 -2.38e-5,0.03115 0,0.03125 0,0 0,0.03125 0,0.03125 0,0 0.024685,0.0044 0.03125,0 0.00438,-0.003 -0.00584,-0.0273 0,-0.03125 0.00875,-0.0059 0.022497,0.0059 0.03125,0 -0.00576,0.0041 0.00432,0.02821 0,0.03125 -0.00648,0.0046 -0.03125,0 -0.03125,0 2.63e-5,1.04e-4 -3.21e-5,0.0312 0,0.03125 7e-5,1.06e-4 0.029947,-0.0014 0.03125,0 0.00328,0.0033 -0.00377,0.02755 0,0.03125 0.00387,0.0074 0.031269,2.5e-5 0.03125,0 0.012729,-0.01293 0.018521,-0.01832 0.03125,-0.03125 0.00636,-0.0065 0.03125,0 0.03125,0 2e-5,1.3e-5 0.011106,0.03694 0,0.0625 -0.00185,0.0043 -0.029631,-0.0037 -0.03125,0 -0.00432,0.0067 0,0.03125 0,0.03125 l 0.03125,0 6.03125,7.4375 -6.90625,0 c -0.00152,-1.23e-4 -0.024103,-5.2e-5 -0.03125,0 -0.00957,-2.58e-4 -0.024105,-10e-6 -0.03125,0 -0.00715,-5.2e-5 -0.029733,-1.23e-4 -0.03125,0 -0.00928,-1.65e-4 -0.023904,-5e-6 -0.03125,0 -10e-8,0 -0.03125,0 -0.03125,0 a 0.09677853,0.09677853 0 0 0 -0.03125,0 c -3.189e-4,3.1e-5 -0.031111,-4.7e-5 -0.03125,0 -6.84e-5,2.6e-5 -0.031135,-8.1e-5 -0.03125,0 -1.152e-4,8.1e-5 0.00147,0.03004 0,0.03125 -0.00376,0.0038 -0.027604,-0.0038 -0.03125,0 -1.62e-5,9e-6 0.00607,0.02662 0,0.03125 -0.00607,0.0046 -0.031235,-1.5e-5 -0.03125,0 1.095e-4,-3.3e-5 -0.031312,4e-5 -0.03125,0 -1.087e-4,3.4e-5 -0.031189,-4.1e-5 -0.03125,0 -2.99e-5,2.1e-5 2.72e-5,0.03122 0,0.03125 -1.36e-5,1.7e-5 0.00249,0.02741 0,0.03125 -0.00249,0.0038 -0.031238,-2.3e-5 -0.03125,0 -2.8e-5,2.4e-5 -0.031224,-3.6e-5 -0.03125,0 -2.55e-5,3.6e-5 2.3e-5,0.0312 0,0.03125 -2.6e-5,2.6e-5 0.00525,0.02344 0,0.03125 -0.00525,0.0078 -0.031229,-5.1e-5 -0.03125,0 -2.4e-5,1.2e-5 0.00371,0.02899 0,0.03125 -0.00371,0.0023 -0.031232,-1.3e-5 -0.03125,0 -1.395e-4,4e-5 -0.031159,-5.1e-5 -0.03125,0 -4.54e-5,2.5e-5 3.26e-5,0.03122 0,0.03125 -3.26e-5,2.8e-5 -0.031231,-3.1e-5 -0.03125,0 -3.88e-5,6.2e-5 3.19e-5,0.03114 0,0.03125 3.75e-5,-6.3e-5 -3.06e-5,0.03136 0,0.03125 -1.45e-5,1.5e-5 0.0045,0.02465 0,0.03125 -0.0045,0.0066 -0.031242,-1.7e-5 -0.03125,0 -2.53e-5,1.14e-4 2.01e-5,0.03109 0,0.03125 4.54e-5,0.0048 -1.212e-4,0.02759 0,0.03125 -1.19e-5,1.6e-5 0.0039,0.02322 0,0.03125 -0.0039,0.008 -0.031245,-1.8e-5 -0.03125,0 -3.57e-5,1.42e-4 1.96e-4,0.02857 0,0.03125 1.97e-5,0.004 -6.9e-5,0.0276 0,0.03125 4.76e-5,-2.9e-4 4.6e-6,0.03096 0,0.03125 6.1e-6,0.0034 -3.27e-5,0.02761 0,0.03125 -6.91e-5,0.0012 -2.87e-5,0.02397 0,0.03125 -8.2e-6,0.0073 -2.644e-4,0.02034 0,0.03125 l 0,2.78125 c -2.679e-4,-0.01333 -1.248e-4,0.02847 0,0.03125 -5.76e-5,0.0072 -1.31e-4,0.02986 0,0.03125 -4.61e-5,0.0036 9.1e-6,0.02762 0,0.03125 -7.18e-5,0.0036 1.92e-5,0.02723 0,0.03125 1.873e-4,0.0026 -3.76e-5,0.03108 0,0.03125 2.09e-5,8.5e-5 -7.61e-5,0.03112 0,0.03125 7.61e-5,1.28e-4 0.031122,-1.69e-4 0.03125,0 -1.299e-4,0.0036 4.86e-5,0.02634 0,0.03125 4.34e-5,3.33e-4 -6.63e-5,0.03109 0,0.03125 1.76e-5,4e-5 0.023522,-0.0097 0.03125,0 0.00773,0.0097 -4.39e-5,0.03122 0,0.03125 1.819e-4,0.0028 -5.84e-5,0.03092 0,0.03125 3.67e-5,1.2e-4 -4.47e-5,0.03118 0,0.03125 2.23e-5,3.7e-5 0.023502,-0.008 0.03125,0 0.00775,0.008 -4.78e-5,0.03122 0,0.03125 9.56e-5,6.1e-5 0.031107,-4.9e-5 0.03125,0 0.00327,0.0033 -0.00371,0.0276 0,0.03125 0.00371,0.0036 0.028695,-0.0025 0.03125,0 9.357e-4,0.001 -0.00738,0.02391 0,0.03125 0.00738,0.0073 0.039533,0.0087 0.03125,0 -0.00869,-0.0083 -0.00734,0.02387 0,0.03125 0.00734,0.0074 0.030217,-9.35e-4 0.03125,0 0.00253,0.0026 -0.00365,0.02754 0,0.03125 0.00365,0.0037 0.02799,-0.0033 0.03125,0 a 0.09677853,0.09677853 0 0 0 0,0.03125 c 0.00762,0.0077 0.031287,2.3e-5 0.03125,0 0.00799,0.0077 -3.74e-5,0.03123 0,0.03125 7.48e-5,4.5e-5 0.03113,-3.7e-5 0.03125,0 0.00325,0.0059 0.031217,-4.4e-5 0.03125,0 1.228e-4,3.2e-5 0.031085,-2.6e-5 0.03125,0 0.00969,0.0077 -3.99e-5,0.03123 0,0.03125 1.611e-4,6.6e-5 0.030917,-4.3e-5 0.03125,0 0.00491,-4.9e-5 0.027632,1.3e-4 0.03125,0 1.693e-4,1.28e-4 -1.284e-4,0.03117 0,0.03125 1.284e-4,7.6e-5 0.031165,-2.1e-5 0.03125,0 1.701e-4,3.8e-5 0.028695,-1.87e-4 0.03125,0 0.00402,-1.9e-5 0.027647,7.2e-5 0.03125,0 0.00363,-9e-6 0.02765,4.6e-5 0.03125,0 0.00139,1.31e-4 0.024054,5.7e-5 0.03125,0 0.00278,1.25e-4 0.044587,2.68e-4 0.03125,0 l 15.59375,0 c -0.01334,2.68e-4 0.02847,1.25e-4 0.03125,0 0.0072,5.7e-5 0.02986,1.31e-4 0.03125,0 0.0036,4.6e-5 0.02762,-9e-6 0.03125,0 a 0.09677853,0.09677853 0 0 0 0.03125,0 c 0.0026,-1.87e-4 0.03108,3.8e-5 0.03125,0 8.5e-5,-2.1e-5 0.03112,7.6e-5 0.03125,0 1.28e-4,-7.6e-5 -1.69e-4,-0.03112 0,-0.03125 0.0036,1.3e-4 0.02634,-4.9e-5 0.03125,0 3.33e-4,-4.3e-5 0.03109,6.6e-5 0.03125,0 4e-5,-1.8e-5 -0.0097,-0.02352 0,-0.03125 -3.2e-5,1.5e-5 0.02411,0.0059 0.03125,0 3.3e-5,-4.4e-5 0.028,0.0059 0.03125,0 1.2e-4,-3.7e-5 0.03118,4.5e-5 0.03125,0 3.7e-5,-2.2e-5 -0.008,-0.0235 0,-0.03125 0.008,-0.0077 0.03122,4.8e-5 0.03125,0 0.0076,-0.0077 3e-5,-0.0313 0,-0.03125 0.0033,-0.0033 0.0276,0.0037 0.03125,0 0.0036,-0.0037 -0.0025,-0.02869 0,-0.03125 0.001,-9.36e-4 0.02391,0.0074 0.03125,0 0.0073,-0.0074 0.0087,-0.03952 0,-0.03125 -0.0083,0.0087 0.02387,0.0073 0.03125,0 0.0074,-0.0073 -9.36e-4,-0.03022 0,-0.03125 0.0026,-0.0025 0.02754,0.0036 0.03125,0 0.0037,-0.0036 -0.0033,-0.02799 0,-0.03125 -9.7e-5,6e-5 0.0313,-0.03132 0.03125,-0.03125 0.0077,-0.008 0.03123,3.7e-5 0.03125,0 4.5e-5,-7.5e-5 -3.7e-5,-0.03113 0,-0.03125 a 0.09677853,0.09677853 0 0 0 0,-0.03125 c 0.0059,-0.0071 1.5e-5,-0.03128 0,-0.03125 0.0077,-0.0097 0.03123,4e-5 0.03125,0 6.6e-5,-1.61e-4 -4.3e-5,-0.03092 0,-0.03125 5.8e-5,-1.64e-4 -3.8e-5,-0.03092 0,-0.03125 1.28e-4,-1.69e-4 0.03117,1.28e-4 0.03125,0 7.6e-5,-1.28e-4 -2.1e-5,-0.03117 0,-0.03125 3.8e-5,-1.7e-4 -1.87e-4,-0.02869 0,-0.03125 a 0.09677853,0.09677853 0 0 0 0,-0.03125 c -9e-6,-0.0036 4.6e-5,-0.02765 0,-0.03125 1.31e-4,-0.0014 5.7e-5,-0.02405 0,-0.03125 1.25e-4,-0.0028 2.68e-4,-0.04459 0,-0.03125 l 0,-2.78125 c 2.68e-4,0.01334 1.25e-4,-0.02847 0,-0.03125 5.7e-5,-0.0072 1.31e-4,-0.02986 0,-0.03125 4.6e-5,-0.0036 -9e-6,-0.02762 0,-0.03125 7.2e-5,-0.0036 -1.9e-5,-0.02723 0,-0.03125 -1.87e-4,-0.0026 3.8e-5,-0.03108 0,-0.03125 -2.1e-5,-8.5e-5 7.6e-5,-0.03112 0,-0.03125 -7.6e-5,-1.28e-4 -0.03112,1.69e-4 -0.03125,0 -0.0043,-0.0042 0.0038,-0.02767 0,-0.03125 -4.3e-5,-3.33e-4 6.6e-5,-0.03109 0,-0.03125 -1.8e-5,-4e-5 -0.02352,0.0097 -0.03125,0 1.5e-5,3.2e-5 0.0059,-0.02411 0,-0.03125 -1.82e-4,-0.0028 5.8e-5,-0.03092 0,-0.03125 -3.7e-5,-1.2e-4 4.5e-5,-0.03118 0,-0.03125 -2.2e-5,-3.7e-5 -0.0235,0.008 -0.03125,0 4.6e-5,7.4e-5 -0.03135,-0.03131 -0.03125,-0.03125 -0.0033,-0.0033 0.0037,-0.0276 0,-0.03125 -0.0037,-0.0036 -0.02869,0.0025 -0.03125,0 -9.36e-4,-0.001 0.0074,-0.02391 0,-0.03125 -0.0074,-0.0073 -0.03952,-0.0087 -0.03125,0 0.0087,0.0083 0.0073,-0.02387 0,-0.03125 -0.0073,-0.0074 -0.03022,9.36e-4 -0.03125,0 -0.0025,-0.0026 0.0036,-0.02754 0,-0.03125 -0.0036,-0.0037 -0.02799,0.0033 -0.03125,0 -4.9e-5,-1.43e-4 6.1e-5,-0.03115 0,-0.03125 -0.0076,-0.0077 -0.03129,-2.3e-5 -0.03125,0 -0.008,-0.0077 3.7e-5,-0.03123 0,-0.03125 -7.5e-5,-4.5e-5 -0.03113,3.7e-5 -0.03125,0 -0.0032,-0.0059 -0.03122,4.4e-5 -0.03125,0 -0.0071,-0.0059 -0.03128,-1.5e-5 -0.03125,0 -0.0097,-0.0077 4e-5,-0.03123 0,-0.03125 -1.61e-4,-6.6e-5 -0.03092,4.3e-5 -0.03125,0 1.28e-4,7.8e-5 -0.03133,-2.3e-5 -0.03125,0 -1.69e-4,-1.28e-4 1.28e-4,-0.03117 0,-0.03125 -1.28e-4,-7.6e-5 -0.03117,2.1e-5 -0.03125,0 -1.7e-4,-3.8e-5 -0.02869,1.87e-4 -0.03125,0 -0.004,1.9e-5 -0.02765,-7.2e-5 -0.03125,0 -0.0036,9e-6 -0.02765,-4.6e-5 -0.03125,0 -0.0014,-1.31e-4 -0.02405,-5.7e-5 -0.03125,0 -0.0028,-1.25e-4 -0.04459,-2.68e-4 -0.03125,0 l -7.71875,0 c -8.2e-5,3.19e-4 -2.55e-4,-0.02843 0,-0.03125 l 6.625,-7.40625 0.03125,0 c 4.6e-5,-1.9e-5 0.03122,2.2e-5 0.03125,0 0,0 0.0043,-0.02462 0,-0.03125 -0.0044,-0.0029 0.0059,-0.02733 0,-0.03125 0,0 -0.03125,0.03125 -0.03125,0.03125 0,0 -0.01257,-0.04271 -0.03125,-0.0625 0.0047,0.0022 0.01859,-0.0058 0.03125,0 0.01266,0.0058 0.02017,-0.0051 0.03125,0 0.0044,0.0014 -0.0039,0.03001 0,0.03125 0.01162,0.0037 0.03124,1.5e-5 0.03125,0 0.0038,-0.0037 -0.0033,-0.028 0,-0.03125 2.1e-5,-1.1e-5 0.02672,0.0032 0.03125,0 3.1e-5,-5.3e-5 -2.6e-5,-0.03115 0,-0.03125 0,0 -0.02482,0.0046 -0.03125,0 0,0 0.03125,-0.03125 0.03125,-0.03125 2.5e-5,-1.03e-4 -3.1e-5,0.0313 0,0.03125 0.0065,0.0045 0.03125,0 0.03125,0 a 0.09677853,0.09677853 0 0 0 0,-0.03125 c 2.3e-5,-1.04e-4 -1.8e-5,-0.0311 0,-0.03125 -4e-5,-0.0046 1.09e-4,-0.02755 0,-0.03125 -1.9e-5,1.06e-4 1.5e-5,-0.0314 0,-0.03125 0.01121,0.0048 0.03125,0 0.03125,0 1.8e-5,-5.9e-5 -1.4e-5,-0.03114 0,-0.03125 2.7e-5,-1.2e-4 -1.3e-4,-0.029 0,-0.03125 -1.4e-5,-0.0037 5.2e-5,-0.02757 0,-0.03125 -9e-6,-0.0035 3.9e-5,-0.02757 0,-0.03125 9.6e-5,-9.83e-4 4.4e-5,-0.02389 0,-0.03125 8.8e-5,-0.002 -5.4e-5,-0.02928 0,-0.03125 6e-5,0.0074 5e-5,-0.02928 0,-0.03125 4.3e-5,-0.0074 9.4e-5,-0.03027 0,-0.03125 3.4e-5,-0.0037 -8e-6,-0.02782 0,-0.03125 -7.6e-5,-0.0015 -2.5e-5,-0.03137 0,-0.03125 1.3e-5,1.08e-4 -1.5e-5,-0.03131 0,-0.03125 -1.4e-5,-1.08e-4 1.6e-5,-0.03119 0,-0.03125 0,0 -0.02003,-0.0048 -0.03125,0 9.3e-5,-0.0037 -3.2e-5,-0.02693 0,-0.03125 -0.0037,-0.0037 0.0038,-0.02757 0,-0.03125 -1.8e-5,-1.5e-4 2.3e-5,-0.03115 0,-0.03125 0,0 0,-0.03125 0,-0.03125 0,0 -0.02473,-0.0045 -0.03125,0 -0.0043,0.003 0.0058,0.02725 0,0.03125 -0.0232,0.01602 -0.0625,0.03125 -0.0625,0.03125 0.0059,-0.0069 -0.0079,-0.02211 0,-0.03125 0.0078,-0.01429 0.02349,-0.01696 0.03125,-0.03125 0.0064,-0.0046 0.03125,0 0.03125,0 -2.6e-5,-1.03e-4 3.1e-5,-0.0312 0,-0.03125 -3.4e-5,-5.1e-5 -0.03116,1.01e-4 -0.03125,0 -0.0033,-0.0033 0.0038,-0.02754 0,-0.03125 0,0 -0.02022,-0.0052 -0.03125,0 -1.77e-4,-0.0028 5.4e-5,-0.03096 0,-0.03125 0,0 -0.02048,-0.0057 -0.03125,0 0.0043,-0.0067 0,-0.03125 0,-0.03125 -1.9e-5,-4.7e-5 2.1e-5,-0.03122 0,-0.03125 0,0 -0.02448,-0.0041 -0.03125,0 -2e-5,-4.5e-5 2.2e-5,-0.03122 0,-0.03125 0,0 -0.02473,-0.0045 -0.03125,0 0,0 -0.02498,-0.0066 -0.03125,0 -0.0025,-0.0025 0.0037,-0.02746 0,-0.03125 -10e-5,-3.01e-5 -0.0311,2.4e-5 -0.03125,0 -1.02e-4,-8.54e-5 5.3e-5,-0.031218 0,-0.03125 a 0.09677853,0.09677853 0 0 0 -0.03125,0 c -0.0044,-0.00267 -0.03128,-1.33e-5 -0.03125,0 -5.3e-5,-4e-5 -0.02657,0.0028 -0.03125,0 -3.9e-5,-1.243e-4 4.9e-5,-0.031178 0,-0.03125 -0.006,-0.00621 -0.03126,-1.12e-5 -0.03125,0 0,0 0,-0.03125 0,-0.03125 0,0 -0.03125,0 -0.03125,0 -6e-5,-1.53e-5 -0.03114,1.26e-5 -0.03125,0 -0.0038,1.69e-5 -0.02756,-5.95e-5 -0.03125,0 a 0.09677853,0.09677853 0 0 0 -0.03125,0 c -0.0034,6.1e-6 -0.02757,-2.97e-5 -0.03125,0 -9.84e-4,-7.53e-5 -0.02389,-3.35e-5 -0.03125,0 l -3.75,0 0.1875,-8.875 c 2.68e-4,0.013337 1.25e-4,-0.028465 0,-0.03125 5.7e-5,-0.007196 1.31e-4,-0.0298624 0,-0.03125 4.6e-5,-0.0036 -9e-6,-0.0276234 0,-0.03125 -1.03e-4,-0.00166 -3.3e-5,-0.031421 0,-0.03125 -1.87e-4,-0.002555 3.8e-5,-0.0310799 0,-0.03125 -2.1e-5,-8.456e-5 7.6e-5,-0.0311216 0,-0.03125 -7.6e-5,-1.2836e-4 -0.03112,1.6934e-4 -0.03125,0 -0.0043,-0.004208 0.0038,-0.0276657 0,-0.03125 -4.3e-5,-3.3317e-4 6.6e-5,-0.0310889 0,-0.03125 -1.8e-5,-3.986e-5 -0.02352,0.009691 -0.03125,0 -1.02e-4,-0.001712 -5.5e-5,-0.0315775 0,-0.03125 -1.82e-4,-0.002765 5.8e-5,-0.0309244 0,-0.03125 -3.7e-5,-1.2026e-4 4.5e-5,-0.0311752 0,-0.03125 -2.2e-5,-3.739e-5 -0.0235,0.007992 -0.03125,0 2.3e-5,3.683e-5 0.0077,-0.0236267 0,-0.03125 a 0.09677853,0.09677853 0 0 0 -0.03125,0 c -0.0033,-0.00326 0.0037,-0.0276028 0,-0.03125 -0.0037,-0.003647 -0.0287,0.002535 -0.03125,0 -9.35e-4,-0.001033 0.0074,-0.0239101 0,-0.03125 -0.0074,-0.00734 -0.03953,-0.008694 -0.03125,0 0.0087,0.008284 0.0073,-0.0238736 0,-0.03125 -0.0073,-0.007376 -0.03022,9.3568e-4 -0.03125,0 -0.0025,-0.002555 0.0036,-0.0275357 0,-0.03125 -0.0036,-0.003714 -0.02799,0.003272 -0.03125,0 a 0.09677853,0.09677853 0 0 0 0,-0.03125 c -3.1e-5,-4.779e-5 -0.02326,0.007748 -0.03125,0 -0.008,-0.007748 3.7e-5,-0.0312277 0,-0.03125 -7.5e-5,-4.468e-5 -0.03113,3.667e-5 -0.03125,0 -0.0032,-0.005942 -0.03122,4.388e-5 -0.03125,0 -3.3e-5,-4.388e-5 -0.02156,0.007728 -0.03125,0 -0.0097,-0.007728 4e-5,-0.0312324 0,-0.03125 -1.61e-4,-6.63e-5 -0.03092,4.344e-5 -0.03125,0 1.28e-4,7.806e-5 -0.03133,-2.298e-5 -0.03125,0 -1.69e-4,-1.2776e-4 1.28e-4,-0.0311739 0,-0.03125 -1.28e-4,-7.611e-5 -0.03116,2.09e-5 -0.03125,0 -1.7e-4,-3.761e-5 -0.0287,1.873e-4 -0.03125,0 1.71e-4,3.34e-5 -0.02959,1.0353e-4 -0.03125,0 -0.0036,9.09e-6 -0.02765,-4.607e-5 -0.03125,0 -0.0014,-1.3103e-4 -0.02405,-5.756e-5 -0.03125,0 -0.0028,-1.2478e-4 -0.04458,-2.6786e-4 -0.03125,0 l -3.1875,0 z m -5.875,10.53125 c 0,0 -0.03125,-0.03125 -0.03125,-0.03125 0.0041,0.0076 -1.98e-5,0.03122 0,0.03125 0,0 0.024886,0.0065 0.03125,0 z m 0.09375,-0.875 c 0.00388,0.01156 -0.00443,0.01804 0,0.03125 -0.0085,-0.0086 -0.024876,0.0065 -0.03125,0 0,0 0.03125,-0.03125 0.03125,-0.03125 z m 13.59375,0.09375 c 0.0084,-0.004 0.02285,0.03522 0.03125,0.03125 -0.0089,0.0057 -0.02236,-0.0057 -0.03125,0 0.0044,-0.0029 -0.0059,-0.02734 0,-0.03125 z M 4.40625,10.25 c 0.0086,0.0061 0.022652,-0.0061 0.03125,0 0.00607,0.0067 0,0.03125 0,0.03125 0,0 -0.01674,-0.02126 -0.03125,-0.03125 z" transform="translate(0.008822,-0.00314999)" id="path3833" style="fill:#000000;fill-opacity:0.52941165"/>
    <path d="m 10.110573,0.83456199 c -0.599999,0 -0.999999,0.40000001 -0.999999,1.00000001 l 0,8.500001 -4.406251,0 6.09375,7.5 6.6875,-7.5 -4.375,0 0.1875,-9.50000101 -3.1875,0 z m -6.71875,18.00000101 0,2.78125 15.59375,0 0,-2.78125 -15.59375,0 z" id="Shape_5_-9" style="fill:#ffffff;fill-opacity:1"/>
  </g>
</svg>