<?xml version="1.0" encoding="utf-8"?>
<!-- Generator: Adobe Illustrator 17.1.0, SVG Export Plug-In . SVG Version: 6.00 Build 0)  -->
<!DOCTYPE svg PUBLIC "-//W3C//DTD SVG 1.1//EN" "http://www.w3.org/Graphics/SVG/1.1/DTD/svg11.dtd">
<svg version="1.1"
	 id="svg2" xmlns:svg="http://www.w3.org/2000/svg" xmlns:rdf="http://www.w3.org/1999/02/22-rdf-syntax-ns#" xmlns:cc="http://creativecommons.org/ns#" xmlns:dc="http://purl.org/dc/elements/1.1/"
	 xmlns="http://www.w3.org/2000/svg" xmlns:xlink="http://www.w3.org/1999/xlink" x="0px" y="0px" viewBox="0 0 960 560"
	 enable-background="new 0 0 960 560" xml:space="preserve">
<g>
	<path fill-opacity="0.5333" d="M697.1,536.9c-5.1,0-7.7-2.6-10.3-5.1L550.6,411c-36,25.7-79.6,41.1-125.9,41.1
		c-56.5,0-110.5-23.1-151.6-64.2C191,303.1,191,167,273.2,84.8c38.5-41.1,92.5-61.7,151.6-61.7s110.5,23.1,151.6,61.7
		c66.8,66.8,82.2,174.7,33.4,256.9L745.9,465c5.1,2.6,5.1,10.3,5.1,15.4C740.7,526.6,702.2,536.9,697.1,536.9
		C699.6,536.9,697.1,536.9,697.1,536.9z M424.8,107.9c-33.4,0-66.8,12.8-92.5,38.5c-2.6,0-2.6,0-5.1,2.6
		c-46.2,51.4-43.7,128.4,2.6,177.2c25.7,23.1,56.5,38.5,89.9,38.5s66.8-12.8,89.9-38.5c25.7-23.1,38.5-56.5,38.5-89.9
		s-12.8-66.8-38.5-89.9C491.6,120.7,460.7,107.9,424.8,107.9z"/>
	<path fill="#FFFFFF" d="M283.5,369.9C322,408.4,370.8,429,424.8,429c46.2,0,89.9-15.4,125.9-46.2l146.4,131c0,0,33.4-7.7,41.1-43.7
		l-143.9-131c51.4-77.1,41.1-182.4-25.7-249.2c-41.1-38.5-89.9-59.1-141.3-59.1S319.4,51.4,283.5,87.3
		C206.4,167,206.4,292.8,283.5,369.9z M314.3,133.6c2.6-2.6,5.1-5.1,7.7-7.7c28.3-28.3,64.2-43.7,102.8-43.7s74.5,15.4,102.8,43.7
		c56.5,56.5,56.5,149,0,205.5c-28.3,28.3-64.2,43.7-102.8,43.7s-74.5-15.4-102.8-43.7C265.5,277.4,262.9,190.1,314.3,133.6z"/>
	<path fill-opacity="0.5333" d="M337.4,267.2c-5.1,0-10.3-5.1-10.3-10.3v-53.9c0-5.1,5.1-10.3,10.3-10.3l169.5-0.5
		c5.1,0,10.3,5.1,10.3,10.3v54.4c0,5.1-5.1,10.3-10.3,10.3H337.4z"/>
	<path fill="#FFFFFF" d="M507,200.4h-59.1h-48.8h-61.7c0,0-2.6,0-2.6,2.6v43.7c0,0,0,2.6,2.6,2.6l167,0c0,0,2.6,0,2.6-2.6L507,200.4
		C509.5,200.4,507,200.4,507,200.4z"/>
</g>
</svg>
