<?xml version="1.0" encoding="UTF-8"?>
<svg xmlns="http://www.w3.org/2000/svg" width="28.391182" height="29.067274">
	<path fill-opacity=".51" d="M13.16765 0c.17728 0 .3125.0825.3125.1875V13.625c0 .19944-.0864.375-.1875.375H.66765c-.10108 0-.1875-.17556-.1875-.375V9.84375c0-.19944.0864-.34375.1875-.34375H5.8864L.04265 3.65625c-.0797-.0797-.0473-.26522.0937-.40625L2.82385.5625c.14103-.14102.32653-.17347.40625-.0937l6.25 6.25V.18755c0-.10497.13522-.1875.3125-.1875h3.375z"/>
	<path fill="#fff" d="M12.66765.5c.1662 0 .3125.0466.3125.125v12.21875c0 .011-.0263.021-.0312.0312-.009.0251-.0189.045-.0312.0625-.0117.009-.0161.0241-.0312.0312-.005.004-.0256-.003-.0312 0-.01.005-.0207.0312-.0312.0312H1.1054c-.0753 0-.125-.1463-.125-.3125v-2.375c0-.1662.0497-.3125.125-.3125h6.6875l-6.71875-6.75c-.0599-.0599-.0238-.19498.0937-.3125l1.6875-1.6875c.11752-.11752.28388-.18487.34375-.125l6.78125 6.8125V.62485c0-.0784.11505-.125.28125-.125h2.40625z"/>
	<path fill-opacity=".51" d="M27.41765 15c.10108 0 .1875.14431.1875.34375V19.125c0 .19944-.0864.375-.1875.375H22.0114l6.34375 6.34375c.0825.0825.016.26523-.125.40625l-2.65625 2.65625c-.14102.14103-.32378.20747-.40625.125l-6.5625-6.5625v6.3125c0 .10886-.13522.21875-.3125.21875H14.9489c-.17728 0-.34375-.10989-.34375-.21875V15.1875c0-.0336.0385-.0661.0625-.0937.0245-.0281.0511-.0447.0937-.0625.0132-.006.0171-.0312.0312-.0312h12.625z"/>
	<path fill="#fff" d="M26.98015 15.5c.0753 0 .125.11505.125.28125v2.40625c0 .1662-.0497.3125-.125.3125H20.3239l7 7.03125c.0599.0599.0238.19498-.0937.3125l-1.71875 1.6875c-.11752.11752-.25263.18487-.3125.125l-7.09375-7.125v7.3125c0 .0784-.11505.15625-.28125.15625H15.4177c-.1662 0-.3125-.0779-.3125-.15625V15.625c0-.0261.0365-.0415.0625-.0625.009-.0209.0194-.0173.0312-.0312.008-.004.0229.003.0312 0 .0131-.009.0168-.0312.0312-.0312h11.71875z"/>
</svg>
