<?xml version="1.0" encoding="UTF-8"?>
<svg xmlns="http://www.w3.org/2000/svg" width="21.125" height="21.78125">
	<path fill-opacity=".51" d="M8.3125 0c-.101081 0-.1875.14431-.1875.34375V4.125c0 .19944.08642.375.1875.375h5.125L4 13.9375V7.96875c0-.104968-.13522-.1875-.3125-.1875H.3125c-.17728 0-.3125.08253-.3125.1875v13.4375c0 .19944.08642.375.1875.375h12.625c.101081 0 .1875-.17556.1875-.375V17.625c0-.19944-.08642-.34375-.1875-.34375H7L17.125 7.1875v6.59375c0 .108856.16647.21875.34375.21875h3.34375c.17728 0 .3125-.109894.3125-.21875V.1875c0-.01281-.02748-.01914-.03125-.03125-.0047-.01514.01-.04883 0-.0625-.01847-.03644-.03746-.04437-.0625-.0625-.0081-.005-.02232.0044-.03125 0C20.98679.02525 20.9829 0 20.96875 0H8.3125z"/>
	<path fill="#fff" d="M8.78125.5C8.70595.5 8.625.61505 8.625.78125V3.1875c0 .1662.081.3125.15625.3125h6.375L3.5 15.15625v-6.75c0-.0784-.1463-.125-.3125-.125H.78125c-.1662 0-.28125.0466-.28125.125V20.625c0 .0131.0243.0192.0312.0312.003.008-.003.0237 0 .0312.0151.0169.0354.0185.0625.0312.0163.0151.0124.0625.0312.0625h11.75c.0753 0 .125-.1463.125-.3125v-2.40625c0-.1662-.0497-.28125-.125-.28125H5.09365L17.6249 5.24985v7.59375c0 .0784.1463.15625.3125.15625h2.40625c.1662 0 .28125-.0779.28125-.15625V.62485c0-.0151-.0221-.0176-.0312-.0312-.005-.008.008-.0238 0-.0312-.009-.0209-.0194-.0173-.0312-.0312-.008-.004-.0229.003-.0312 0-.0131-.009-.0168-.0312-.0312-.0312H8.78135z"/>
</svg>
