<?xml version="1.0" encoding="UTF-8"?>
<svg xmlns="http://www.w3.org/2000/svg" width="21.125" height="21.78125">
	<path fill-opacity="0.51" d="M12.8125 0C12.91358 0 13 .14431 13 .34375V4.125c0 .19944-.0864.375-.1875.375h-5.125l9.4375 9.4375V7.96875c0-.10497.13522-.1875.3125-.1875h3.375c.17728 0 .3125.0825.3125.1875v13.4375c0 .19944-.0864.375-.1875.375H8.3125c-.10108 0-.1875-.17556-.1875-.375V17.625c0-.19944.0864-.34375.1875-.34375h5.8125L4 7.1875v6.59375C4 13.89011 3.83353 14 3.65625 14H.3125C.13522 14 0 13.89011 0 13.78125V.1875C0 .1747.0275.1684.0312.1563c.005-.0151-.01-.0488 0-.0625C.0497.0574.0687.0494.0937.0313c.008-.005.0223.004.0312 0C.1381.0253.142.0001.1561.0001h12.65625z"/>
	<path fill="#fff" d="M12.34375.5c.0753 0 .15625.11505.15625.28125V3.1875c0 .1662-.081.3125-.15625.3125h-6.375L17.625 15.15625v-6.75c0-.0784.1463-.125.3125-.125h2.40625c.1662 0 .28125.0466.28125.125V20.625c0 .0131-.0243.0192-.0312.0312-.003.008.003.0237 0 .0312-.0151.0169-.0354.0185-.0625.0312-.0163.0151-.0124.0625-.0312.0625h-11.75c-.0753 0-.125-.1463-.125-.3125v-2.40625c0-.1662.0497-.28125.125-.28125h7.28125L3.5001 5.24985v7.59375c0 .0784-.1463.15625-.3125.15625H.78135c-.1662 0-.28125-.0779-.28125-.15625V.62485c0-.0151.0221-.0176.0312-.0312.005-.008-.008-.0238 0-.0312.009-.0209.0194-.0173.0312-.0312.008-.004.0229.003.0312 0 .0131-.009.0168-.0312.0312-.0312h11.71875z"/>
</svg>
