<?xml version="1.0" encoding="UTF-8" standalone="no"?>
<!-- Created with Inkscape (http://www.inkscape.org/) -->

<svg
   xmlns:dc="http://purl.org/dc/elements/1.1/"
   xmlns:cc="http://creativecommons.org/ns#"
   xmlns:rdf="http://www.w3.org/1999/02/22-rdf-syntax-ns#"
   xmlns:svg="http://www.w3.org/2000/svg"
   xmlns="http://www.w3.org/2000/svg"
   version="1.1"
   width="100%"
   height="100%"
   viewBox="-1.2 0 23 22.2"
   id="svg2"
   xml:space="preserve"><metadata
   id="metadata50"><rdf:RDF><cc:Work
       rdf:about=""><dc:format>image/svg+xml</dc:format><dc:type
         rdf:resource="http://purl.org/dc/dcmitype/StillImage" /><dc:title></dc:title></cc:Work></rdf:RDF></metadata><defs
   id="defs48" />



<path
   d="M 2.3,3.3 V 18 c 0,0.3 0.2,0.5 0.5,0.5 h 18.1 c 0.3,0 0.5,-0.2 0.5,-0.5 V 3.3 C 21.4,3 21.2,2.8 20.9,2.8 H 2.8 C 2.5,2.8 2.3,3.1 2.3,3.3 z m 17,10.1 h -15 l 4.5,-5.8 0.7,-0.3 4.2,4.5 2.2,-1.3 3.4,2.9 0,0 0,0 z"
   id="path5_4_"
   style="stroke:#000000;stroke-width:0.5;stroke-miterlimit:10" />
<path
   d="m -1,5.7 v 15.8 c 0,0.2 0.2,0.4 0.4,0.4 H 20.6 V 19.8 H 1.5 C 1.3,19.8 1.1,19.6 1.1,19.4 V 5.7 H -1 z"
   id="polygon7_4_"
   style="stroke:#000000;stroke-width:0.5;stroke-miterlimit:10" />
<path
   d="m -1,5.7 v 15 c 0,0.2 0.2,0.4 0.4,0.4 H 20.6 V 19.4 H 1.5 C 1.3,19.4 1.1,19.2 1.1,19 V 5.7 H -1 z"
   id="polygon7_6_"
   style="fill:#ffffff;stroke:#000000;stroke-width:0.5;stroke-miterlimit:10" />









<polygon
   points="8.8,7.6 9.5,7.3 13.7,11.8 16,10.5 19.4,13.4 4.4,13.4 "
   id="polygon42"
   style="opacity:0.5" />
<path
   d="M 20.9,2.8 H 2.8 C 2.5,2.8 2.3,3 2.3,3.3 V 17 c 0,0.3 0.2,0.5 0.5,0.5 h 18.1 c 0.3,0 0.5,-0.2 0.5,-0.5 V 3.3 C 21.4,3.1 21.2,2.8 20.9,2.8 z M 4.4,13.4 8.9,7.6 9.6,7.3 l 4.2,4.5 2.2,-1.3 3.4,2.9 h -15 z"
   id="path44"
   style="fill:#ffffff;stroke:#000000;stroke-width:0.5;stroke-miterlimit:10" />
</svg>