<?xml version="1.0" encoding="utf-8"?>
<!-- Generator: Adobe Illustrator 17.1.0, SVG Export Plug-In . SVG Version: 6.00 Build 0)  -->
<!DOCTYPE svg PUBLIC "-//W3C//DTD SVG 1.1//EN" "http://www.w3.org/Graphics/SVG/1.1/DTD/svg11.dtd">
<svg version="1.1"
	 id="svg2" xmlns:svg="http://www.w3.org/2000/svg" xmlns:rdf="http://www.w3.org/1999/02/22-rdf-syntax-ns#" xmlns:cc="http://creativecommons.org/ns#" xmlns:dc="http://purl.org/dc/elements/1.1/"
	 xmlns="http://www.w3.org/2000/svg" xmlns:xlink="http://www.w3.org/1999/xlink" x="0px" y="0px" viewBox="0 0 960 560"
	 enable-background="new 0 0 960 560" xml:space="preserve">
<g>
	<path fill-opacity="0.5333" d="M265.5,536.9c-5.1,0-43.7-10.3-53.9-56.5c0-5.1,0-12.8,5.1-15.4l136.1-123.3
		c-48.8-82.2-33.4-190.1,33.4-256.9c41.1-38.5,92.5-61.7,151.6-61.7s113,20.6,151.6,61.7c82.2,82.2,82.2,218.3,0,303.1
		c-41.1,41.1-95,64.2-151.6,64.2c-46.2,0-89.9-15.4-125.9-41.1L275.8,531.7C273.2,534.3,270.6,536.9,265.5,536.9
		C265.5,536.9,262.9,536.9,265.5,536.9z M453,146.4c-25.7,23.1-38.5,56.5-38.5,89.9s12.8,66.8,38.5,89.9
		c23.1,25.7,56.5,38.5,89.9,38.5s64.2-15.4,89.9-38.5c46.2-48.8,48.8-125.9,2.6-177.2c-2.6-2.6-2.6-2.6-5.1-2.6
		c-25.7-25.7-59.1-38.5-92.5-38.5C501.8,107.9,471,120.7,453,146.4z"/>
	<path fill="#FFFFFF" d="M679.1,87.3c-36-36-92.5-56.5-143.9-56.5S435,51.4,393.9,89.9c-66.8,66.8-77.1,172.1-25.7,249.2l-143.9,131
		c7.7,36,41.1,43.7,41.1,43.7l146.4-131c36,30.8,79.6,46.2,125.9,46.2c53.9,0,102.8-20.6,141.3-59.1
		C756.1,292.8,756.1,167,679.1,87.3z M640.6,331.4c-28.3,28.3-64.2,43.7-102.8,43.7s-74.5-15.4-102.8-43.7
		c-56.5-56.5-56.5-149,0-205.5c28.3-28.3,64.2-43.7,102.8-43.7s74.5,15.4,102.8,43.7c2.6,2.6,5.1,5.1,7.7,7.7
		C699.6,190.1,697.1,277.4,640.6,331.4z"/>
	<path fill-opacity="0.5333" d="M560.9,328.8h-43.7c-5.1,0-10.3-5.1-10.3-10.3v-51.4h-51.4c-5.1,0-10.3-5.1-10.3-10.3v-56.5
		c0-5.1,5.1-10.3,10.3-10.3H507v-51.4c0-5.1,5.1-10.3,10.3-10.3h43.7c5.1,0,10.3,7.7,12.8,12.8v51.4h51.4c5.1,0,10.3,5.1,10.3,10.3
		v53.9c0,5.1-5.1,10.3-10.3,10.3h-53.9v51.4C571.2,323.7,566.1,328.8,560.9,328.8L560.9,328.8z"/>
	<path fill="#FFFFFF" d="M455.6,200.4l0,46.2c0,2.6,2.6,2.6,2.6,2.6h59.1v59.1c0,2.6,2.6,2.6,2.6,2.6h43.7c2.6,0,2.6-2.6,2.6-2.6
		v-59.1h59.1c2.6,0,2.6-2.6,2.6-2.6v-43.7c0-2.6-2.6-2.6-2.6-2.6h-61.7v-59.1c0-2.6-2.6-2.6-2.6-2.6h-43.7c-2.6,0-2.6,2.6-2.6,2.6
		v59.1H455.6C455.6,200.4,453,200.4,455.6,200.4z"/>
</g>
</svg>
