<?xml version="1.0" encoding="utf-8"?>
<!-- Generator: Adobe Illustrator 17.1.0, SVG Export Plug-In . SVG Version: 6.00 Build 0)  -->
<!DOCTYPE svg PUBLIC "-//W3C//DTD SVG 1.1//EN" "http://www.w3.org/Graphics/SVG/1.1/DTD/svg11.dtd">
<svg version="1.1"
	 id="svg2" xmlns:svg="http://www.w3.org/2000/svg" xmlns:rdf="http://www.w3.org/1999/02/22-rdf-syntax-ns#" xmlns:cc="http://creativecommons.org/ns#" xmlns:dc="http://purl.org/dc/elements/1.1/"
	 xmlns="http://www.w3.org/2000/svg" xmlns:xlink="http://www.w3.org/1999/xlink" x="0px" y="0px" viewBox="0 0 21.1 21.8"
	 enable-background="new 0 0 21.1 21.8" xml:space="preserve">
<g>
	<path fill-opacity="0.5333" d="M19,20.9c-0.2,0-0.3-0.1-0.4-0.2L13.3,16c-1.4,1-3.1,1.6-4.9,1.6c-2.2,0-4.3-0.9-5.9-2.5
		c-3.2-3.3-3.2-8.6,0-11.8C4,1.7,6.1,0.9,8.4,0.9s4.3,0.9,5.9,2.4c2.6,2.6,3.2,6.8,1.3,10l5.3,4.8c0.2,0.1,0.2,0.4,0.2,0.6
		C20.7,20.5,19.2,20.9,19,20.9C19.1,20.9,19,20.9,19,20.9z M8.4,4.2c-1.3,0-2.6,0.5-3.6,1.5C4.7,5.7,4.7,5.7,4.6,5.8
		c-1.8,2-1.7,5,0.1,6.9c1,0.9,2.2,1.5,3.5,1.5s2.6-0.5,3.5-1.5c1-0.9,1.5-2.2,1.5-3.5s-0.5-2.6-1.5-3.5C11,4.7,9.8,4.2,8.4,4.2z"/>
	<path fill="#FFFFFF" d="M2.9,14.4c1.5,1.5,3.4,2.3,5.5,2.3c1.8,0,3.5-0.6,4.9-1.8L19,20c0,0,1.3-0.3,1.6-1.7L15,13.2
		c2-3,1.6-7.1-1-9.7C12.4,2,10.5,1.2,8.5,1.2S4.3,2,2.9,3.4C-0.1,6.5-0.1,11.4,2.9,14.4z M4.1,5.2C4.2,5.1,4.3,5,4.4,4.9
		c1.1-1.1,2.5-1.7,4-1.7s2.9,0.6,4,1.7c2.2,2.2,2.2,5.8,0,8c-1.1,1.1-2.5,1.7-4,1.7s-2.9-0.6-4-1.7C2.2,10.8,2.1,7.4,4.1,5.2z"/>
	<path fill-opacity="0.5333" d="M7.5,12.8c-0.2,0-0.4-0.2-0.4-0.4v-2H5c-0.2,0-0.4-0.2-0.4-0.4V7.9c0-0.2,0.2-0.4,0.4-0.4h2v-2
		C7.1,5.3,7.3,5,7.5,5h1.7c0.2,0,0.4,0.2,0.4,0.4v2h2c0.2,0,0.4,0.2,0.4,0.4V10c0,0.2-0.2,0.4-0.4,0.4h-2v2c0,0.2-0.2,0.4-0.4,0.4
		L7.5,12.8L7.5,12.8z"/>
	<path fill="#FFFFFF" d="M11.6,7.8H9.3V5.5c0,0,0-0.1-0.1-0.1H7.5c0,0-0.1,0-0.1,0.1v2.3H5c0,0-0.1,0-0.1,0.1v1.7c0,0,0,0.1,0.1,0.1
		h2.3V12c0,0,0,0.1,0.1,0.1h1.7c0,0,0.1,0,0.1-0.1V9.7h2.3c0,0,0.1,0,0.1-0.1L11.6,7.8C11.7,7.8,11.6,7.8,11.6,7.8z"/>
</g>
</svg>
