<?xml version="1.0" encoding="UTF-8"?>
<!-- Generator: Adobe Illustrator 18.0.0, SVG Export Plug-In . SVG Version: 6.00 Build 0)  -->
<!DOCTYPE svg PUBLIC "-//W3C//DTD SVG 1.1//EN" "http://www.w3.org/Graphics/SVG/1.1/DTD/svg11.dtd">
<svg version="1.1" id="Layer_1" xmlns="http://www.w3.org/2000/svg" xmlns:xlink="http://www.w3.org/1999/xlink" x="0px" y="0px" viewBox="212 84 600 600.8" enable-background="new 212 84 600 600.8" xml:space="preserve">
<path fill="#FFFFFF" d="M422.4,233.6h180v60h-180L422.4,233.6L422.4,233.6z M721.6,353.6v60H422.4v-60H721.6z M422.4,534.4v-60h300  v60H422.4z M332,233.6h-84l-5.6-8v-67.2c0-24,21.6-44,45.6-44s44,20,44,44V233.6z M812,148c0-35.2-60-64-60-64H276  c-35.2,0-64,28.8-64,64v100l16,16h104v420.8h480V148z"/>
</svg>