<?xml version="1.0" encoding="UTF-8"?>
<svg xmlns="http://www.w3.org/2000/svg" width="18.244141" height="22.457031" viewBox="0 0 18.244141 22.457031">
	<g fill="#36c" fill-rule="evenodd">
		<path d="M2.7734312 1.93554556c-1.5639563.3014341-2.77343748 1.6763366-2.77343748 3.32031248V19.0546866c0 1.86018 1.5402096 3.402343 3.4003906 3.402343h11.44335935c1.860195 0 3.400391-1.542163 3.400391-3.402343V5.25585804c0-1.6439759-1.209473-3.0188784-2.773438-3.32031248.12881.3312627.207031.6862956.207031 1.0585937v.1757813c0 .5915414-.183965 1.145064-.490234 1.6132812.148898.1027802.253906.2581495.253906.47265628V19.0546866c0 .355806-.241835.597656-.597656.597656H3.4003843c-.355807 0-.5976562-.24185-.5976562-.597656V5.25585804c0-.2145068.1050101-.3698763.2539062-.4726563-.3065979-.4681683-.4902344-1.0208799-.4902344-1.6132812v-.1757813c0-.3721563.0785133-.7277074.2070313-1.05859368z"/>
		<path d="M8.09569948.00000245c-.831 0-1.5.669-1.5 1.5v.00391h-1.039063c-.824906 0-1.490234.6653284-1.490234 1.4902343v.1757813c0 .8249059.665328 1.48828118 1.490234 1.48828118H12.68944947c.824906 0 1.488281-.6633753 1.488281-1.4882812v-.1757813c0-.8249059-.663375-1.4902343-1.488281-1.4902343h-1.039063v-.00391c0-.83099998-.669-1.49999998-1.5-1.49999998z"/>
	</g>
</svg>
