<?xml version="1.0" encoding="UTF-8"?>
<svg xmlns="http://www.w3.org/2000/svg" width="64" height="64" viewBox="5.5 -3.5 64 64">
	<path fill="#72777d" d="M54.414286 39.014286c.914286-1.828572 1.371429-4.114286 1.371429-5.942858h-7.771429l6.4 5.942858zM53.5 17.071428c-5.028571-9.1428569-17.828571-11.8857141-26.514286-5.485714l5.485715 5.485714c5.942857-4.571428 14.171428 0 14.628571 6.857143h8.228572c0-2.742857-.914286-5.942857-1.828572-6.857143-.914285-1.828571.914286 1.828572 0 0z"/>
	<path fill="#72777d" d="M37.5-3.5000004c-17.828571 0-32 14.1714284-32 32.0000004 0 17.828571 14.171429 32 32 32 17.828572 0 32-14.171429 32-32 0-17.828572-14.171428-32.0000004-32-32.0000004zM10.071429 28.5c0-5.485715 1.828571-10.514286 4.571428-14.628572l6.4 6.4C18.3 28.042857 19.214286 37.642857 25.157143 44.042857c5.485714 5.485714 15.085714 6.857143 22.4 3.2l4.571429 5.028572c-4.114286 2.742857-9.142857 4.114285-14.171429 4.114285-15.542857-.457143-27.885714-12.8-27.885714-27.885714zM27.9 27.585714l13.714286 14.171429c-4.114286 1.371428-8.685714 0-11.428572-3.657143C28.357143 34.9 27.9 30.785714 27.9 27.585714zM57.157143 47.7l-38.4-38.8571432C23.328572 3.8142854 30.185714 1.0714282 37.5 1.0714282c15.085715 0 27.428572 12.3428568 27.428572 27.4285718 0 7.314286-3.2 14.171428-7.771429 19.2z"/>
</svg>
