<?xml version="1.0" encoding="UTF-8" standalone="no"?>
<!-- Created with Inkscape (http://www.inkscape.org/) -->

<svg
   xmlns:dc="http://purl.org/dc/elements/1.1/"
   xmlns:cc="http://creativecommons.org/ns#"
   xmlns:rdf="http://www.w3.org/1999/02/22-rdf-syntax-ns#"
   xmlns:svg="http://www.w3.org/2000/svg"
   xmlns="http://www.w3.org/2000/svg"
   version="1.0"
   width="64"
   height="64"
   viewBox="5.5 -3.5 64 64"
   id="svg2">
  <metadata
     id="metadata12">
    <rdf:RDF>
      <cc:Work
         rdf:about="">
        <dc:format>image/svg+xml</dc:format>
        <dc:type
           rdf:resource="http://purl.org/dc/dcmitype/StillImage" />
        <dc:title></dc:title>
      </cc:Work>
    </rdf:RDF>
  </metadata>
  <defs
     id="defs10" />
  <g
     transform="matrix(0.89136054,0,0,0.89136054,431.08023,-311.5986)"
     id="g29">
    <path
       d="m -434,375.8 c -0.2,-1.5 -0.7,-2.8 -1.5,-3.9 -1.1,-1.6 -2.9,-2.4 -5.3,-2.4 -3.4,0 -5.8,1.7 -7.1,5.1 -0.7,1.8 -1,4.2 -1,7.2 0,2.9 0.3,5.1 1,6.9 1.2,3.2 3.5,4.9 6.9,4.9 2.4,0 4.1,-0.6 5.1,-1.9 1,-1.3 1.6,-3 1.8,-5 h 10.4 c -0.2,3.1 -1.4,6 -3.4,8.8 -3.2,4.5 -7.9,6.7 -14.2,6.7 -6.3,0 -10.9,-1.9 -13.8,-5.6 -3,-3.7 -4.4,-8.5 -4.4,-14.5 0,-6.7 1.6,-11.9 4.9,-15.6 3.3,-3.7 7.8,-5.6 13.5,-5.6 4.9,0 8.9,1.1 12,3.3 3.1,2.2 5,6.1 5.5,11.6 H -434 z"
       id="path31"
       style="fill:#939598" />
  </g>
  <g
     transform="translate(0,80)"
     id="g3410">
    <path
       d="m 37.35,-83.5 c 9,0 16.6,3.1 22.9,9.4 3,3 5.3,6.4 6.9,10.3 1.6,3.9 2.3,8 2.3,12.3 0,4.4 -0.8,8.5 -2.3,12.3 -1.5,3.8 -3.8,7.2 -6.8,10.1 -3.1,3.1 -6.7,5.4 -10.6,7.1 -4,1.6 -8.1,2.5 -12.3,2.5 -4.2,0 -8.3,-0.8 -12.1,-2.4 -3.9,-1.6 -7.3,-4 -10.4,-7 -3.1,-3.1 -5.4,-6.5 -7,-10.4 -1.6,-3.8 -2.4,-7.9 -2.4,-12.2 0,-4.2 0.8,-8.3 2.4,-12.2 1.6,-3.9 4,-7.4 7.1,-10.5 5.9,-6.2 13.4,-9.3 22.3,-9.3 l 0,0 z m 0.1,5.8 c -7.3,0 -13.5,2.6 -18.5,7.7 -2.5,2.6 -4.4,5.4 -5.8,8.6 -1.4,3.2 -2,6.5 -2,10 0,3.4 0.7,6.7 2,9.9 1.4,3.2 3.3,6 5.8,8.5 2.5,2.5 5.4,4.4 8.5,5.7 3.2,1.3 6.5,2 9.9,2 3.4,0 6.8,-0.7 10,-2 3.2,-1.3 6.1,-3.3 8.7,-5.8 5,-4.9 7.5,-11 7.5,-18.3 0,-3.5 -0.6,-6.9 -1.9,-10.1 -1.3,-3.2 -3.2,-6 -5.7,-8.5 -5.1,-5.1 -11.3,-7.7 -18.5,-7.7 l 0,0 z"
       id="path6-0_1_-2"
       style="fill:#939598" />
    <rect
       width="8.5010338"
       height="55.099468"
       x="5.6489754"
       y="35.382771"
       transform="matrix(-0.70710678,-0.70710678,0.70710678,-0.70710678,0,0)"
       id="rect3025-8_1_-4"
       style="fill:#939598" />
  </g>
</svg>
