<?xml version="1.0" encoding="UTF-8"?>
<svg xmlns="http://www.w3.org/2000/svg" width="26" height="40" viewBox="0 0 26 40">
	<path fill-opacity=".51" d="M20 .00747c.10225 0 .2029.0466.28125.125l5.0625 5.09375c.1567.1567.1567.40581 0 .5625l-14.1875 14.21875 14.1875 14.21875c.1567.1567.1567.40581 0 .5625l-5.0625 5.09375c-.15669.1567-.43705.1567-.59375 0l-14.46875-14.5L.125 20.28872c-.0784-.0784-.125-.179-.125-.28125 0-.0511.0117-.10811.0312-.15625.0196-.0481.0546-.0858.0937-.125l5.09375-5.09375 14.46875-14.5c.0784-.0784.21025-.125.3125-.125z"/>
	<path fill="#fff" d="M20 .69497c.0767 0 .12874.004.1875.0625l3.84375 3.84375c.11752.11752.11752.28873 0 .40625L9.71875 19.28872l14.9375 14.9375c.1567.1567.1567.40581 0 .5625l-3.6875 3.65625c-.15669.1567-.4058.1567-.5625 0l-15.125-15.125-3.75-3.75c-.0219-.0219-.0467-.0373-.0625-.0625-.0172-.0172-.0191-.0427-.0312-.0625-.004-.009.003-.0218 0-.0312-.0386-.079-.0351-.1386 0-.21875.008-.0191-.0125-.0451 0-.0625.005-.0135.0242-.0183.0312-.0312l.0625-.0937 3.6875-3.65625L19.78125.75762c.0588-.0588.14206-.0625.21875-.0625z"/>
</svg>
