<?xml version="1.0" encoding="UTF-8" standalone="no"?>
<!-- Created with Inkscape (http://www.inkscape.org/) -->

<svg
   xmlns:dc="http://purl.org/dc/elements/1.1/"
   xmlns:cc="http://creativecommons.org/ns#"
   xmlns:rdf="http://www.w3.org/1999/02/22-rdf-syntax-ns#"
   xmlns:svg="http://www.w3.org/2000/svg"
   xmlns="http://www.w3.org/2000/svg"
   xmlns:sodipodi="http://sodipodi.sourceforge.net/DTD/sodipodi-0.dtd"
   xmlns:inkscape="http://www.inkscape.org/namespaces/inkscape"
   width="64"
   height="64"
   viewBox="0 0 64.000001 64.000001"
   id="svg4162"
   version="1.1"
   inkscape:version="0.91 r13725"
   sodipodi:docname="restrict-personality.svg">
  <defs
     id="defs4164" />
  <sodipodi:namedview
     id="base"
     pagecolor="#ffffff"
     bordercolor="#666666"
     borderopacity="1.0"
     inkscape:pageopacity="0.0"
     inkscape:pageshadow="2"
     inkscape:zoom="1.28"
     inkscape:cx="-10.476845"
     inkscape:cy="-36.075279"
     inkscape:document-units="px"
     inkscape:current-layer="svg4162"
     showgrid="false"
     units="px"
     showguides="true"
     inkscape:guide-bbox="true"
     inkscape:object-nodes="true"
     inkscape:window-width="1920"
     inkscape:window-height="1018"
     inkscape:window-x="-8"
     inkscape:window-y="-8"
     inkscape:window-maximized="1"
     inkscape:snap-page="true">
    <inkscape:grid
       type="xygrid"
       id="grid4153" />
  </sodipodi:namedview>
  <metadata
     id="metadata4167">
    <rdf:RDF>
      <cc:Work
         rdf:about="">
        <dc:format>image/svg+xml</dc:format>
        <dc:type
           rdf:resource="http://purl.org/dc/dcmitype/StillImage" />
        <dc:title />
      </cc:Work>
    </rdf:RDF>
  </metadata>
  <g
     inkscape:label="Layer 1"
     inkscape:groupmode="layer"
     id="layer1">
    <path
       style="fill:#333333;fill-opacity:1;stroke:none;stroke-width:16;stroke-linecap:round;stroke-linejoin:miter;stroke-miterlimit:4;stroke-dasharray:none;stroke-opacity:1"
       d="m 0,0 0,64.00004 10.345703,0 43.308594,0 L 64,64.00004 64,0 0,0 Z m 6,6 52,0 0,52.00004 -6.060547,0 A 25.20602,60.413365 0 0 0 41.75,39.05474 c -2.753842,1.9904 -6.120159,3.1816 -9.757812,3.1816 -3.624277,0 -6.978291,-1.1811 -9.726563,-3.1582 A 25.20602,60.413365 0 0 0 12.060547,58.00004 L 6,58.00004 6,6 Z m 25.992188,6.00004 c -7.45154,0 -13.492255,6.0405 -13.492188,13.4922 -5e-6,7.4516 6.040693,13.4921 13.492188,13.4921 7.451495,0 13.492192,-6.0405 13.492187,-13.4921 6.6e-5,-7.4517 -6.040648,-13.4922 -13.492187,-13.4922 z"
       id="path4134"
       inkscape:connector-curvature="0" />
  </g>
</svg>
