<?xml version="1.0" encoding="UTF-8" standalone="no"?>
<!-- Created with Inkscape (http://www.inkscape.org/) -->

<svg
   xmlns:dc="http://purl.org/dc/elements/1.1/"
   xmlns:cc="http://creativecommons.org/ns#"
   xmlns:rdf="http://www.w3.org/1999/02/22-rdf-syntax-ns#"
   xmlns:svg="http://www.w3.org/2000/svg"
   xmlns="http://www.w3.org/2000/svg"
   xmlns:sodipodi="http://sodipodi.sourceforge.net/DTD/sodipodi-0.dtd"
   xmlns:inkscape="http://www.inkscape.org/namespaces/inkscape"
   width="64"
   height="64"
   viewBox="0 0 64.000001 64.000001"
   id="svg4133"
   version="1.1"
   inkscape:version="0.91 r13725"
   sodipodi:docname="restrict-insignia.svg">
  <defs
     id="defs4135" />
  <sodipodi:namedview
     id="base"
     pagecolor="#ffffff"
     bordercolor="#666666"
     borderopacity="1.0"
     inkscape:pageopacity="0.0"
     inkscape:pageshadow="2"
     inkscape:zoom="8"
     inkscape:cx="55.468687"
     inkscape:cy="31.605339"
     inkscape:document-units="px"
     inkscape:current-layer="layer1"
     showgrid="false"
     inkscape:snap-bbox="true"
     inkscape:bbox-nodes="true"
     inkscape:object-nodes="true"
     inkscape:snap-bbox-edge-midpoints="true"
     inkscape:snap-global="false"
     units="px"
     inkscape:window-width="1920"
     inkscape:window-height="1018"
     inkscape:window-x="-8"
     inkscape:window-y="-8"
     inkscape:window-maximized="1" />
  <metadata
     id="metadata4138">
    <rdf:RDF>
      <cc:Work
         rdf:about="">
        <dc:format>image/svg+xml</dc:format>
        <dc:type
           rdf:resource="http://purl.org/dc/dcmitype/StillImage" />
        <dc:title />
      </cc:Work>
    </rdf:RDF>
  </metadata>
  <g
     inkscape:label="Layer 1"
     inkscape:groupmode="layer"
     id="layer1"
     transform="translate(0,-988.36216)">
    <path
       style="fill:#333333;fill-opacity:1;stroke:none;stroke-width:20;stroke-linecap:butt;stroke-linejoin:round;stroke-miterlimit:4;stroke-dasharray:none;stroke-opacity:1"
       d="m 30.296874,988.36216 c -0.04069,10e-4 -0.08154,0.007 -0.125,0.0156 -0.315204,-0.0277 -1.217087,0.4266 -0.728516,0.64843 0.62224,-0.0875 1.126644,0.20414 1.265625,0.82032 0.427386,0.42488 0.431869,1.24839 -0.283203,1.36132 -0.614351,0.12636 -1.179413,-0.26943 -1.773437,-0.36718 -0.363784,-0.59013 0.886966,-0.63829 0.677734,-1.16602 -0.28344,-0.54084 -1.280321,-0.79387 -1.441406,-0.0273 -0.235667,0.57232 -0.217269,1.26908 -0.703125,1.71679 -0.40728,0.51428 -0.334432,1.22011 -0.837891,1.60157 -0.05457,0.71013 0.85887,0.67027 1.1875,1.1289 0.34661,0.39899 0.813903,1.00168 1.41211,0.70117 0.696425,-0.32188 0.389565,-1.24491 0.902343,-1.67968 0.748122,-0.55621 0.28792,0.79157 0.511719,0.95507 0.371463,-0.0265 0.964298,-0.11485 0.773438,0.4668 0.26092,0.45174 0.103735,0.5578 -0.81836,1.16016 -0.498207,-0.58208 -1.488665,-0.0994 -1.335937,0.14453 0.507752,0.16331 2.102392,-0.30347 2.101562,0.47266 -0.209075,0.71448 -1.087783,0.8077 -1.689453,0.57031 -0.621086,-0.10983 -1.236557,-0.26999 -1.871094,-0.26563 -0.653149,-0.0453 -1.280407,0.32965 -1.660156,0.84375 -0.156103,0.58902 -0.737018,1.30845 -0.265625,1.87891 0.705494,0.31244 1.012405,-0.67529 1.572266,-0.89844 0.612268,-0.33695 1.36117,-0.2437 2.037109,-0.28515 0.673686,-0.009 1.343992,-0.0147 2.007813,0.10351 0.26244,0.0156 0.524409,0.0257 0.787109,0.0332 0.26269,-0.008 0.524669,-0.0176 0.787109,-0.0332 0.66382,-0.11826 1.334133,-0.11211 2.007813,-0.10351 0.67594,0.0415 1.424839,-0.0518 2.037109,0.28515 0.55986,0.22315 0.866776,1.21088 1.572266,0.89844 0.4714,-0.57046 -0.109525,-1.28989 -0.265625,-1.87891 -0.37975,-0.5141 -1.007006,-0.8891 -1.660156,-0.84375 -0.63454,-0.004 -1.250014,0.1558 -1.871094,0.26563 -0.60167,0.23739 -1.480373,0.14417 -1.689453,-0.57031 -8.2e-4,-0.77613 1.593802,-0.30935 2.101562,-0.47266 0.15272,-0.24397 -0.837737,-0.72661 -1.335937,-0.14453 -0.9221,-0.60236 -1.07928,-0.70842 -0.81836,-1.16016 -0.19086,-0.58165 0.401968,-0.49327 0.773438,-0.4668 0.22379,-0.1635 -0.236401,-1.51128 0.511719,-0.95507 0.51278,0.43477 0.205923,1.3578 0.902343,1.67968 0.59821,0.30051 1.0655,-0.30218 1.41211,-0.70117 0.32863,-0.45863 1.24207,-0.41877 1.1875,-1.1289 -0.50346,-0.38146 -0.430611,-1.08729 -0.837891,-1.60157 -0.48586,-0.44771 -0.467455,-1.14447 -0.703125,-1.71679 -0.16109,-0.76649 -1.157966,-0.51346 -1.441406,0.0273 -0.20923,0.52773 1.041524,0.57589 0.677734,1.16602 -0.59402,0.0978 -1.159077,0.49354 -1.773437,0.36718 -0.71507,-0.11293 -0.710593,-0.93644 -0.283203,-1.36132 0.13898,-0.61618 0.643385,-0.9078 1.265625,-0.82032 0.48857,-0.22183 -0.413306,-0.67615 -0.728516,-0.64843 -0.0435,-0.009 -0.08433,-0.0144 -0.125,-0.0156 -0.6104,-0.0175 -0.922485,0.76262 -1.328125,1.13477 -0.0837,0.0981 -0.169262,0.19734 -0.232422,0.31054 -0.0389,0.13039 -0.08772,0.25492 -0.142578,0.37696 -0.0549,-0.12204 -0.103688,-0.24657 -0.142578,-0.37696 -0.0632,-0.1132 -0.148702,-0.21247 -0.232422,-0.31054 -0.40565,-0.37215 -0.717726,-1.15231 -1.328125,-1.13477 z m 2.212891,11.51758 c -1.719877,0.031 -3.463125,0.78216 -4.814454,2.50196 -2.402364,3.0576 -0.436266,2.7681 0.728516,4.2969 1.164783,1.5288 1.238115,4.7311 -0.07227,5.9687 0,0 3.785324,-3.7123 5.095704,-3.7851 1.31038,-0.073 3.05664,1.5293 3.05664,1.5293 0,0 -0.799537,-2.1126 -0.435547,-3.2774 0.364,-1.1648 2.76671,-4.4408 0.21875,-6.1152 -1.11474,-0.7325 -2.439663,-1.14346 -3.777339,-1.11916 z m -9.404297,0.10156 c -0.187249,-0.013 -0.39179,0.1247 -0.63086,0.5117 -0.974248,-0.062 -1.693623,-0.3922 -2.707031,-0.025 -1.61622,-0.2711 -2.537769,1.201 -3.314453,2.3516 -0.257674,0.9897 0.710242,1.623 1.582031,1.5351 0.17636,-0.1364 0.379171,-0.2201 0.625,-0.2148 0.01323,-0.01 0.02612,-0.014 0.03906,-0.023 1.092458,-0.5424 -0.188462,-2.9675 1.603515,-2.2754 0.530317,0.7464 0.159796,3.3126 -1.220703,2.3847 -0.155032,-0.057 -0.293465,-0.081 -0.421875,-0.084 -0.187735,0.1217 -0.403164,0.1904 -0.625,0.2128 -0.584786,0.4522 -0.889144,1.4829 -1.585937,1.7657 -1.152591,0.9772 0.17866,2.2117 0.18164,3.3457 0.02578,1.4209 1.537347,2.6449 2.921875,2.1054 1.545371,-0.068 2.054799,-1.6373 0.609375,-2.3652 -0.68514,-0.9509 -1.825208,-1.3752 -2.605468,-2.2168 1.696983,-0.4335 3.125581,0.8578 4.662109,1.2754 1.915904,0.2027 4.129292,-1.5555 3.636719,-3.6094 0.120042,-1.2257 -1.446204,-1.9898 -0.992188,-3.3144 -0.124044,-0.082 -0.27685,0.023 -0.378906,0.084 -0.535029,-0.3843 -0.900379,-1.4089 -1.378906,-1.4434 z m 17.789062,0 c -0.47852,0.035 -0.843876,1.0591 -1.378906,1.4434 -0.10206,-0.061 -0.252903,-0.1665 -0.376953,-0.084 0.45402,1.3246 -1.114191,2.0869 -0.994141,3.3125 -0.49258,2.0539 1.720819,3.8121 3.636719,3.6094 1.53653,-0.4175 2.965129,-1.7089 4.662109,-1.2754 -0.78026,0.8416 -1.920328,1.2678 -2.605468,2.2187 -1.44543,0.7278 -0.935995,2.2969 0.609375,2.3652 1.38453,0.5395 2.896095,-0.6845 2.921875,-2.1054 0.003,-1.1341 1.33423,-2.3685 0.18164,-3.3457 -0.69679,-0.2828 -1.001147,-1.3135 -1.585937,-1.7657 -0.22181,-0.022 -0.43729,-0.091 -0.625,-0.2128 -0.12838,0 -0.266885,0.028 -0.421875,0.084 -1.3805,0.9279 -1.751023,-1.6403 -1.220703,-2.3867 1.79197,-0.6921 0.511055,1.7331 1.603515,2.2754 0.0129,0.01 0.02586,0.017 0.03906,0.025 0.24588,0 0.44862,0.078 0.625,0.2148 0.87183,0.088 1.839721,-0.5454 1.582031,-1.5351 -0.77669,-1.1506 -1.698233,-2.6227 -3.314453,-2.3516 -1.01341,-0.3668 -1.732791,-0.038 -2.707031,0.025 -0.23907,-0.387 -0.44361,-0.5252 -0.63086,-0.5117 z m -31.1523432,7.9922 c -0.05637,0 -0.1131729,0 -0.1699219,0.012 -0.767592,0.4876 -1.8776619,0.1693 -2.7792968,0.1543 -0.526991,0.5599 0.018153,1.0304 0.1035156,1.543 0.476483,0.9085 0.071837,2.1244 -0.1035156,3.0898 -0.5069151,0.9299 0.7444243,1.1868 0.4121093,2.1621 -0.423725,0.4076 -0.599294,0.9754 -0.515625,1.6699 0.06709,0.6169 -0.1619966,1.1122 -0.1035156,1.7266 0.189613,0.781 0.2632861,1.8192 0.8300781,2.5723 0.356055,0.5942 0.1457549,1.4106 0.2011719,2.125 0.01376,1.1488 0.2313037,2.2088 -0.2695313,3.3281 -0.3689619,1.1379 -0.931921,2.2813 -1.171875,3.2988 -0.350233,0.8015 -0.8645611,1.9211 -1.2363281,2.8828 -0.30438,0.7073 -0.3554392,2.1776 -1.4414062,1.545 -0.355469,-0.6368 0.2064886,-1.5137 0.1035156,-2.2657 0.221362,-0.8147 0.082206,-1.7825 0.4121094,-2.5722 0.155876,-0.9462 0.088449,-1.9833 0.1015625,-2.9883 0.07742,-0.8212 -0.1153751,-1.186 -0.7207032,-1.543 -0.2858999,-0.8505 -0.5819948,-1.6494 -0.5136718,-2.5937 -0.181056,-0.7068 -0.077852,-1.5185 -0.1035156,-2.2871 -0.07043,-0.4454 0.2703151,-1.5963 -0.5136719,-1.0899 -0.727423,0.4717 -1.53289873,1.1256 -1.33984374,2.0801 -0.208933,1.4207 0.96122604,2.4841 1.23632804,3.7891 5.151e-4,1.6538 -3.089e-4,3.3068 0,4.9609 0.05162,0.6055 -0.1127863,1.2967 0.1035157,1.834 l 0,2.3691 c -0.232857,1.0999 0.5550971,1.6492 1.1425781,2.4121 0.03123,1.8311 1.4165995,0.066 1.4296875,-0.7675 -0.08606,-0.5608 0.7343096,-2.3923 0.6191406,-2.0586 0.03308,1.066 -0.44006,2.047 -0.515625,3.0879 -0.0012,0.7 8.24e-4,1.4012 0,2.1015 -0.04707,0.9775 0.5572765,1.6807 0.7734375,2.4434 0.652736,0.911 0.7986533,2.2062 1.5976563,3.125 -0.117441,1.5789 2.0866117,1.2449 2.2617187,0.2363 -0.120464,-0.7358 0.2321903,-1.2793 0.2070313,-1.9766 0.08444,-0.8487 -1.1709063,-0.8789 -1.6445313,-1.4199 -0.222088,-0.7938 -0.4983164,-1.7331 -0.2089844,-2.5527 0.3852741,-0.8746 0.4306923,-1.8215 1.1289063,-2.3711 0.760971,-0.3781 0.7780174,-1.3412 0.7246094,-2.1602 -0.137382,-0.8369 0.1798169,-1.0203 0.8222648,-0.7187 -0.05779,1.0574 -0.136471,2.1228 -0.101562,3.1914 0.191083,0.7133 -1.8587981,1.3759 -1.2558591,1.8555 0.9293521,0.1644 1.7990101,1.3069 2.9023431,1.1289 1.206434,0.071 2.589995,-0.3827 3.5,-0.9258 -0.03553,-1.1489 0.168333,-2.3471 -0.412109,-3.3985 -0.518649,-1.4264 -0.734659,1.001 -1.853516,0.3106 -0.686734,-0.3867 -1.104652,-0.6728 -0.925781,-1.5469 -0.04448,-0.9927 0.102019,-2.0299 -0.103516,-2.9844 -0.152347,-1.0207 -1.792506,-0.9946 -2.6757805,-1.1328 -0.99826,0.4428 -0.4834648,-1.0776 -0.5292968,-0.9804 0.698842,-1.2142 1.3435223,-2.5838 2.1757813,-3.6524 0.459306,0.3439 1.18061,1.1954 1.902343,1.5313 0.689353,0.8356 2.046041,1.0485 2.763672,0.1875 0.693022,-0.5379 1.117333,-1.9043 1.431641,-2.1114 1.016265,-0.3304 0.603363,-1.8461 -0.332031,-1.9746 0.837391,-1.1146 -0.745831,-1.3723 -1.337891,-1.6465 -0.447821,0.07 -2.044117,-0.7848 -1.75,-0.8242 0.599062,-0.4018 -0.108376,-0.8386 0.101562,-1.6465 0.205224,-1.1155 1.591808,-1.0022 2.472657,-1.5449 1.475058,-0.8679 -1.063903,-2.4262 0.617187,-3.0898 0.101345,-0.8118 -0.571281,-0.8426 -0.720703,-1.3379 0.08615,-0.5934 -0.112507,-1.0661 -0.308594,-1.543 -0.87979,-1.3253 -1.257159,0.1712 -1.558593,1.0117 -0.362047,1.1584 -0.853314,2.5222 -1.736328,3.3106 -0.197982,0.916 -1.202798,2.0564 -1.75,0.9277 0.225607,-1.0505 0.126466,-1.6997 -0.925782,-1.914 -0.2818291,-0.4122 -0.2863098,-1.3068 -0.103515,-1.6895 0.549521,-0.6725 1.475205,-0.5621 1.955078,-1.2363 0.704791,-0.3046 0.746429,-1.8216 0,-1.8516 -0.655955,-0.4626 -1.455227,-1.5818 -2.3007812,-1.6074 z m 44.5156242,0 c -0.84555,0.026 -1.644831,1.143 -2.300781,1.6055 -0.74643,0.03 -0.7048,1.5489 0,1.8535 0.47987,0.6742 1.405558,0.5638 1.955078,1.2363 0.18279,0.3828 0.178315,1.2773 -0.103515,1.6895 -1.05225,0.2143 -1.151382,0.8635 -0.925782,1.914 -0.547199,1.1287 -1.55202,-0.012 -1.75,-0.9277 -0.883009,-0.7883 -1.374278,-2.1521 -1.736328,-3.3106 -0.30143,-0.8404 -0.678803,-2.339 -1.558593,-1.0136 -0.19609,0.4769 -0.394744,0.9514 -0.308594,1.5449 -0.14943,0.4952 -0.822043,0.526 -0.720703,1.3379 1.68109,0.6636 -0.857863,2.2218 0.617187,3.0898 0.88085,0.5426 2.267437,0.4275 2.472657,1.543 0.20994,0.8079 -0.497498,1.2466 0.101562,1.6484 0.29412,0.039 -1.30218,0.8947 -1.75,0.8242 -0.59206,0.2742 -2.175281,0.5319 -1.337891,1.6465 -0.9354,0.1284 -1.348301,1.6441 -0.332031,1.9746 0.31431,0.207 0.738621,1.5735 1.431641,2.1114 0.71763,0.8611 2.074322,0.6462 2.763672,-0.1895 0.72174,-0.3358 1.443033,-1.1853 1.902343,-1.5293 0.83125,1.0673 1.475968,2.4335 2.173828,3.6465 -0.0124,5e-4 0.439717,1.4152 -0.527343,0.9863 -0.88328,0.1381 -2.523441,0.112 -2.675781,1.1328 -0.20554,0.9545 -0.05906,1.9918 -0.103516,2.9844 0.17887,0.8741 -0.239041,1.1582 -0.925781,1.5449 -1.11885,0.6904 -1.334876,-1.7351 -1.853516,-0.3086 -0.58045,1.0513 -0.376579,2.2496 -0.412109,3.3985 0.91001,0.5432 2.29357,0.997 3.5,0.9258 1.10333,0.178 1.972993,-0.9644 2.902343,-1.1289 0.60294,-0.4796 -1.446939,-1.1423 -1.255859,-1.8555 0.0349,-1.0686 -0.04381,-2.134 -0.101562,-3.1914 0.642449,-0.3015 0.959645,-0.1182 0.822265,0.7187 -0.0534,0.819 -0.03637,1.782 0.724609,2.1602 0.69822,0.5496 0.743637,1.4965 1.128907,2.3711 0.28934,0.8196 0.01313,1.7589 -0.208985,2.5527 -0.47363,0.5411 -1.728971,0.5711 -1.644531,1.4199 -0.0252,0.6973 0.327501,1.2407 0.207031,1.9766 0.17511,1.0086 2.379159,1.3426 2.261719,-0.2363 0.799,-0.9187 0.944916,-2.2139 1.597656,-3.125 0.21616,-0.7626 0.820508,-1.4658 0.773438,-2.4434 -8.3e-4,-0.7003 10e-4,-1.4014 0,-2.1015 -0.0756,-1.0408 -0.548705,-2.0218 -0.515625,-3.0879 -0.11517,-0.3337 0.7052,1.4978 0.61914,2.0586 0.0131,0.8343 1.398448,2.5986 1.429688,0.7675 0.58748,-0.7629 1.375438,-1.3122 1.142578,-2.4121 l 0,-2.3711 c 0.2163,-0.5372 0.05186,-1.2266 0.103516,-1.832 3e-4,-1.6542 -5.2e-4,-3.3092 0,-4.9629 0.2751,-1.305 1.445268,-2.3663 1.236328,-3.7871 0.19306,-0.9545 -0.612414,-1.6084 -1.339844,-2.0801 -0.78398,-0.5064 -0.443252,0.6446 -0.513672,1.0899 -0.0257,0.7686 0.07754,1.5804 -0.103515,2.2871 0.0683,0.9443 -0.227772,1.7433 -0.513672,2.5937 -0.60533,0.357 -0.798123,0.7218 -0.720703,1.543 0.0131,1.005 -0.0543,2.0421 0.101562,2.9883 0.3299,0.7896 0.190749,1.7576 0.41211,2.5722 -0.10297,0.7521 0.458985,1.6289 0.103515,2.2657 -1.08596,0.6325 -1.137026,-0.8378 -1.441406,-1.545 -0.37177,-0.9618 -0.886098,-2.0813 -1.236328,-2.8828 -0.23995,-1.0175 -0.802915,-2.1609 -1.171875,-3.2988 -0.50084,-1.1194 -0.283291,-2.1794 -0.269532,-3.3281 0.0554,-0.7145 -0.154888,-1.5309 0.201172,-2.125 0.56679,-0.7532 0.640459,-1.7913 0.830078,-2.5723 0.0585,-0.6143 -0.170605,-1.1116 -0.103515,-1.7285 0.0837,-0.6946 -0.09187,-1.2605 -0.515625,-1.668 -0.33232,-0.9753 0.919019,-1.2323 0.412109,-2.1621 -0.17536,-0.9655 -0.580005,-2.1813 -0.103515,-3.0898 0.0854,-0.5127 0.630505,-0.9832 0.103515,-1.543 -0.90164,0.015 -2.011707,0.3314 -2.779297,-0.1562 -0.0567,-0.01 -0.113552,-0.012 -0.169922,-0.01 z m -34.789062,5.3906 0,17.9902 c -2.58e-4,6.9583 5.610158,12.5994 12.53125,12.5997 6.921092,-3e-4 12.531508,-5.6414 12.53125,-12.5997 l 0,-17.9902 z m 0.451172,29.3164 c -0.208661,0.01 -0.407173,0.047 -0.574219,0.1328 -1.155539,0.1091 -1.581889,1.7817 -2.796875,1.4883 -0.987127,-0.5902 -1.445097,1.2106 -0.501953,1.3965 0.424499,0.5354 0.836446,1.1268 1.421875,1.4863 -6.910654,-0.3381 -10.5917966,-1.6113 -10.5917966,-1.6113 0.422784,2.0062 0.635686,3.8614 0,5.0977 0,0 4.8923206,1.6914 13.9921876,1.6914 9.099865,0 19.218507,-1.4551 26.716797,-1.4551 7.498289,0 9.537109,1.4551 9.537109,1.4551 -0.39625,-1.4014 -0.68504,-2.8832 0,-5.0957 0,0 -1.982735,-1.411 -9.208985,-1.4532 0.0802,-0.1193 0.156736,-0.2432 0.228516,-0.3691 0.70833,-0.055 0.07881,-1.0423 -0.146484,-1.3789 -1.2358,1.1112 -1.954986,-0.8195 -3.003906,-1.1328 -0.973551,-0.5611 -3.5124,0.084 -2.47461,1.4336 0.51032,0.5925 0.149381,1.2936 -0.605469,0.7871 -1.1576,-0.3158 -2.510645,0.044 -3.197265,0.8867 -0.17027,-0.5479 -0.706386,-1.2793 -0.947266,-0.3066 -0.33132,0.7594 -0.997552,0.5852 -0.726562,-0.2051 -0.37341,-1.506 -3.194682,-0.4189 -1.675782,0.7461 -0.47109,0.556 -2.604018,0.1001 -1.392578,-0.8633 0.52541,-0.6741 -0.07177,-1.7199 -0.658203,-0.6563 -0.55374,0.4685 -1.03993,2.9592 -1.78125,1.4649 -0.30706,-0.6458 -1.033846,-2.1765 -1.722656,-1.75 0.148388,0.8245 1.202201,2.3388 -0.441406,1.9863 -0.738047,0.2156 -1.059649,-0.3081 -0.357422,-0.6816 0.224766,-1.5101 -2.643897,-1.1629 -2.091797,0.4179 -0.572765,0.4852 -0.690698,-1.6243 -1.509766,-0.5957 -0.326823,1.0968 -0.902675,-0.8345 -1.808594,-0.5351 -0.685507,-0.2922 -2.730761,0.8707 -2.298828,-0.4649 1.199917,-0.9147 -0.25604,-1.9466 -1.382812,-1.916 z m 9.271484,2.8047 -0.0039,0.021 z m 5.615235,0 0.002,0.021 z"
       id="rect4714"
       inkscape:connector-curvature="0"
       sodipodi:nodetypes="cccccccccccccccccccccccccccccccccccccccccccccccccccccccccccscccscccccccccccccccccccccccccccccccccccccccccccccccccccccccccccccccccccccccccccccccccccccccccccccccccccccccccccccccccccccccccccccccccccccccccccccccccccccccccccccccccccccccccccccccccccccccccccccccccccccccccssccccccccccccccccccccccccccccc" />
    <path
       sodipodi:nodetypes="cssccsscc"
       inkscape:connector-curvature="0"
       d="m 616.06331,758.91288 c 0,0 -19.79899,-14.14213 -92.63099,-14.14213 -72.83199,0 -171.11984,14.14213 -259.50818,14.14213 -88.38835,0 -135.89297,-16.43799 -135.89297,-16.43799 6.17451,-12.00861 4.10656,-30.01173 0,-49.49747 0,0 47.50462,16.43799 135.89297,16.43799 88.38834,0 186.67619,-14.14213 259.50818,-14.14213 72.832,0 92.63099,14.14213 92.63099,14.14213 -6.65388,21.48957 -3.84887,35.88497 0,49.49747 z"
       style="fill:none;fill-rule:evenodd;stroke:none;stroke-width:1px;stroke-linecap:butt;stroke-linejoin:miter;stroke-opacity:1"
       id="path4771" />
  </g>
</svg>
