<?xml version="1.0" encoding="UTF-8"?>
<svg xmlns="http://www.w3.org/2000/svg" width="64" height="64" viewBox="0 0 64 64">
  <path fill="#222" fill-rule="evenodd" d="M32.007812 0L12.804688 19.195312l6.398437 6.398438L38.40625 6.3984375 32.007812 0zm12.796876 12.796875l-6.398438 6.398437 19.195312 19.203126L64 32 44.804688 12.796875zM31.992188 19.5c-.893482 0-1.616475.278054-2.171876.832031-.555399.554016-.835937 1.287755-.835937 2.195313 0 1.001899.284042 2.654598.851563 4.964844l.945312 3.859374c.47088 1.909497.743565 3.529321.828125 4.873047h.796875c.15696-1.88595.404108-3.505774.742188-4.873047l.960937-3.859374c.60368-2.45168.90625-4.121774.90625-5.017579 0-.860467-.287628-1.567116-.867187-2.121093-.567482-.565769-1.28689-.853516-2.15625-.853516zM6.3984375 25.601562L0 32l19.203125 19.203125 6.390625-6.398437L6.3984375 25.601562zM44.804688 38.398438L25.601562 57.601562 31.992188 64l19.210937-19.203125-6.398437-6.398437zm-12.773438.359374c-.82104 0-1.518458.279935-2.085938.845704-.567478.56577-.851562 1.247398-.851562 2.037109s.284083 1.461536.851562 2.027344c.579561.553977 1.276938.832031 2.085938.832031.80896 0 1.49502-.278054 2.0625-.832031.57956-.565808.867188-1.237633.867188-2.027344 0-.801503-.287628-1.483131-.867188-2.037109-.56748-.565769-1.25354-.845704-2.0625-.845704z"/>
</svg>
