<?xml version="1.0" encoding="UTF-8"?>
<svg xmlns="http://www.w3.org/2000/svg" width="64" height="64" viewBox="0 0 64 64">
	<path fill="#222" d="M49.023644 2.3460408c-2.178279 2.26802-2.005266 5.61904-2.189166 8.5153302-.247848 3.16608-3.671447 4.73225-5.458814 1.81846-2.272345-1.16979-7.087708-3.0870402-3.767387-6.0098302 1.238676-1.46116 1.624292-2.65615-.662653-2.30385-2.316755.61442-5.008708-2.55058-6.604872-1.01089.671055 1.93294-3.560463.54551-3.974529 3.09203-.499197 2.20239-1.535184 4.1337602-3.750983 2.01584-2.503123-2.23678-4.985831 1.9693602-5.733182 2.7986102.85283 1.32381-2.908828 1.1435-.965421 2.4904-.832249 2.00097-1.931743-3.07195-2.564641-.0215.343281 3.52464-2.840544 6.01028-6.0483663 6.81867-2.8099667.25162-4.5722034 3.22271-6.71320528 3.86955-.8709052-1.03959-.65076233 4.01141-.15615473 5.45802 2.3526384 1.15194-.23378283 4.276 2.2049282 5.62724 1.1838554 2.5866 3.3209792 5.23404 3.16775 8.12926-2.1862024 3.17218 3.6808216 4.56069 5.3432841 2.11072 1.912852-2.35468 5.296836-.5655 7.319076-2.55879 2.039406-2.87437 6.430425-2.89909 9.659943-3.85697 3.369196-.27419 5.443317 1.80034 7.180689 4.09539-.429801 2.59595 1.588245 1.6557 2.096412-.13714.902752-1.06586 2.573881-1.66141 1.268795.22688-.996947.9886-.485155 3.61737.272649 1.10686 2.059665-.86105-.09952 2.62961 2.358847 2.51458-.02347 2.90544 2.293834 4.82963 5.199129 5.16805 2.455994-.57365 4.634414 1.69207 6.822386-.3609 4.329609.005 3.582469-5.21858 6.362151-7.34757 3.677589-3.69191 4.850733-9.22898 4.088895-14.26134-1.855715-1.7468-2.182003-5.42961-4.380975-6.13365-.0605-2.6196-2.088014-4.98372-4.671446-6.25687-.733722-2.38842-1.337559-5.47317-1.685326-8.0953002-4.132252-.3943-1.932987-4.89195-4.017813-7.50127zM48.62375 56.375581c-.892965 2.04344.675237 7.18921 3.696151 4.53406 1.100431-1.98901 1.280056-5.24765-1.923261-3.8001-.630161-.16109-1.113154-.65493-1.77289-.73396z"/>
</svg>
