<?xml version="1.0" encoding="UTF-8"?>
<svg xmlns="http://www.w3.org/2000/svg" width="64" height="64" viewBox="0 0 64 64">
	<path fill="#222" d="M 15.375 0 L 15.375 15.375 L 0 15.375 L 0 16.375 L 15.375 16.375 L 15.375 31.5 L 0 31.5 L 0 32.5 L 15.375 32.5 L 15.375 47.625 L 0 47.625 L 0 48.625 L 15.375 48.625 L 0 64 L 15.375 64 L 16.375 64 L 31.5 64 L 32.5 64 L 47.625 64 L 48.625 64 L 64 64 L 64 48.625 L 64 47.625 L 64 32.5 L 64 31.5 L 64 16.375 L 64 15.375 L 64 0 L 52.869141 11.132812 L 48.626953 15.375 L 48.625 15.375 L 48.625 0 L 47.625 0 L 47.625 15.375 L 32.5 15.375 L 32.5 0 L 31.5 0 L 31.5 15.375 L 16.375 15.375 L 16.375 0 L 15.375 0 z M 16.375 16.375 L 31.5 16.375 L 31.5 31.5 L 16.375 31.5 L 16.375 16.375 z M 32.5 16.375 L 47.625 16.375 L 47.625 16.376953 L 32.501953 31.5 L 32.5 31.5 L 32.5 16.375 z M 50.957031 31.486328 L 50.957031 31.5 L 50.943359 31.5 L 50.957031 31.486328 z M 16.375 32.5 L 31.5 32.5 L 31.5 32.501953 L 16.375 47.625 L 16.375 32.5 z M 49.943359 32.5 L 50.957031 32.5 L 50.957031 47.625 L 48.625 47.625 L 48.625 33.818359 L 49.943359 32.5 z M 47.625 34.818359 L 47.625 47.625 L 34.818359 47.625 L 47.625 34.818359 z M 33.818359 48.625 L 47.625 48.625 L 47.625 50.957031 L 32.5 50.957031 L 32.5 49.943359 L 33.818359 48.625 z M 48.625 48.625 L 50.957031 48.625 L 50.957031 50.957031 L 48.625 50.957031 L 48.625 48.625 z M 31.5 50.943359 L 31.5 50.957031 L 31.486328 50.957031 L 31.5 50.943359 z"/>
</svg>
