<?xml version="1.0" encoding="UTF-8" standalone="no"?>
<!-- Created with Inkscape (http://www.inkscape.org/) -->

<svg
   xmlns:dc="http://purl.org/dc/elements/1.1/"
   xmlns:cc="http://creativecommons.org/ns#"
   xmlns:rdf="http://www.w3.org/1999/02/22-rdf-syntax-ns#"
   xmlns:svg="http://www.w3.org/2000/svg"
   xmlns="http://www.w3.org/2000/svg"
   xmlns:sodipodi="http://sodipodi.sourceforge.net/DTD/sodipodi-0.dtd"
   xmlns:inkscape="http://www.inkscape.org/namespaces/inkscape"
   id="svg2"
   sodipodi:version="0.32"
   inkscape:version="0.91 r13725"
   width="64"
   height="64"
   version="1.0"
   sodipodi:docname="restrict-aus-reserve.svg">
  <metadata
     id="metadata7">
    <rdf:RDF>
      <cc:Work
         rdf:about="">
        <dc:format>image/svg+xml</dc:format>
        <dc:type
           rdf:resource="http://purl.org/dc/dcmitype/StillImage" />
        <dc:title></dc:title>
      </cc:Work>
    </rdf:RDF>
  </metadata>
  <defs
     id="defs5" />
  <sodipodi:namedview
     inkscape:window-height="1018"
     inkscape:window-width="1920"
     inkscape:pageshadow="2"
     inkscape:pageopacity="0.0"
     guidetolerance="10.0"
     gridtolerance="10.0"
     objecttolerance="10.0"
     borderopacity="1.0"
     bordercolor="#666666"
     pagecolor="#ffffff"
     id="base"
     inkscape:zoom="2.8664436"
     inkscape:cx="66.338087"
     inkscape:cy="134.03511"
     inkscape:window-x="-8"
     inkscape:window-y="-8"
     inkscape:current-layer="svg2"
     showgrid="false"
     inkscape:window-maximized="1" />
  <path
     style="opacity:1;fill:#333333;fill-opacity:1;stroke:none;stroke-width:1;stroke-linecap:round;stroke-linejoin:round;stroke-miterlimit:4;stroke-dasharray:none;stroke-opacity:1"
     d="m 49.023644,2.3460408 c -2.178279,2.26802 -2.005266,5.61904 -2.189166,8.5153302 -0.247848,3.16608 -3.671447,4.73225 -5.458814,1.81846 -2.272345,-1.16979 -7.087708,-3.0870402 -3.767387,-6.0098302 1.238676,-1.46116 1.624292,-2.65615 -0.662653,-2.30385 -2.316755,0.61442 -5.008708,-2.55058 -6.604872,-1.01089 0.671055,1.93294 -3.560463,0.54551 -3.974529,3.09203 -0.499197,2.20239 -1.535184,4.1337602 -3.750983,2.01584 -2.503123,-2.23678 -4.985831,1.9693602 -5.733182,2.7986102 0.85283,1.32381 -2.908828,1.1435 -0.965421,2.4904 -0.832249,2.00097 -1.931743,-3.07195 -2.564641,-0.0215 0.343281,3.52464 -2.840544,6.01028 -6.0483663,6.81867 -2.8099667,0.25162 -4.5722034,3.22271 -6.71320528,3.86955 -0.87090519,-1.03959 -0.65076233,4.01141 -0.15615473,5.45802 2.35263841,1.15194 -0.23378281,4.276 2.20492821,5.62724 1.1838554,2.5866 3.3209792,5.23404 3.16775,8.12926 -2.1862024,3.17218 3.6808216,4.56069 5.3432841,2.11072 1.912852,-2.35468 5.296836,-0.5655 7.319076,-2.55879 2.039406,-2.87437 6.430425,-2.89909 9.659943,-3.85697 3.369196,-0.27419 5.443317,1.80034 7.180689,4.09539 -0.429801,2.59595 1.588245,1.6557 2.096412,-0.13714 0.902752,-1.06586 2.573881,-1.66141 1.268795,0.22688 -0.996947,0.9886 -0.485155,3.61737 0.272649,1.10686 2.059665,-0.86105 -0.09952,2.62961 2.358847,2.51458 -0.02347,2.90544 2.293834,4.82963 5.199129,5.16805 2.455994,-0.57365 4.634414,1.69207 6.822386,-0.3609 4.329609,0.005 3.582469,-5.21858 6.362151,-7.34757 3.677589,-3.69191 4.850733,-9.22898 4.088895,-14.26134 -1.855715,-1.7468 -2.182003,-5.42961 -4.380975,-6.13365 -0.0605,-2.6196 -2.088014,-4.98372 -4.671446,-6.25687 -0.733722,-2.38842 -1.337559,-5.47317 -1.685326,-8.0953002 -4.132252,-0.3943 -1.932987,-4.89195 -4.017813,-7.50127 z M 48.62375,56.375581 c -0.892965,2.04344 0.675237,7.18921 3.696151,4.53406 1.100431,-1.98901 1.280056,-5.24765 -1.923261,-3.8001 -0.630161,-0.16109 -1.113154,-0.65493 -1.77289,-0.73396 z"
     id="path1893"
     inkscape:connector-curvature="0" />
</svg>
