<?xml version="1.0" encoding="UTF-8"?>
<svg xmlns="http://www.w3.org/2000/svg" width="64" height="64" viewBox="0 0 64 64">
	<path fill="#222" d="M30.296874 0c-.04069.001-.08154.007-.125.0156-.315204-.0277-1.217087.4266-.728516.64843.62224-.0875 1.126644.20414 1.265625.82032.427386.42488.431869 1.24839-.283203 1.36132-.614351.12636-1.179413-.26943-1.773437-.36718-.363784-.59013.886966-.63829.677734-1.16602-.28344-.54084-1.280321-.79387-1.441406-.0273-.235667.57232-.217269 1.26908-.703125 1.71679-.40728.51428-.334432 1.22011-.837891 1.60157-.05457.71013.85887.67027 1.1875 1.1289.34661.39899.813903 1.00168 1.41211.70117.696425-.32188.389565-1.24491.902343-1.67968.748122-.55621.28792.79157.511719.95507.371463-.0265.964298-.11485.773438.4668.26092.45174.103735.5578-.81836 1.16016-.498207-.58208-1.488665-.0994-1.335937.14453.507752.16331 2.102392-.30347 2.101562.47266-.209075.71448-1.087783.8077-1.689453.57031-.621086-.10983-1.236557-.26999-1.871094-.26563-.653149-.0453-1.280407.32965-1.660156.84375-.156103.58902-.737018 1.30845-.265625 1.87891.705494.31244 1.012405-.67529 1.572266-.89844.612268-.33695 1.36117-.2437 2.037109-.28515.673686-.009 1.343992-.0147 2.007813.10351.26244.0156.524409.0257.787109.0332.26269-.008.524669-.0176.787109-.0332.66382-.11826 1.334133-.11211 2.007813-.10351.67594.0415 1.424839-.0518 2.037109.28515.55986.22315.866776 1.21088 1.572266.89844.4714-.57046-.109525-1.28989-.265625-1.87891-.37975-.5141-1.007006-.8891-1.660156-.84375-.63454-.004-1.250014.1558-1.871094.26563-.60167.23739-1.480373.14417-1.689453-.57031-.00082-.77613 1.593802-.30935 2.101562-.47266.15272-.24397-.837737-.72661-1.335937-.14453-.9221-.60236-1.07928-.70842-.81836-1.16016-.19086-.58165.401968-.49327.773438-.4668.22379-.1635-.236401-1.51128.511719-.95507.51278.43477.205923 1.3578.902343 1.67968.59821.30051 1.0655-.30218 1.41211-.70117.32863-.45863 1.24207-.41877 1.1875-1.1289-.50346-.38146-.430611-1.08729-.837891-1.60157-.48586-.44771-.467455-1.14447-.703125-1.71679-.16109-.76649-1.157966-.51346-1.441406.0273-.20923.52773 1.041524.57589.677734 1.16602-.59402.0978-1.159077.49354-1.773437.36718-.71507-.11293-.710593-.93644-.283203-1.36132.13898-.61618.643385-.9078 1.265625-.82032.48857-.22183-.413306-.67615-.728516-.64843-.0435-.009-.08433-.0144-.125-.0156-.6104-.0175-.922485.76262-1.328125 1.13477-.0837.0981-.169262.19734-.232422.31054-.0389.13039-.08772.25492-.142578.37696-.0549-.12204-.103688-.24657-.142578-.37696-.0632-.1132-.148702-.21247-.232422-.31054C31.219349.76262 30.907273-.01754 30.296874 0zm2.212891 11.51758c-1.719877.031-3.463125.78216-4.814454 2.50196-2.402364 3.0576-.436266 2.7681.728516 4.2969 1.164783 1.5288 1.238115 4.7311-.07227 5.9687 0 0 3.785324-3.7123 5.095704-3.7851 1.31038-.073 3.05664 1.5293 3.05664 1.5293s-.799537-2.1126-.435547-3.2774c.364-1.1648 2.76671-4.4408.21875-6.1152-1.11474-.7325-2.439663-1.14346-3.777339-1.11916zm-9.404297.10156c-.187249-.013-.39179.1247-.63086.5117-.974248-.062-1.693623-.3922-2.707031-.025-1.61622-.2711-2.537769 1.201-3.314453 2.3516-.257674.9897.710242 1.623 1.582031 1.5351.17636-.1364.379171-.2201.625-.2148.01323-.01.02612-.014.03906-.023 1.092458-.5424-.188462-2.9675 1.603515-2.2754.530317.7464.159796 3.3126-1.220703 2.3847-.155032-.057-.293465-.081-.421875-.084-.187735.1217-.403164.1904-.625.2128-.584786.4522-.889144 1.4829-1.585937 1.7657-1.152591.9772.17866 2.2117.18164 3.3457.02578 1.4209 1.537347 2.6449 2.921875 2.1054 1.545371-.068 2.054799-1.6373.609375-2.3652-.68514-.9509-1.825208-1.3752-2.605468-2.2168 1.696983-.4335 3.125581.8578 4.662109 1.2754 1.915904.2027 4.129292-1.5555 3.636719-3.6094.120042-1.2257-1.446204-1.9898-.992188-3.3144-.124044-.082-.27685.023-.378906.084-.535029-.3843-.900379-1.4089-1.378906-1.4434zm17.789062 0c-.47852.035-.843876 1.0591-1.378906 1.4434-.10206-.061-.252903-.1665-.376953-.084.45402 1.3246-1.114191 2.0869-.994141 3.3125-.49258 2.0539 1.720819 3.8121 3.636719 3.6094 1.53653-.4175 2.965129-1.7089 4.662109-1.2754-.78026.8416-1.920328 1.2678-2.605468 2.2187-1.44543.7278-.935995 2.2969.609375 2.3652 1.38453.5395 2.896095-.6845 2.921875-2.1054.003-1.1341 1.33423-2.3685.18164-3.3457-.69679-.2828-1.001147-1.3135-1.585937-1.7657-.22181-.022-.43729-.091-.625-.2128-.12838 0-.266885.028-.421875.084-1.3805.9279-1.751023-1.6403-1.220703-2.3867 1.79197-.6921.511055 1.7331 1.603515 2.2754.0129.01.02586.017.03906.025.24588 0 .44862.078.625.2148.87183.088 1.839721-.5454 1.582031-1.5351-.77669-1.1506-1.698233-2.6227-3.314453-2.3516-1.01341-.3668-1.732791-.038-2.707031.025-.23907-.387-.44361-.5252-.63086-.5117zm-31.1523432 7.9922c-.05637 0-.1131729 0-.1699219.012-.767592.4876-1.8776619.1693-2.7792968.1543-.526991.5599.018153 1.0304.1035156 1.543.476483.9085.071837 2.1244-.1035156 3.0898-.5069151.9299.7444243 1.1868.4121093 2.1621-.423725.4076-.599294.9754-.515625 1.6699.06709.6169-.1619966 1.1122-.1035156 1.7266.189613.781.2632861 1.8192.8300781 2.5723.356055.5942.1457549 1.4106.2011719 2.125.01376 1.1488.2313037 2.2088-.2695313 3.3281-.3689619 1.1379-.931921 2.2813-1.171875 3.2988-.350233.8015-.8645611 1.9211-1.2363281 2.8828-.30438.7073-.3554392 2.1776-1.4414062 1.545-.355469-.6368.2064886-1.5137.1035156-2.2657.221362-.8147.082206-1.7825.4121094-2.5722.155876-.9462.088449-1.9833.1015625-2.9883.07742-.8212-.1153751-1.186-.7207032-1.543-.2858999-.8505-.5819948-1.6494-.5136718-2.5937-.181056-.7068-.077852-1.5185-.1035156-2.2871-.07043-.4454.2703151-1.5963-.5136719-1.0899-.727423.4717-1.53289873 1.1256-1.33984374 2.0801-.208933 1.4207.96122604 2.4841 1.23632804 3.7891.0005151 1.6538-.0003089 3.3068 0 4.9609.05162.6055-.1127863 1.2967.1035157 1.834v2.3691c-.232857 1.0999.5550971 1.6492 1.1425781 2.4121.03123 1.8311 1.4165995.066 1.4296875-.7675-.08606-.5608.7343096-2.3923.6191406-2.0586.03308 1.066-.44006 2.047-.515625 3.0879-.0012.7.000824 1.4012 0 2.1015-.04707.9775.5572765 1.6807.7734375 2.4434.652736.911.7986533 2.2062 1.5976563 3.125-.117441 1.5789 2.0866117 1.2449 2.2617187.2363-.120464-.7358.2321903-1.2793.2070313-1.9766.08444-.8487-1.1709063-.8789-1.6445313-1.4199-.222088-.7938-.4983164-1.7331-.2089844-2.5527.3852741-.8746.4306923-1.8215 1.1289063-2.3711.760971-.3781.7780174-1.3412.7246094-2.1602-.137382-.8369.1798169-1.0203.8222648-.7187-.05779 1.0574-.136471 2.1228-.101562 3.1914.191083.7133-1.8587981 1.3759-1.2558591 1.8555.9293521.1644 1.7990101 1.3069 2.9023431 1.1289 1.206434.071 2.589995-.3827 3.5-.9258-.03553-1.1489.168333-2.3471-.412109-3.3985-.518649-1.4264-.734659 1.001-1.853516.3106-.686734-.3867-1.104652-.6728-.925781-1.5469-.04448-.9927.102019-2.0299-.103516-2.9844-.152347-1.0207-1.792506-.9946-2.6757805-1.1328-.99826.4428-.4834648-1.0776-.5292968-.9804.698842-1.2142 1.3435223-2.5838 2.1757813-3.6524.459306.3439 1.18061 1.1954 1.902343 1.5313.689353.8356 2.046041 1.0485 2.763672.1875.693022-.5379 1.117333-1.9043 1.431641-2.1114 1.016265-.3304.603363-1.8461-.332031-1.9746.837391-1.1146-.745831-1.3723-1.337891-1.6465-.447821.07-2.044117-.7848-1.75-.8242.599062-.4018-.108376-.8386.101562-1.6465.205224-1.1155 1.591808-1.0022 2.472657-1.5449 1.475058-.8679-1.063903-2.4262.617187-3.0898.101345-.8118-.571281-.8426-.720703-1.3379.08615-.5934-.112507-1.0661-.308594-1.543-.87979-1.3253-1.257159.1712-1.558593 1.0117-.362047 1.1584-.853314 2.5222-1.736328 3.3106-.197982.916-1.202798 2.0564-1.75.9277.225607-1.0505.126466-1.6997-.925782-1.914-.2818291-.4122-.2863098-1.3068-.103515-1.6895.549521-.6725 1.475205-.5621 1.955078-1.2363.704791-.3046.746429-1.8216 0-1.8516-.655955-.4626-1.455227-1.5818-2.3007812-1.6074zm44.5156242 0c-.84555.026-1.644831 1.143-2.300781 1.6055-.74643.03-.7048 1.5489 0 1.8535.47987.6742 1.405558.5638 1.955078 1.2363.18279.3828.178315 1.2773-.103515 1.6895-1.05225.2143-1.151382.8635-.925782 1.914-.547199 1.1287-1.55202-.012-1.75-.9277-.883009-.7883-1.374278-2.1521-1.736328-3.3106-.30143-.8404-.678803-2.339-1.558593-1.0136-.19609.4769-.394744.9514-.308594 1.5449-.14943.4952-.822043.526-.720703 1.3379 1.68109.6636-.857863 2.2218.617187 3.0898.88085.5426 2.267437.4275 2.472657 1.543.20994.8079-.497498 1.2466.101562 1.6484.29412.039-1.30218.8947-1.75.8242-.59206.2742-2.175281.5319-1.337891 1.6465-.9354.1284-1.348301 1.6441-.332031 1.9746.31431.207.738621 1.5735 1.431641 2.1114.71763.8611 2.074322.6462 2.763672-.1895.72174-.3358 1.443033-1.1853 1.902343-1.5293.83125 1.0673 1.475968 2.4335 2.173828 3.6465-.0124.0005.439717 1.4152-.527343.9863-.88328.1381-2.523441.112-2.675781 1.1328-.20554.9545-.05906 1.9918-.103516 2.9844.17887.8741-.239041 1.1582-.925781 1.5449-1.11885.6904-1.334876-1.7351-1.853516-.3086-.58045 1.0513-.376579 2.2496-.412109 3.3985.91001.5432 2.29357.997 3.5.9258 1.10333.178 1.972993-.9644 2.902343-1.1289.60294-.4796-1.446939-1.1423-1.255859-1.8555.0349-1.0686-.04381-2.134-.101562-3.1914.642449-.3015.959645-.1182.822265.7187-.0534.819-.03637 1.782.724609 2.1602.69822.5496.743637 1.4965 1.128907 2.3711.28934.8196.01313 1.7589-.208985 2.5527-.47363.5411-1.728971.5711-1.644531 1.4199-.0252.6973.327501 1.2407.207031 1.9766.17511 1.0086 2.379159 1.3426 2.261719-.2363.799-.9187.944916-2.2139 1.597656-3.125.21616-.7626.820508-1.4658.773438-2.4434-.00083-.7003.001-1.4014 0-2.1015-.0756-1.0408-.548705-2.0218-.515625-3.0879-.11517-.3337.7052 1.4978.61914 2.0586.0131.8343 1.398448 2.5986 1.429688.7675.58748-.7629 1.375438-1.3122 1.142578-2.4121v-2.3711c.2163-.5372.05186-1.2266.103516-1.832.0003-1.6542-.00052-3.3092 0-4.9629.2751-1.305 1.445268-2.3663 1.236328-3.7871.19306-.9545-.612414-1.6084-1.339844-2.0801-.78398-.5064-.443252.6446-.513672 1.0899-.0257.7686.07754 1.5804-.103515 2.2871.0683.9443-.227772 1.7433-.513672 2.5937-.60533.357-.798123.7218-.720703 1.543.0131 1.005-.0543 2.0421.101562 2.9883.3299.7896.190749 1.7576.41211 2.5722-.10297.7521.458985 1.6289.103515 2.2657-1.08596.6325-1.137026-.8378-1.441406-1.545-.37177-.9618-.886098-2.0813-1.236328-2.8828-.23995-1.0175-.802915-2.1609-1.171875-3.2988-.50084-1.1194-.283291-2.1794-.269532-3.3281.0554-.7145-.154888-1.5309.201172-2.125.56679-.7532.640459-1.7913.830078-2.5723.0585-.6143-.170605-1.1116-.103515-1.7285.0837-.6946-.09187-1.2605-.515625-1.668-.33232-.9753.919019-1.2323.412109-2.1621-.17536-.9655-.580005-2.1813-.103515-3.0898.0854-.5127.630505-.9832.103515-1.543-.90164.015-2.011707.3314-2.779297-.1562-.0567-.01-.113552-.012-.169922-.01zm-34.789062 5.3906v17.9902c-.000258 6.9583 5.610158 12.5994 12.53125 12.5997 6.921092-.0003 12.531508-5.6414 12.53125-12.5997v-17.9902zm.451172 29.3164c-.208661.01-.407173.047-.574219.1328-1.155539.1091-1.581889 1.7817-2.796875 1.4883-.987127-.5902-1.445097 1.2106-.501953 1.3965.424499.5354.836446 1.1268 1.421875 1.4863-6.910654-.3381-10.5917966-1.6113-10.5917966-1.6113.422784 2.0062.635686 3.8614 0 5.0977 0 0 4.8923206 1.6914 13.9921876 1.6914 9.099865 0 19.218507-1.4551 26.716797-1.4551 7.498289 0 9.537109 1.4551 9.537109 1.4551-.39625-1.4014-.68504-2.8832 0-5.0957 0 0-1.982735-1.411-9.208985-1.4532.0802-.1193.156736-.2432.228516-.3691.70833-.055.07881-1.0423-.146484-1.3789-1.2358 1.1112-1.954986-.8195-3.003906-1.1328-.973551-.5611-3.5124.084-2.47461 1.4336.51032.5925.149381 1.2936-.605469.7871-1.1576-.3158-2.510645.044-3.197265.8867-.17027-.5479-.706386-1.2793-.947266-.3066-.33132.7594-.997552.5852-.726562-.2051-.37341-1.506-3.194682-.4189-1.675782.7461-.47109.556-2.604018.1001-1.392578-.8633.52541-.6741-.07177-1.7199-.658203-.6563-.55374.4685-1.03993 2.9592-1.78125 1.4649-.30706-.6458-1.033846-2.1765-1.722656-1.75.148388.8245 1.202201 2.3388-.441406 1.9863-.738047.2156-1.059649-.3081-.357422-.6816.224766-1.5101-2.643897-1.1629-2.091797.4179-.572765.4852-.690698-1.6243-1.509766-.5957-.326823 1.0968-.902675-.8345-1.808594-.5351-.685507-.2922-2.730761.8707-2.298828-.4649 1.199917-.9147-.25604-1.9466-1.382812-1.916zm9.271484 2.8047l-.0039.021zm5.615235 0l.002.021z"/>
	<path fill="none" d="M616.06331-229.44928s-19.79899-14.14213-92.63099-14.14213c-72.83199 0-171.11984 14.14213-259.50818 14.14213-88.38835 0-135.89297-16.43799-135.89297-16.43799 6.17451-12.00861 4.10656-30.01173 0-49.49747 0 0 47.50462 16.43799 135.89297 16.43799 88.38834 0 186.67619-14.14213 259.50818-14.14213 72.832 0 92.63099 14.14213 92.63099 14.14213-6.65388 21.48957-3.84887 35.88497 0 49.49747z"/>
</svg>
