<?xml version="1.0" encoding="UTF-8" standalone="no"?>
<!-- Created with Inkscape (http://www.inkscape.org/) -->

<svg
   xmlns:dc="http://purl.org/dc/elements/1.1/"
   xmlns:cc="http://creativecommons.org/ns#"
   xmlns:rdf="http://www.w3.org/1999/02/22-rdf-syntax-ns#"
   xmlns:svg="http://www.w3.org/2000/svg"
   xmlns="http://www.w3.org/2000/svg"
   xmlns:sodipodi="http://sodipodi.sourceforge.net/DTD/sodipodi-0.dtd"
   xmlns:inkscape="http://www.inkscape.org/namespaces/inkscape"
   id="svg2"
   sodipodi:version="0.32"
   inkscape:version="0.91 r13725"
   width="64"
   height="64"
   version="1.0"
   sodipodi:docname="restrict-fan-art.svg">
  <metadata
     id="metadata7">
    <rdf:RDF>
      <cc:Work
         rdf:about="">
        <dc:format>image/svg+xml</dc:format>
        <dc:type
           rdf:resource="http://purl.org/dc/dcmitype/StillImage" />
        <dc:title />
      </cc:Work>
    </rdf:RDF>
  </metadata>
  <defs
     id="defs5" />
  <sodipodi:namedview
     inkscape:window-height="1018"
     inkscape:window-width="1920"
     inkscape:pageshadow="2"
     inkscape:pageopacity="0.0"
     guidetolerance="10.0"
     gridtolerance="10.0"
     objecttolerance="10.0"
     borderopacity="1.0"
     bordercolor="#666666"
     pagecolor="#ffffff"
     id="base"
     inkscape:zoom="1"
     inkscape:cx="-116.54628"
     inkscape:cy="22.407136"
     inkscape:window-x="-8"
     inkscape:window-y="-8"
     inkscape:current-layer="svg2"
     showgrid="false"
     inkscape:window-maximized="1" />
  <path
     style="fill:#333333;fill-opacity:1;fill-rule:evenodd;stroke:none;stroke-width:1px;stroke-linecap:butt;stroke-linejoin:miter;stroke-opacity:1"
     d="M 21.144531 2.0078125 C 20.375138 2.0286607 19.715558 2.5874788 19.558594 3.3808594 L 8.8789062 41.908203 C 8.5273306 43.685241 9.7508894 45.380542 11.535156 45.693359 C 13.319423 46.006176 15.046404 44.827761 15.320312 43.037109 L 22.828125 3.953125 C 22.968264 3.0369376 22.384565 2.192051 21.478516 2.0332031 C 21.36526 2.0133471 21.254445 2.0048342 21.144531 2.0078125 z M 39.574219 9.6582031 C 38.413934 9.6819391 37.205021 9.8232514 35.941406 10.103516 C 30.796288 11.244682 25.402211 13.453984 21.197266 17.824219 L 16.324219 43.193359 C 16.154493 44.294703 15.542153 45.196295 14.724609 45.828125 C 15.173946 46.64384 15.382359 47.682625 15.273438 49.058594 C 19.083163 58.755174 28.459128 61.992188 33.566406 61.992188 C 40.326417 61.992188 55.856873 58.885698 54.943359 50.664062 C 54.029843 42.442426 45.99078 40.614278 46.904297 36.412109 C 47.817811 32.209939 56.405767 39.702781 59.511719 40.433594 C 62.61767 41.164405 67.549418 29.289652 60.058594 21.798828 C 53.504122 15.244357 47.696226 9.4920508 39.574219 9.6582031 z M 39.921875 12.943359 C 41.211823 12.921539 42.558077 13.5727 43.521484 14.681641 C 45.133647 16.536328 45.216383 19.103825 43.705078 20.417969 C 42.193197 21.731672 39.658903 21.292543 38.046875 19.4375 C 36.434713 17.582812 36.351976 15.013362 37.863281 13.699219 C 38.414862 13.219654 39.134387 12.956922 39.921875 12.943359 z M 28.953125 18.037109 C 30.322004 18.086289 31.723423 18.658014 32.863281 19.628906 C 35.282904 21.69055 35.883641 24.959965 34.203125 26.931641 C 32.522769 28.902896 29.198309 28.829138 26.779297 26.767578 C 24.361006 24.706294 23.762344 21.438374 25.441406 19.466797 C 26.263465 18.501881 27.5311 17.985827 28.953125 18.037109 z M 22.482422 30.089844 C 23.251233 30.072484 24.045803 30.256191 24.771484 30.615234 C 26.864189 31.649232 27.877583 33.868576 27.035156 35.574219 C 26.192431 37.28033 23.811821 37.825808 21.71875 36.791016 C 19.625563 35.75644 18.61315 33.533674 19.457031 31.828125 C 19.976644 30.776927 21.116331 30.12147 22.482422 30.089844 z M 23.628906 43.203125 C 23.715746 43.206325 23.802082 43.212513 23.888672 43.220703 C 25.918949 43.408617 27.440541 44.903985 27.287109 46.558594 C 27.133462 48.213023 25.362042 49.399583 23.332031 49.210938 C 21.302253 49.022486 19.782067 47.529238 19.935547 45.875 C 20.081445 44.302998 21.694532 43.135892 23.628906 43.203125 z M 8.90625 44.955078 C 7.8112365 45.499197 6.6835283 46.46167 5.7285156 47.861328 C 3.7306628 50.789362 6.7680788 52.868065 5.0566406 56.279297 C 3.3452022 59.690528 0 61.828125 0 61.828125 C 0 61.828125 11.10072 59.1946 13.306641 52.962891 C 14.649869 49.168289 14.493523 47.260864 13.810547 46.148438 C 13.079812 46.484105 12.243754 46.610748 11.400391 46.462891 C 10.376207 46.283331 9.5085193 45.719585 8.90625 44.955078 z "
     id="path4152" />
</svg>
