<?xml version="1.0" encoding="UTF-8"?>
<svg xmlns="http://www.w3.org/2000/svg" width="64" height="64" viewBox="0 0 64 64">
	<path fill="#222" d="M34.923387.06109857c-.539421-.071278-1.103342.1571576-1.744493.8002572-1.29704 1.30098253-1.765091 3.16431703-1.483321 5.12298503L5.6721461 32.068038c-1.864574-.200093-3.625001.276223-4.8651619 1.520154-2.5645993 2.572397 1.5090073 3.916636 4.8752064 7.272628l5.2234364 5.206695c3.3662 3.355994 4.711379 7.417468 7.275979 4.845071 1.243922-1.247703 1.717366-3.01835 1.50676-4.888599l10.794111-10.819975c13.061005 14.524857 16.599826 17.1314 25.407356 26.958003.0555.06185.11614.125308.175807.184052 1.849627 1.8208 5.628272 2.136367 7.037884.722468 1.455083-1.459508 1.133496-5.374528-.925745-7.210948-9.848235-8.782568-12.546801-12.23035-27.106073-25.254693l10.861079-10.886943c1.772088.132278 3.435511-.341377 4.62073-1.530199 2.564599-2.572396-1.509008-3.916634-4.875206-7.272631l-5.223437-5.2066933C37.930225 3.1894304 36.541651.27493007 34.923387.06109857z"/>
</svg>
