<?xml version="1.0" encoding="UTF-8"?>
<svg xmlns="http://www.w3.org/2000/svg" width="64" height="64" viewBox="0 0 64 64">
	<path fill="#222" d="M30.689453.31835938c-6.127736-.13452-11.904324 3.46878442-14.574219 8.83398442l-3.205078-.6464844-1.65625 2.3359376 3.917969.789062c-.157339.4131-.243988.840098-.330078 1.267579-.08614.427459-.172649.855054-.1875 1.296874l-2.777344-.560546-1.65625 2.335937 4.345703.875c.460924 6.91322 5.546912 13.127556 12.564453 14.541016 3.88281.78206 7.825169-.017945 11.070313-1.958985l.748047-3.705078c-2.982452 2.6612-7.134949 3.93906-11.302735 3.09961-5.699533-1.14799-9.817126-5.908593-10.408203-11.439454l17.345703 3.496094 1.658204-2.335937-19.023438-3.832031c.01486-.441811.101449-.867462.1875-1.294922.07174-.35621.172738-.856422.330078-1.269532l20.16211 4.0625 1.65625-2.335937-20.767579-4.1835939c2.636188-4.8067 8.254609-7.677945 14.025391-6.515625 4.48838.90404 7.499729 3.6246157 9.226562 7.1972659l1.650391-2.3007815C41.478261 4.3259625 37.818462 1.513415 33.330078.609375 32.44843.431805 31.56484.33757938 30.689453.31835938zM48.142578 27.070312c-.91584.0156-1.870924.150407-2.865234.404297-2.578262.65843-4.599766 1.900353-6.06836 3.726563-1.818292 2.29008-2.340597 4.958859-1.5625 8.005859.183309.71784.437231 1.437463.761719 2.158203.32451.72079.937431 1.838229 1.839844 3.355469l-3.382813.863281.830078 3.253907 4.306641-1.09961c.48471.85932.840169 1.735316 1.068359 2.628907.531212 2.08019.491907 3.968529-.121093 5.662109-.61303 1.69358-1.522409 3.106657-2.730469 4.242187l2.486328 3.414063c.82063-.88055 1.780469-1.655062 2.88086-2.326172 1.10038-.67111 2.177661-1.140806 3.232421-1.410156.6885-.17582 1.392879-.292923 2.111329-.351563.46192-.0244 1.501703.001978 3.121093.080078 1.61937.0777 2.636531.101919 3.050781.074219.65983-.0436 1.298793-.143651 1.914063-.300781.73245-.18703 1.443762-.463425 2.138672-.828125.69486-.3647 1.643853-1.004432 2.845703-1.919922l-2.201172-3.300781c-1.51913 1.26179-2.820287 2.031763-3.904297 2.308594-.89363.22819-2.676599.363409-5.349609.40625-1.61704.0229-3.032177.191463-4.248047.501953-.95221.24316-1.967979.671242-3.042969 1.289062 1.01384-1.83495 1.643592-3.539004 1.888672-5.115234.24506-1.5762.2063-3.002854-.11914-4.277344-.16461-.64455-.46918-1.252672-.91211-1.826172l6.240234-1.59375-.830078-3.251953-6.921875 1.765625c-1.504632-2.40895-2.463666-4.426644-2.878906-6.052734-.377826-1.47953-.162766-2.878762.646485-4.201172.809229-1.32233 2.026273-2.190199 3.652343-2.605469 1.52351-.38902 2.959104-.218408 4.308594.513672 1.34947.73212 2.360637 1.948641 3.029297 3.65039l3.78125-1.597656c-1.0689-2.53581-2.650651-4.312008-4.744141-5.330078-1.30845-.63624-2.725543-.941906-4.251953-.916016zm-34.988281 1.003907l-.740235 3.626953c-1.527158-.31142-8.7807538.156127-10.0039058 6.154297-1.088118 5.33597 3.5713513 7.803078 6.9101563 8.980469l-1.2226563 6.03125c-2.3684429-1.20026-2.4489-3.15042-2.484375-4.75586L.10546875 46.988281c-.8828 6.07058 4.03201755 9.978072 6.94531245 11.013672l-.7519531 3.689453 5.2343749 1.066406.740235-3.630859c4.188291.63331 9.799705-1.809764 10.761718-6.527344 1.101802-5.4031-3.474524-7.933872-7.554687-9.195312l1.126953-5.527344c1.615749.44579 2.574737 2.271155 2.388672 3.890625l5.455078 1.111328c1.093014-5.35999-3.404356-9.213384-6.857422-10.121094l.740234-3.628906-5.179687-1.054687zm-1.767578 8.792969l-.933594 4.580078c-3.679987-.80859-2.9591802-4.711748.933594-4.580078zm3.058593 11.908203c4.545226 1.04318 4.16158 5.532495-1.0625 5.197265l1.0625-5.197265z"/>
</svg>
