<?xml version="1.0" encoding="UTF-8" standalone="no"?>
<!-- Created with Inkscape (http://www.inkscape.org/) -->

<svg
   xmlns:dc="http://purl.org/dc/elements/1.1/"
   xmlns:cc="http://creativecommons.org/ns#"
   xmlns:rdf="http://www.w3.org/1999/02/22-rdf-syntax-ns#"
   xmlns:svg="http://www.w3.org/2000/svg"
   xmlns="http://www.w3.org/2000/svg"
   xmlns:sodipodi="http://sodipodi.sourceforge.net/DTD/sodipodi-0.dtd"
   xmlns:inkscape="http://www.inkscape.org/namespaces/inkscape"
   width="64"
   height="64"
   id="svg2165"
   sodipodi:version="0.32"
   inkscape:version="0.91 r13725"
   sodipodi:docname="restrict-currency.svg"
   inkscape:output_extension="org.inkscape.output.svg.inkscape"
   version="1.0">
  <defs
     id="defs2167">
    <marker
       viewBox="0 0 10 10"
       refY="5"
       refX="10"
       orient="auto"
       markerWidth="4"
       markerUnits="strokeWidth"
       markerHeight="3"
       id="ArrowStart">
      <path
         id="path3257"
         d="M 10,0 0,5 10,10 10,0 Z"
         inkscape:connector-curvature="0" />
    </marker>
    <marker
       viewBox="0 0 10 10"
       refY="5"
       refX="0"
       orient="auto"
       markerWidth="4"
       markerUnits="strokeWidth"
       markerHeight="3"
       id="ArrowEnd">
      <path
         id="path3254"
         d="M 0,0 10,5 0,10 0,0 Z"
         inkscape:connector-curvature="0" />
    </marker>
  </defs>
  <sodipodi:namedview
     id="base"
     pagecolor="#ffffff"
     bordercolor="#666666"
     borderopacity="1.0"
     gridtolerance="10000"
     guidetolerance="10"
     objecttolerance="10"
     inkscape:pageopacity="0.0"
     inkscape:pageshadow="2"
     inkscape:zoom="2.8284271"
     inkscape:cx="-47.049723"
     inkscape:cy="-6.8468346"
     inkscape:document-units="px"
     inkscape:current-layer="layer1"
     inkscape:window-width="1920"
     inkscape:window-height="1018"
     inkscape:window-x="-8"
     inkscape:window-y="-8"
     showguides="true"
     inkscape:guide-bbox="true"
     width="600px"
     height="635px"
     showgrid="false"
     inkscape:snap-bbox="true"
     inkscape:bbox-nodes="true"
     inkscape:snap-page="true"
     inkscape:window-maximized="1" />
  <metadata
     id="metadata2170">
    <rdf:RDF>
      <cc:Work
         rdf:about="">
        <dc:format>image/svg+xml</dc:format>
        <dc:type
           rdf:resource="http://purl.org/dc/dcmitype/StillImage" />
        <dc:title />
      </cc:Work>
    </rdf:RDF>
  </metadata>
  <g
     inkscape:label="Layer 1"
     inkscape:groupmode="layer"
     id="layer1"
     transform="translate(-56.410688,-689.47454)">
    <path
       style="font-style:normal;font-weight:normal;font-size:844px;font-family:'Agfa Rotis Semisans';fill:#333333;fill-opacity:1;stroke:none;stroke-width:1px;stroke-linecap:butt;stroke-linejoin:miter;stroke-opacity:1"
       d="M 30.689453 0.31835938 C 24.561717 0.18383938 18.785129 3.7871438 16.115234 9.1523438 L 12.910156 8.5058594 L 11.253906 10.841797 L 15.171875 11.630859 C 15.014536 12.043959 14.927887 12.470957 14.841797 12.898438 C 14.755657 13.325897 14.669148 13.753492 14.654297 14.195312 L 11.876953 13.634766 L 10.220703 15.970703 L 14.566406 16.845703 C 15.02733 23.758923 20.113318 29.973259 27.130859 31.386719 C 31.013669 32.168779 34.956028 31.368774 38.201172 29.427734 L 38.949219 25.722656 C 35.966767 28.383856 31.81427 29.661716 27.646484 28.822266 C 21.946951 27.674276 17.829358 22.913673 17.238281 17.382812 L 34.583984 20.878906 L 36.242188 18.542969 L 17.21875 14.710938 C 17.23361 14.269127 17.320199 13.843476 17.40625 13.416016 C 17.47799 13.059806 17.578988 12.559594 17.736328 12.146484 L 37.898438 16.208984 L 39.554688 13.873047 L 18.787109 9.6894531 C 21.423297 4.8827531 27.041718 2.0115081 32.8125 3.1738281 C 37.30088 4.0778681 40.312229 6.7984438 42.039062 10.371094 L 43.689453 8.0703125 C 41.478261 4.3259625 37.818462 1.513415 33.330078 0.609375 C 32.44843 0.431805 31.56484 0.33757938 30.689453 0.31835938 z M 48.142578 27.070312 C 47.226738 27.085912 46.271654 27.220719 45.277344 27.474609 C 42.699082 28.133039 40.677578 29.374962 39.208984 31.201172 C 37.390692 33.491252 36.868387 36.160031 37.646484 39.207031 C 37.829793 39.924871 38.083715 40.644494 38.408203 41.365234 C 38.732713 42.086024 39.345634 43.203463 40.248047 44.720703 L 36.865234 45.583984 L 37.695312 48.837891 L 42.001953 47.738281 C 42.486663 48.597601 42.842122 49.473597 43.070312 50.367188 C 43.601524 52.447378 43.562219 54.335717 42.949219 56.029297 C 42.336189 57.722877 41.42681 59.135954 40.21875 60.271484 L 42.705078 63.685547 C 43.525708 62.804997 44.485547 62.030485 45.585938 61.359375 C 46.686318 60.688265 47.763599 60.218569 48.818359 59.949219 C 49.506859 59.773399 50.211238 59.656296 50.929688 59.597656 C 51.391608 59.573256 52.431391 59.599634 54.050781 59.677734 C 55.670151 59.755434 56.687312 59.779653 57.101562 59.751953 C 57.761392 59.708353 58.400355 59.608302 59.015625 59.451172 C 59.748075 59.264142 60.459387 58.987747 61.154297 58.623047 C 61.849157 58.258347 62.79815 57.618615 64 56.703125 L 61.798828 53.402344 C 60.279698 54.664134 58.978541 55.434107 57.894531 55.710938 C 57.000901 55.939128 55.217932 56.074347 52.544922 56.117188 C 50.927882 56.140088 49.512745 56.308651 48.296875 56.619141 C 47.344665 56.862301 46.328896 57.290383 45.253906 57.908203 C 46.267746 56.073253 46.897498 54.369199 47.142578 52.792969 C 47.387638 51.216769 47.348878 49.790115 47.023438 48.515625 C 46.858828 47.871075 46.554258 47.262953 46.111328 46.689453 L 52.351562 45.095703 L 51.521484 41.84375 L 44.599609 43.609375 C 43.094977 41.200425 42.135943 39.182731 41.720703 37.556641 C 41.342877 36.077111 41.557937 34.677879 42.367188 33.355469 C 43.176417 32.033139 44.393461 31.16527 46.019531 30.75 C 47.543041 30.36098 48.978635 30.531592 50.328125 31.263672 C 51.677595 31.995792 52.688762 33.212313 53.357422 34.914062 L 57.138672 33.316406 C 56.069772 30.780596 54.488021 29.004398 52.394531 27.986328 C 51.086081 27.350088 49.668988 27.044422 48.142578 27.070312 z M 13.154297 28.074219 L 12.414062 31.701172 C 10.886904 31.389752 3.6333082 31.857299 2.4101562 37.855469 C 1.3220382 43.191439 5.9815075 45.658547 9.3203125 46.835938 L 8.0976562 52.867188 C 5.7292133 51.666928 5.6487562 49.716768 5.6132812 48.111328 L 0.10546875 46.988281 C -0.77733125 53.058861 4.1374863 56.966353 7.0507812 58.001953 L 6.2988281 61.691406 L 11.533203 62.757812 L 12.273438 59.126953 C 16.461729 59.760263 22.073143 57.317189 23.035156 52.599609 C 24.136958 47.196509 19.560632 44.665737 15.480469 43.404297 L 16.607422 37.876953 C 18.223171 38.322743 19.182159 40.148108 18.996094 41.767578 L 24.451172 42.878906 C 25.544186 37.518916 21.046816 33.665522 17.59375 32.757812 L 18.333984 29.128906 L 13.154297 28.074219 z M 11.386719 36.867188 L 10.453125 41.447266 C 6.773138 40.638676 7.4939448 36.735518 11.386719 36.867188 z M 14.445312 48.775391 C 18.990538 49.818571 18.606892 54.307886 13.382812 53.972656 L 14.445312 48.775391 z "
       transform="translate(56.410688,689.47454)"
       id="path4160" />
  </g>
</svg>
