<?xml version="1.0" encoding="UTF-8"?>
<svg xmlns="http://www.w3.org/2000/svg" width="64" height="64" viewBox="0 0 64 64">
	<path fill="#222" d="M0 0v64.00004h64V0H0zm6 6h52v52.00004h-6.060547A25.20602 60.413365 0 0 0 41.75 39.05474c-2.753842 1.9904-6.120159 3.1816-9.757812 3.1816-3.624277 0-6.978291-1.1811-9.726563-3.1582a25.20602 60.413365 0 0 0-10.205078 18.9219H6V6zm25.992188 6.00004c-7.45154 0-13.492255 6.0405-13.492188 13.4922-.000005 7.4516 6.040693 13.4921 13.492188 13.4921s13.492192-6.0405 13.492187-13.4921c.000066-7.4517-6.040648-13.4922-13.492187-13.4922z"/>
</svg>
