<?xml version="1.0" encoding="UTF-8"?>
<svg xmlns="http://www.w3.org/2000/svg" width="64" height="64" viewBox="0 0 64 64">
	<path fill="#222" fill-rule="evenodd" d="M50.476781.5e-7C43.871263 4.2286576 38.746088 10.862524 30.995783 13.187198c-6.86169 2.178557-14.183402 1.265435-21.2310761.838568-3.5975892-1.416546-6.2555271 1.869809-4.7806508 5.249562 1.648017 9.517665 6.1743769 18.306507 11.4608359 26.296225 4.395366 6.309707 9.820648 12.151847 16.59945 15.906672 5.760837 2.91154 13.311862 3.862237 18.784634-.206226 4.091458-2.591614 5.259118-7.596163 6.422339-11.969017 2.204788-9.96018.865159-20.240173-.353577-30.234177-.828427-5.258286-2.991037-10.1710091-4.860784-15.1180809C52.308871 2.6057625 51.837782.84918192 50.476781.5e-7zM44.182364 13.741062c3.164794.798814 11.21163 2.412565 6.019802 5.539003l-13.198757 4.313568c1.263267-5.244774.319773-11.220384 7.178955-9.852571zm-22.347032 8.715747c3.164835.798999 11.211661 2.413037 6.01972 5.539373l-13.199158 4.313137c1.263308-5.244949.320256-11.220436 7.179438-9.85251zm29.926211 10.934046c5.181419 3.660543 1.884913 9.062357.85324 12.706244-1.708895 4.281275-11.064064 9.595065-15.575134 7.468869-4.523976-1.543389-7.243193-2.463837-11.859211-6.900384-.629167-6.496163 3.779854-3.114633 7.054784-2.573078 5.357242 1.75207 12.295334.678548 14.994258-4.813222 1.565326-2.515201 1.582341-4.70883 4.532063-5.888429z"/>
</svg>
