<?xml version="1.0" encoding="UTF-8" standalone="no"?>
<!-- Created with Inkscape (http://www.inkscape.org/) -->

<svg
   xmlns:dc="http://purl.org/dc/elements/1.1/"
   xmlns:cc="http://creativecommons.org/ns#"
   xmlns:rdf="http://www.w3.org/1999/02/22-rdf-syntax-ns#"
   xmlns:svg="http://www.w3.org/2000/svg"
   xmlns="http://www.w3.org/2000/svg"
   xmlns:sodipodi="http://sodipodi.sourceforge.net/DTD/sodipodi-0.dtd"
   xmlns:inkscape="http://www.inkscape.org/namespaces/inkscape"
   version="1.1"
   width="64"
   height="64"
   viewBox="0 0 64 64"
   id="svg2"
   xml:space="preserve"
   style="fill-rule:evenodd"
   inkscape:version="0.91 r13725"
   sodipodi:docname="restrict-communist.svg"><sodipodi:namedview
     pagecolor="#ffffff"
     bordercolor="#666666"
     borderopacity="1"
     objecttolerance="10"
     gridtolerance="10"
     guidetolerance="10"
     inkscape:pageopacity="0"
     inkscape:pageshadow="2"
     inkscape:window-width="944"
     inkscape:window-height="1002"
     id="namedview98"
     showgrid="false"
     inkscape:zoom="4"
     inkscape:cx="13.997384"
     inkscape:cy="37.842966"
     inkscape:window-x="0"
     inkscape:window-y="0"
     inkscape:window-maximized="0"
     inkscape:current-layer="svg2"
     fit-margin-top="0"
     fit-margin-left="0"
     fit-margin-right="0"
     fit-margin-bottom="0"
     inkscape:object-nodes="true"
     inkscape:snap-bbox="true"
     inkscape:snap-bbox-midpoints="true"
     showguides="true"
     inkscape:guide-bbox="true"
     inkscape:bbox-nodes="true" /><defs
     id="defs147" /><metadata
     id="metadata4245"><rdf:RDF><cc:Work
         rdf:about=""><dc:title /><dc:format>image/svg+xml</dc:format><dc:type
           rdf:resource="http://purl.org/dc/dcmitype/StillImage" /></cc:Work></rdf:RDF></metadata><path
     style="fill:#333333;fill-opacity:1;stroke:none"
     d="M 31.933948,-1.3951166e-7 C 55.19084,15.901304 56.025453,29.211381 53.041136,40.015181 c -0.646275,2.339654 -1.731197,4.445653 -3.251917,6.189384 -1.289886,1.479033 -2.938716,2.724624 -4.996039,3.683553 -6.357189,2.963117 -16.169235,1.966118 -29.079754,-5.537049 l -2.441379,3.14645 c -0.516449,-0.384495 -1.79778,-0.860077 -2.783173,0.3457 -0.9527075,1.165817 0.394946,2.4979 -0.09961,3.36129 -0.4398736,0.767952 -0.5831262,0.747641 -3.3886339,2.480442 -5.5783307,3.445411 -6.78385307,8.087244 -5.1366616,9.708876 1.6074846,1.582442 6.3332146,-0.3477 9.0272425,-6.833908 1.139624,-2.74382 0.881685,-2.378671 1.751934,-3.310511 0.734137,-0.786241 2.083576,0.309895 2.951139,-0.669914 0.919299,-1.038019 0.371309,-2.532041 -0.0039,-3.042935 l 0.79296,-0.910146 c 13.014055,11.68778 26.153672,13.391697 35.114844,8.478422 l 6.146416,6.622973 c 0.639698,0.664473 2.23928,0.07052 3.583945,-1.326157 1.344665,-1.396725 1.911117,-3.056319 1.271469,-3.720662 L 56.707115,52.993552 C 60.026872,49.339183 62.176765,44.336754 62.681657,38.35309 64.472545,17.129166 48.109946,4.7085475 31.933948,-1.3951166e-7 Z M 22.949673,11.511591 9.4966978,25.487998 15.316945,31.5309 l 6.326102,-6.570239 3.164027,-3.289027 7.996006,-8.306548 -9.853407,-1.853495 z m 16.040838,7.988193 c -0.872221,0 -1.57888,0.27609 -2.121071,0.830068 -0.542191,0.553979 -0.812491,1.285753 -0.812491,2.193336 0,1.001871 0.27609,2.658486 0.830069,4.968695 l 0.919912,3.853472 c 0.459684,1.909454 0.729984,3.537111 0.812491,4.880805 l 0.779288,0 c 0.153228,-1.885881 0.394572,-3.513538 0.724601,-4.880805 l 0.93749,-3.853472 c 0.589338,-2.451647 0.882803,-4.125632 0.882803,-5.021429 0,-0.860434 -0.281882,-1.567092 -0.847648,-2.121071 -0.553977,-0.565764 -1.256798,-0.849599 -2.105444,-0.849599 z m 0.03711,19.253692 c -0.8015,0 -1.479202,0.283835 -2.03318,0.8496 -0.553978,0.565764 -0.832022,1.243463 -0.832022,2.033181 0,0.78971 0.278044,1.467415 0.832022,2.03318 0.565764,0.553979 1.243466,0.830069 2.033179,0.830069 0.789714,0 1.461626,-0.27609 2.015603,-0.830069 0.565765,-0.565765 0.847647,-1.24347 0.847647,-2.03318 0,-0.801504 -0.281882,-1.479203 -0.847647,-2.033181 -0.553977,-0.565765 -1.225889,-0.8496 -2.015603,-0.8496 z"
     id="rect3221"
     inkscape:connector-curvature="0" /></svg>