<?xml version="1.0" encoding="UTF-8" standalone="no"?>
<!-- Created with Inkscape (http://www.inkscape.org/) -->

<svg
   xmlns:dc="http://purl.org/dc/elements/1.1/"
   xmlns:cc="http://creativecommons.org/ns#"
   xmlns:rdf="http://www.w3.org/1999/02/22-rdf-syntax-ns#"
   xmlns:svg="http://www.w3.org/2000/svg"
   xmlns="http://www.w3.org/2000/svg"
   xmlns:sodipodi="http://sodipodi.sourceforge.net/DTD/sodipodi-0.dtd"
   xmlns:inkscape="http://www.inkscape.org/namespaces/inkscape"
   version="1.1"
   width="64"
   height="64"
   id="svg2"
   inkscape:version="0.91 r13725"
   sodipodi:docname="restrict-ihl.svg">
  <metadata
     id="metadata31">
    <rdf:RDF>
      <cc:Work
         rdf:about="">
        <dc:format>image/svg+xml</dc:format>
        <dc:type
           rdf:resource="http://purl.org/dc/dcmitype/StillImage" />
        <dc:title />
      </cc:Work>
    </rdf:RDF>
  </metadata>
  <sodipodi:namedview
     pagecolor="#ffffff"
     bordercolor="#666666"
     borderopacity="1"
     objecttolerance="10"
     gridtolerance="10"
     guidetolerance="10"
     inkscape:pageopacity="0"
     inkscape:pageshadow="2"
     inkscape:window-width="1920"
     inkscape:window-height="1018"
     id="namedview29"
     showgrid="false"
     inkscape:object-nodes="true"
     inkscape:zoom="0.25"
     inkscape:cx="-188.39564"
     inkscape:cy="55.752705"
     inkscape:window-x="-8"
     inkscape:window-y="-8"
     inkscape:window-maximized="1"
     inkscape:current-layer="svg2" />
  <defs
     id="defs4" />
  <path
     style="fill:#333333;fill-opacity:1;stroke:none"
     d="m 34.923387,0.06109857 c -0.539421,-0.071278 -1.103342,0.1571576 -1.744493,0.8002572 C 31.881854,2.1623383 31.413803,4.0256728 31.695573,5.9843408 L 5.6721461,32.068038 c -1.864574,-0.200093 -3.625001,0.276223 -4.86516191,1.520154 -2.56459929,2.572397 1.50900731,3.916636 4.87520641,7.272628 l 5.2234364,5.206695 c 3.3662,3.355994 4.711379,7.417468 7.275979,4.845071 1.243922,-1.247703 1.717366,-3.01835 1.50676,-4.888599 L 30.482477,35.204012 c 13.061005,14.524857 16.599826,17.1314 25.407356,26.958003 0.0555,0.06185 0.11614,0.125308 0.175807,0.184052 1.849627,1.8208 5.628272,2.136367 7.037884,0.722468 1.455083,-1.459508 1.133496,-5.374528 -0.925745,-7.210948 C 52.329544,47.075019 49.630978,43.627237 35.071706,30.602894 L 45.932785,19.715951 c 1.772088,0.132278 3.435511,-0.341377 4.62073,-1.530199 2.564599,-2.572396 -1.509008,-3.916634 -4.875206,-7.272631 L 40.454872,5.7064277 C 37.930225,3.1894304 36.541651,0.27493007 34.923387,0.06109857 Z"
     id="path4201"
     inkscape:connector-curvature="0"
     sodipodi:nodetypes="ssccsccsccccssccsccs" />
</svg>
