<?xml version="1.0" encoding="UTF-8"?>
<svg xmlns="http://www.w3.org/2000/svg" width="64" height="64" viewBox="0 0 64 64">
	<path fill="#222" fill-rule="evenodd" d="M31.933948-.4e-7C55.19084 15.901304 56.025453 29.211381 53.041136 40.015181c-.646275 2.339654-1.731197 4.445653-3.251917 6.189384-1.289886 1.479033-2.938716 2.724624-4.996039 3.683553-6.357189 2.963117-16.169235 1.966118-29.079754-5.537049l-2.441379 3.14645c-.516449-.384495-1.79778-.860077-2.783173.3457-.9527075 1.165817.394946 2.4979-.09961 3.36129-.4398736.767952-.5831262.747641-3.3886339 2.480442-5.5783307 3.445411-6.78385307 8.087244-5.1366616 9.708876 1.6074846 1.582442 6.3332146-.3477 9.0272425-6.833908 1.139624-2.74382.881685-2.378671 1.751934-3.310511.734137-.786241 2.083576.309895 2.951139-.669914.919299-1.038019.371309-2.532041-.0039-3.042935l.79296-.910146c13.014055 11.68778 26.153672 13.391697 35.114844 8.478422l6.146416 6.622973c.639698.664473 2.23928.07052 3.583945-1.326157 1.344665-1.396725 1.911117-3.056319 1.271469-3.720662l-5.792903-5.687437c3.319757-3.654369 5.46965-8.656798 5.974542-14.640462C64.472545 17.129166 48.109946 4.7085475 31.933948-.4e-7zM22.949673 11.511591L9.4966978 25.487998 15.316945 31.5309l6.326102-6.570239 3.164027-3.289027 7.996006-8.306548-9.853407-1.853495zm16.040838 7.988193c-.872221 0-1.57888.27609-2.121071.830068-.542191.553979-.812491 1.285753-.812491 2.193336 0 1.001871.27609 2.658486.830069 4.968695l.919912 3.853472c.459684 1.909454.729984 3.537111.812491 4.880805h.779288c.153228-1.885881.394572-3.513538.724601-4.880805l.93749-3.853472c.589338-2.451647.882803-4.125632.882803-5.021429 0-.860434-.281882-1.567092-.847648-2.121071-.553977-.565764-1.256798-.849599-2.105444-.849599zm.03711 19.253692c-.8015 0-1.479202.283835-2.03318.8496-.553978.565764-.832022 1.243463-.832022 2.033181 0 .78971.278044 1.467415.832022 2.03318.565764.553979 1.243466.830069 2.033179.830069.789714 0 1.461626-.27609 2.015603-.830069.565765-.565765.847647-1.24347.847647-2.03318 0-.801504-.281882-1.479203-.847647-2.033181-.553977-.565765-1.225889-.8496-2.015603-.8496z"/>
</svg>
