<?xml version="1.0" encoding="UTF-8" standalone="no"?>
<!-- Created with Inkscape (http://www.inkscape.org/) -->

<svg
   xmlns:dc="http://purl.org/dc/elements/1.1/"
   xmlns:cc="http://creativecommons.org/ns#"
   xmlns:rdf="http://www.w3.org/1999/02/22-rdf-syntax-ns#"
   xmlns:svg="http://www.w3.org/2000/svg"
   xmlns="http://www.w3.org/2000/svg"
   xmlns:sodipodi="http://sodipodi.sourceforge.net/DTD/sodipodi-0.dtd"
   xmlns:inkscape="http://www.inkscape.org/namespaces/inkscape"
   version="1.0"
   width="64"
   height="64"
   id="svg2"
   inkscape:version="0.91 r13725"
   sodipodi:docname="restrict-ita-mibac.svg">
  <metadata
     id="metadata73">
    <rdf:RDF>
      <cc:Work
         rdf:about="">
        <dc:format>image/svg+xml</dc:format>
        <dc:type
           rdf:resource="http://purl.org/dc/dcmitype/StillImage" />
        <dc:title></dc:title>
      </cc:Work>
    </rdf:RDF>
  </metadata>
  <defs
     id="defs71" />
  <sodipodi:namedview
     pagecolor="#ffffff"
     bordercolor="#666666"
     borderopacity="1"
     objecttolerance="10"
     gridtolerance="10"
     guidetolerance="10"
     inkscape:pageopacity="0"
     inkscape:pageshadow="2"
     inkscape:window-width="1920"
     inkscape:window-height="1018"
     id="namedview69"
     showgrid="false"
     inkscape:zoom="9.4347534"
     inkscape:cx="43.442342"
     inkscape:cy="34.560364"
     inkscape:window-x="-8"
     inkscape:window-y="-8"
     inkscape:window-maximized="1"
     inkscape:current-layer="svg2" />
  <path
     style="fill:#333333;fill-opacity:1;stroke:none"
     d="M 30.33299,0 C 28.294743,0.77738 25.321599,0.9004 24.037285,1.93166 21.898471,0.84475 22.129135,3.129 21.940636,3.44043 19.106618,2.34435 22.252983,7.13493 19.639984,4.96937 18.177272,6.45269 16.864213,2.19847 16.681715,5.46998 16.346417,7.04646 15.131721,8.37625 14.270942,6.70723 13.01316,6.23774 12.977395,2.83878 11.857415,5.62868 11.626972,9.17654 5.3050955,6.20299 6.1586535,9.7352 c 2.332118,1.40948 -0.49398,3.27524 -1.086005,3.7299 2.747353,1.52476 -0.642442,5.36227 3.002106,5.75702 2.6844955,-0.27629 0.143887,1.43287 1.237631,2.36023 2.9799485,-0.14498 4.1196715,-5.81801 7.5486175,-3.48886 2.196461,1.38082 5.188827,2.53787 5.098097,5.50694 0.895984,1.31458 0.16915,3.45563 1.842443,3.93619 1.111934,0.68165 1.669854,2.42501 1.941423,2.70743 3.366687,0.7911 4.577096,4.80925 7.551606,6.40186 2.059851,0.69042 5.108667,0.29152 5.566826,3.30929 1.844943,-0.87595 0.919863,2.1471 2.693483,0.88743 1.86561,0.92307 1.10688,4.23801 4.08827,3.78851 1.29707,1.36244 3.2804,5.75678 2.27585,7.50715 -1.34514,0.62292 -0.87214,2.93901 -2.03059,3.69753 1.40818,2.93227 4.08123,-1.39001 4.45945,-3.1201 0.55972,-2.33498 4.25919,-1.66386 1.98572,-4.6071 -1.22356,-1.33542 -3.35928,-1.7338 -1.79378,-3.90393 0.45336,-2.18385 2.617231,-2.79764 3.99337,-1.45476 2.02181,-0.4713 3.39102,5.54032 4.39418,1.73824 -0.418899,-3.43937 -4.41865,-4.72681 -6.968639,-6.33544 -1.780911,-0.73431 -6.32243,-2.14992 -3.64599,-4.19652 -0.83844,-2.14676 -4.68654,0.46459 -6.29741,-1.89497 -2.54663,-1.74818 -4.229757,-4.36464 -4.698036,-7.4267 -1.010032,-3.5736 -6.77019,-3.74223 -6.716174,-7.99128 -1.054807,-1.63046 2.21114,-1.95761 0.340697,-3.49724 -0.954372,-1.05087 0.7201,-3.76528 0.65442,-2.35623 C 34.029309,10.20103 34.791,8.06914 37.211076,9.30976 38.610263,11.03319 36.589666,7.99945 36.760182,8.04612 35.467784,6.89239 37.716435,6.10465 35.935337,5.80866 35.903457,4.62997 38.188207,3.55765 35.741935,3.57463 33.865212,3.63743 29.102982,2.60256 30.388762,0.21534 L 30.332992,0 l 0,0 z M 16.640604,37.15711 c -0.971611,1.76781 -3.475365,2.71855 -4.839597,2.58233 0.01559,1.88731 2.13754,3.6101 1.248494,5.36889 0.696345,1.78845 -1.469838,6.90741 2.068513,5.86663 0.590399,-2.5766 3.660284,-0.0595 3.509415,-2.97455 -0.595325,-2.89893 1.494424,-6.42313 -0.451482,-8.81669 0.512003,-1.08598 -1.025465,-1.39514 -1.535343,-2.02661 z m 2.325084,2.01284 c -1.444108,-0.18929 -0.41583,0.6422 0,0 z m 26.567914,15.47969 c -2.469971,1.01572 -5.20801,1.69685 -7.85995,1.78536 -1.73761,-0.47444 -2.624842,-1.48809 -4.232709,-0.35138 -2.766626,-1.67447 -2.330804,3.9904 0.587687,3.13988 2.893381,1.7203 6.007092,3.48792 8.960202,4.7765 2.75677,-1.69845 -1.013361,-5.46621 1.98724,-7.52361 0.25273,-0.43081 1.38338,-1.42356 0.55753,-1.82675 z"
     id="path1906"
     inkscape:connector-curvature="0" />
</svg>
