<?xml version="1.0" encoding="UTF-8" standalone="no"?>

<svg
   xmlns:dc="http://purl.org/dc/elements/1.1/"
   xmlns:cc="http://creativecommons.org/ns#"
   xmlns:rdf="http://www.w3.org/1999/02/22-rdf-syntax-ns#"
   xmlns:svg="http://www.w3.org/2000/svg"
   xmlns="http://www.w3.org/2000/svg"
   version="1.1"
   width="80"
   height="80"
   viewBox="0 0 80 80"
   id="Layer_1"
   xml:space="preserve"><metadata
   id="metadata18"><rdf:RDF><cc:Work
       rdf:about=""><dc:format>image/svg+xml</dc:format><dc:type
         rdf:resource="http://purl.org/dc/dcmitype/StillImage" /><dc:title></dc:title></cc:Work></rdf:RDF></metadata><defs
   id="defs16">
	
		<linearGradient
   x1="326"
   y1="-301.0737"
   x2="326"
   y2="-329.77579"
   id="SVGID_1_"
   gradientUnits="userSpaceOnUse"
   gradientTransform="matrix(1,0,0,-1,-286,-294)">
		<stop
   id="stop6"
   style="stop-color:#ffffff;stop-opacity:0.94999999"
   offset="0" />
		<stop
   id="stop8"
   style="stop-color:#ffffff;stop-opacity:1"
   offset="0.78740001" />
	</linearGradient>
	
	
</defs>
<path
   d="m 67.171,46.794 3.663,-3.662 c 0.101,-0.083 0.189,-0.184 0.284,-0.278 l 0.053,-0.056 c 0.189,-0.19 0.354,-0.408 0.48,-0.639 0.888,-1.259 1.354,-2.717 1.354,-4.258 V 14.47 c 0,-1.991 -0.778,-3.874 -2.191,-5.288 C 69.405,7.781 67.528,6.999 65.53,6.999 H 42.104 c -1.661,0 -3.229,0.537 -4.552,1.562 -0.062,0.04 -0.12,0.092 -0.179,0.138 C 37.013,9 36.684,9.316 36.397,9.66 l -2.885,2.882 c -0.251,0.206 -0.477,0.399 -0.685,0.604 L 21.24,24.746 10.974,35.01 8.477,37.508 c -1.979,1.975 -1.979,5.183 0,7.151 l 2.497,2.505 21.854,21.854 2.501,2.498 c 1.979,1.978 5.182,1.978 7.153,0 L 44.987,69.018 55.249,58.747 66.84,47.164 c 0.114,-0.11 0.215,-0.224 0.331,-0.37 z M 60.468,19.535 c 3.744,3.744 3.738,9.784 0,13.515 -3.729,3.74 -9.78,3.74 -13.518,0 -3.727,-3.729 -3.734,-9.785 0,-13.515 3.73,-3.732 9.796,-3.732 13.518,0 z"
   id="path12"
   style="fill:#929497" />
</svg>