<?xml version="1.0" encoding="UTF-8" standalone="no"?>
<!-- Created with Inkscape (http://www.inkscape.org/) -->

<svg
   xmlns:dc="http://purl.org/dc/elements/1.1/"
   xmlns:cc="http://creativecommons.org/ns#"
   xmlns:rdf="http://www.w3.org/1999/02/22-rdf-syntax-ns#"
   xmlns:svg="http://www.w3.org/2000/svg"
   xmlns="http://www.w3.org/2000/svg"
   version="1.1"
   width="80"
   height="80"
   viewBox="0 0 80 80"
   id="svg2">
  <metadata
     id="metadata10">
    <rdf:RDF>
      <cc:Work
         rdf:about="">
        <dc:format>image/svg+xml</dc:format>
        <dc:type
           rdf:resource="http://purl.org/dc/dcmitype/StillImage" />
        <dc:title></dc:title>
      </cc:Work>
    </rdf:RDF>
  </metadata>
  <defs
     id="defs8" />
  <path
     d="M 64.741719,15.24625 C 58.139844,8.637812 49.350469,5 39.995625,5 30.648437,5 21.859062,8.637812 15.241875,15.24625 8.6334375,21.855781 5,30.649531 5,40 5,49.350469 8.6334375,58.144219 15.241875,64.741719 21.859062,71.35125 30.648437,75 39.995625,75 49.350469,75 58.139844,71.35125 64.741719,64.741719 71.353437,58.144219 75,49.350469 75,40 75,30.649531 71.353437,21.855781 64.741719,15.24625 z M 51.459219,56.535313 36.504375,41.604531 V 16.009687 h 5.627344 v 23.234532 l 13.301094,13.30875 -3.973594,3.982344 z"
     id="path4"
     style="fill:#929497" />
</svg>
