<?xml version="1.0" encoding="UTF-8" standalone="no"?>
<!-- Created with Inkscape (http://www.inkscape.org/) -->

<svg
   xmlns:dc="http://purl.org/dc/elements/1.1/"
   xmlns:cc="http://creativecommons.org/ns#"
   xmlns:rdf="http://www.w3.org/1999/02/22-rdf-syntax-ns#"
   xmlns:svg="http://www.w3.org/2000/svg"
   xmlns="http://www.w3.org/2000/svg"
   version="1.1"
   width="80"
   height="80"
   id="svg2">
  <metadata
     id="metadata16">
    <rdf:RDF>
      <cc:Work
         rdf:about="">
        <dc:format>image/svg+xml</dc:format>
        <dc:type
           rdf:resource="http://purl.org/dc/dcmitype/StillImage" />
        <dc:title></dc:title>
      </cc:Work>
    </rdf:RDF>
  </metadata>
  <defs
     id="defs14" />
  <g
     transform="matrix(1.5559847,0,0,1.5559847,-68.918929,-22.720744)"
     id="g3008">
    <path
       d="m 62.009885,53.958696 0,-11.374448 h 7.507136 L 59.052529,32.574733 V 22.110241 h 32.075943 c 4.54978,0 4.322291,3.867312 4.322291,4.094801 V 58.508475 H 64.284775 c -4.54978,0 -4.777268,-4.549779 -4.777268,-4.549779 h 2.502378 z"
       id="path3"
       style="fill:#8e9093" />
    <path
       d="m 82.711381,32.119755 c -1.364934,0 -2.729868,1.137445 -2.729868,2.729868 0,1.364934 1.137445,2.729867 2.729868,2.729867 1.364934,0 2.729867,-1.137444 2.729867,-2.729867 -0.227489,-1.592423 -1.364933,-2.729868 -2.729867,-2.729868 z"
       id="path5"
       style="fill:#ffffff" />
    <circle
       cx="444.5"
       cy="379.5"
       r="1.2"
       transform="matrix(-2.2748896,0,0,2.2748896,1082.7528,-828.69849)"
       id="circle7"
       style="fill:#ffffff" />
    <path
       d="m 77.251646,49.863894 c 4.094801,0 7.962113,-1.364933 10.237003,-3.639823 0.682467,-0.682467 0.682467,-1.592423 0,-2.047401 -0.682467,-0.682467 -1.592423,-0.682467 -2.047401,0 -1.819911,1.819912 -5.004757,2.729868 -8.189602,2.729868 -3.184846,0 -6.369691,-1.137445 -8.189603,-2.729868 -0.682467,-0.682467 -1.592423,-0.454978 -2.047401,0 -0.682467,0.682467 -0.454978,1.592423 0,2.047401 2.27489,2.502379 6.142202,3.639823 10.237004,3.639823 z"
       id="path9"
       style="fill:#ffffff" />
    <path
       d="m 58.083571,51.699079 -8.619227,0 0,-11.46882 -5.171538,0 9.193844,-8.810768 9.768459,8.810768 -5.171538,0 z"
       id="Shape_6_"
       style="fill:#8e9093" />
  </g>
</svg>
