<?xml version="1.0" encoding="UTF-8" standalone="no"?>
<!-- Created with Inkscape (http://www.inkscape.org/) -->

<svg
   xmlns:dc="http://purl.org/dc/elements/1.1/"
   xmlns:cc="http://creativecommons.org/ns#"
   xmlns:rdf="http://www.w3.org/1999/02/22-rdf-syntax-ns#"
   xmlns:svg="http://www.w3.org/2000/svg"
   xmlns="http://www.w3.org/2000/svg"
   version="1.1"
   width="22.86124"
   height="22.83745"
   id="svg2">
  <defs
     id="defs4" />
  <metadata
     id="metadata7">
    <rdf:RDF>
      <cc:Work
         rdf:about="">
        <dc:format>image/svg+xml</dc:format>
        <dc:type
           rdf:resource="http://purl.org/dc/dcmitype/StillImage" />
        <dc:title></dc:title>
      </cc:Work>
    </rdf:RDF>
  </metadata>
  <g
     transform="matrix(0.97913423,0,0,0.97913423,0.23850869,0.23826049)"
     id="g2997">
    <path
       d="m 16.15625,1.34375 a 0.53128643,0.53128643 0 0 0 -0.09375,0.0625 0.53128643,0.53128643 0 0 0 -0.25,0.15625 c 0.004,-0.0036 -0.03505,0.0038 -0.03125,0 0.0038,-0.0038 -0.0036,0.035234 0,0.03125 0.0036,-0.00398 -0.03464,0.035413 -0.03125,0.03125 a 0.53128643,0.53128643 0 0 0 0,0.03125 0.53128643,0.53128643 0 0 0 -0.03125,0 c 0.0025,-0.00345 -0.0023,0.034796 0,0.03125 0.0023,-0.00355 -0.03346,0.034889 -0.03125,0.03125 0.0021,-0.00372 -0.03315,0.035055 -0.03125,0.03125 0.0019,-0.00381 -0.0017,0.035129 0,0.03125 0.0017,-0.00388 -0.03284,0.035197 -0.03125,0.03125 0.0016,-0.00395 -0.0014,0.035258 0,0.03125 0.0014,-0.00401 -0.0013,0.035313 0,0.03125 A 0.53128643,0.53128643 0 0 0 15.59375,2 c 2.74e-4,-0.00378 5.56e-4,0.015861 0,0.03125 5.48e-4,-0.00756 0,0.038834 0,0.03125 0,-0.00758 5.48e-4,0.038814 0,0.03125 5.56e-4,0.015389 2.74e-4,0.035032 0,0.03125 l 0,2.28125 c -4.24463,0.2830024 -6.6383792,2.4481103 -7.75,4.6875 -1.1653579,2.347645 -1.1261115,4.638761 -1.125,4.6875 1.19e-5,5.2e-4 0,0.03125 0,0.03125 0,-0.0076 5.476e-4,0.07006 0,0.0625 0,-0.0076 5.476e-4,0.03881 0,0.03125 a 0.53128643,0.53128643 0 0 0 0.0625,0.1875 0.53128643,0.53128643 0 0 0 0,0.03125 c -0.00159,-0.0039 0.032997,0.03513 0.03125,0.03125 -0.00175,-0.0039 0.0019,0.03505 0,0.03125 a 0.53128643,0.53128643 0 0 0 0.03125,0.03125 c -0.00339,-0.0042 0.034846,0.03523 0.03125,0.03125 -0.00235,-0.0035 0.00249,0.0347 0,0.03125 a 0.53128643,0.53128643 0 0 0 0.03125,0.03125 c -0.00169,-0.0021 0.024156,-0.0083 0.03125,0 0.00709,0.0083 0.0018,0.03324 0,0.03125 -0.0036,-0.004 0.0038,0.03505 0,0.03125 -0.0038,-0.0038 0.035234,0.0036 0.03125,0 -0.00398,-0.0036 0.035413,0.03464 0.03125,0.03125 a 0.53128643,0.53128643 0 0 0 0.03125,0.03125 c -0.00345,-0.0025 0.034796,0.0023 0.03125,0 -0.00355,-0.0023 0.034889,0.03346 0.03125,0.03125 -0.00373,-0.0021 0.035055,0.03315 0.03125,0.03125 -0.00381,-0.0019 0.035129,0.0017 0.03125,0 -0.00388,-0.0017 0.035197,0.03284 0.03125,0.03125 -0.00395,-0.0016 0.035258,0.0014 0.03125,0 -0.00401,-0.0014 0.035312,0.0013 0.03125,0 a 0.53128643,0.53128643 0 0 0 0.125,0.03125 c -0.00378,-2.74e-4 0.015861,-5.56e-4 0.03125,0 0.015389,5.56e-4 0.035042,0 0.03125,0 -0.00379,0 0.015861,5.56e-4 0.03125,0 0.015389,-5.56e-4 0.035032,-2.74e-4 0.03125,0 -0.00758,0 0.038814,-5.48e-4 0.03125,0 0.015389,-5.56e-4 0.035032,-2.74e-4 0.03125,0 a 0.53128643,0.53128643 0 0 0 0.125,-0.03125 c -0.00406,0.0013 0.035258,-0.0014 0.03125,0 -0.00401,0.0014 0.035197,-0.0016 0.03125,0 -0.00395,0.0016 0.035129,-0.033 0.03125,-0.03125 -0.00388,0.0017 0.035055,-0.0019 0.03125,0 -0.00381,0.0019 0.034975,-0.03331 0.03125,-0.03125 -0.00364,0.0022 0.034796,-0.0336 0.03125,-0.03125 -0.00355,0.0023 0.034698,-0.0025 0.03125,0 A 0.53128643,0.53128643 0 0 0 7.9375,14.40625 c -0.00416,0.0034 0.035234,-0.03485 0.03125,-0.03125 -0.00398,0.0036 0.035045,-0.0038 0.03125,0 0.00828,-0.0071 0.00199,-0.03305 0,-0.03125 -0.0036,0.004 0.034638,-0.03541 0.03125,-0.03125 -0.0036,0.004 0.034638,-0.03541 0.03125,-0.03125 A 0.53128643,0.53128643 0 0 0 8.09375,14.25 c 0,0 2.688544,-3.663512 7.5,-3.28125 l 0,2.8125 0,0.03125 c 0,-0.0076 5.48e-4,0.07006 0,0.0625 A 0.53128643,0.53128643 0 0 0 15.625,14 c -0.0013,-0.0041 0.0014,0.03526 0,0.03125 -0.0014,-0.004 0.0016,0.0352 0,0.03125 -0.0016,-0.0039 0.033,0.03513 0.03125,0.03125 -0.0017,-0.0039 0.0019,0.03505 0,0.03125 -0.0019,-0.0038 0.03331,0.03497 0.03125,0.03125 -0.0019,-0.0036 0.002,0.03481 0,0.03125 0.0046,0.0073 0.03242,0.0018 0.03125,0 -0.0021,-0.0035 0.0023,0.03464 0,0.03125 -0.0023,-0.0034 0.03365,0.03455 0.03125,0.03125 -0.0024,-0.0033 0.0025,0.03445 0,0.03125 -0.0025,-0.0032 0.03391,0.0031 0.03125,0 -0.0027,-0.0031 0.03402,0.03425 0.03125,0.03125 -0.0028,-0.003 0.0029,0.03414 0,0.03125 -0.0029,-0.0029 0.03425,0.0028 0.03125,0 -0.003,-0.0028 0.03435,0.03391 0.03125,0.03125 -0.0031,-0.0027 0.0032,0.03378 0,0.03125 -0.0032,-0.0025 0.03455,0.0024 0.03125,0 -0.0033,-0.0024 0.03464,0.03352 0.03125,0.03125 -0.0034,-0.0023 0.03473,0.0021 0.03125,0 -0.0035,-0.0021 0.0036,0.03325 0,0.03125 0.01063,0.0061 0.03391,0.0014 0.03125,0 -0.0053,-0.0029 0.06798,0.03381 0.0625,0.03125 -0.0055,-0.0026 0.03686,0.0022 0.03125,0 -0.0056,-0.0022 0.03698,0.03316 0.03125,0.03125 -0.0057,-0.0019 0.03708,0.0016 0.03125,0 -0.0058,-0.0016 0.06842,0.03249 0.0625,0.03125 -0.0059,-0.0012 0.03723,8.97e-4 0.03125,0 -0.006,-8.97e-4 0.03727,5.52e-4 0.03125,0 a 0.53128643,0.53128643 0 0 0 0.03125,0 c -0.0038,-2.74e-4 0.01586,-5.56e-4 0.03125,0 0.01539,5.56e-4 0.03504,0 0.03125,0 -0.0076,0 0.03881,-5.48e-4 0.03125,0 0.01539,-5.56e-4 0.03503,-2.74e-4 0.03125,0 A 0.53128643,0.53128643 0 0 0 16.625,14.5 c -0.004,0.0014 0.0352,-0.0016 0.03125,0 -0.0039,0.0016 0.03513,-0.033 0.03125,-0.03125 A 0.53128643,0.53128643 0 0 0 16.75,14.4375 c -0.0042,0.0034 0.03523,-0.03485 0.03125,-0.03125 -0.004,0.0036 0.03505,-0.0038 0.03125,0 -0.0038,0.0038 0.0036,-0.03523 0,-0.03125 -0.0036,0.004 0.03464,-0.03541 0.03125,-0.03125 a 0.53128643,0.53128643 0 0 0 0.03125,0 L 22.8125,8.5 A 0.53128643,0.53128643 0 0 0 22.875,8.4375 c -0.0025,0.00345 0.0023,-0.034796 0,-0.03125 -0.0023,0.00355 0.03346,-0.034889 0.03125,-0.03125 -0.0025,0.00345 0.0023,-0.034796 0,-0.03125 -0.0023,0.00355 0.03346,-0.034889 0.03125,-0.03125 -0.0017,0.00388 0.03284,-0.035197 0.03125,-0.03125 -0.0016,0.00395 0.0014,-0.035258 0,-0.03125 -8.73e-4,0.00194 -0.0034,-0.023301 0,-0.03125 0.0034,-0.00795 0.03204,-0.00197 0.03125,0 -0.0016,0.00395 0.0014,-0.035258 0,-0.03125 -0.0014,0.00401 0.0013,-0.035312 0,-0.03125 a 0.53128643,0.53128643 0 0 0 0.03125,-0.125 c -5.48e-4,0.00756 0,-0.038834 0,-0.03125 0,0.00758 -5.48e-4,-0.070064 0,-0.0625 0,0.00758 -5.48e-4,-0.038814 0,-0.03125 A 0.53128643,0.53128643 0 0 0 23,7.78125 c 0.0013,0.00406 -0.0014,-0.035258 0,-0.03125 0.0014,0.00401 -0.0016,-0.035197 0,-0.03125 7.94e-4,0.00197 -0.02786,0.00795 -0.03125,0 0.0013,0.00406 -0.0014,-0.035258 0,-0.03125 0.0014,0.00401 -0.0016,-0.035197 0,-0.03125 0.0016,0.00395 -0.033,-0.035129 -0.03125,-0.03125 0.0011,0.00182 0.0046,-0.023953 0,-0.03125 9.51e-4,0.0019 -0.02723,0.00765 -0.03125,0 0.0023,0.00355 -0.0025,-0.034698 0,-0.03125 0.0022,0.00364 -0.0336,-0.034796 -0.03125,-0.03125 0.0023,0.00355 -0.0025,-0.034698 0,-0.03125 A 0.53128643,0.53128643 0 0 0 22.8125,7.4375 L 16.875,1.5625 A 0.53128643,0.53128643 0 0 0 16.8125,1.5 c 0.0034,0.00249 -0.0348,-0.00235 -0.03125,0 0.0035,0.00235 -0.03489,-0.033455 -0.03125,-0.03125 0.0019,0.00103 -0.0236,0.00402 -0.03125,0 0.0035,0.00235 -0.03489,-0.033455 -0.03125,-0.03125 0.0037,0.00206 -0.03505,-0.033153 -0.03125,-0.03125 0.0038,0.0019 -0.03513,-0.00175 -0.03125,0 0.0019,8.734e-4 -0.0233,0.00339 -0.03125,0 -0.0079,-0.00339 -0.002,-0.032044 0,-0.03125 0.0039,0.00159 -0.03526,-0.00143 -0.03125,0 0.004,0.00143 -0.03531,-0.00126 -0.03125,0 a 0.53128643,0.53128643 0 0 0 -0.125,-0.03125 c 0.0076,5.476e-4 -0.03883,0 -0.03125,0 0.0076,0 -0.07006,5.476e-4 -0.0625,0 0.0076,0 -0.07008,5.505e-4 -0.0625,0 0.0076,-5.505e-4 -0.03877,0.0011 -0.03125,0 a 0.53128643,0.53128643 0 0 0 -0.0625,0 z m -15.75,1.5625 A 0.53128643,0.53128643 0 0 0 0.25,3 0.53128643,0.53128643 0 0 0 0.0625,3.125 c 0.0028879,-0.00289 -0.0027733,0.034248 0,0.03125 A 0.53128643,0.53128643 0 0 0 0.03125,3.1875 c 0.0026546,-0.0031 -0.03378183,0.0032 -0.03125,0 a 0.53128643,0.53128643 0 0 0 0,0.03125 c 0.00240523,-0.0033 -0.03352499,0.034642 -0.03125,0.03125 0.002275,-0.00339 -0.0021413,0.034728 0,0.03125 0.0021413,-0.00348 -0.03325437,0.00356 -0.03125,0 -0.0061334,0.01063 -0.0014342,0.03391 0,0.03125 0.0028684,-0.00532 -0.03380742,0.067976 -0.03125,0.0625 0.0025574,-0.00548 -0.002238,0.036864 0,0.03125 0.002238,-0.00561 -0.03316117,0.036983 -0.03125,0.03125 0.001911,-0.00573 -0.001578,0.037084 0,0.03125 0.001578,-0.00583 -0.0324896,0.068415 -0.03125,0.0625 0.00124,-0.00592 -8.9707e-4,0.037227 0,0.03125 8.9707e-4,-0.00598 -5.5157e-4,0.037268 0,0.03125 a 0.53128643,0.53128643 0 0 0 0,0.0625 l 0,17.0625 0,0.03125 c 0,-0.0076 5.4758e-4,0.07006 0,0.0625 a 0.53128643,0.53128643 0 0 0 0.03125,0.125 c -0.001263,-0.0041 0.001427,0.03526 0,0.03125 -0.001427,-0.004 0.001588,0.0352 0,0.03125 -0.001588,-0.0039 0.03299685,0.03513 0.03125,0.03125 -0.0017468,-0.0039 0.0019026,0.03505 0,0.03125 -0.0019026,-0.0038 0.0333053,0.03497 0.03125,0.03125 -0.0018644,-0.0036 0.0020044,0.03481 0,0.03125 0.0046261,0.0073 0.03242512,0.0018 0.03125,0 -0.0023502,-0.0035 0.002492,0.0347 0,0.03125 -0.002275,-0.0034 0.03365523,0.03455 0.03125,0.03125 -0.00240523,-0.0033 0.00253183,0.03446 0,0.03125 -0.00253183,-0.0032 0.0339046,0.0031 0.03125,0 -0.0026546,-0.0031 0.03402334,0.03425 0.03125,0.03125 -0.0027733,-0.003 0.0028879,0.03414 0,0.03125 -0.0028879,-0.0029 0.03424806,0.0028 0.03125,0 -0.0029981,-0.0028 0.0343537,0.03391 0.03125,0.03125 -0.003104,-0.0027 0.003205,0.03378 0,0.03125 -0.003205,-0.0025 0.0345507,0.0024 0.03125,0 -0.003301,-0.0024 0.0346418,0.03353 0.03125,0.03125 -0.003392,-0.0023 0.0347277,0.0021 0.03125,0 -0.003478,-0.0021 0.003558,0.03325 0,0.03125 0.0106303,0.0061 0.0339098,0.0014 0.03125,0 -0.00532,-0.0029 0.0679759,0.03381 0.0625,0.03125 -0.005476,-0.0026 0.036864,0.0022 0.03125,0 -0.005614,-0.0022 0.0369835,0.03316 0.03125,0.03125 -0.005734,-0.0019 0.037084,0.0016 0.03125,0 -0.005834,-0.0016 0.0684151,0.03249 0.0625,0.03125 -0.005915,-0.0012 0.0372267,8.97e-4 0.03125,0 -0.005977,-8.97e-4 0.0372684,5.52e-4 0.03125,0 a 0.53128643,0.53128643 0 0 0 0.0625,0 l 18.46875,0 0.03125,0 c 0.01539,5.56e-4 0.03504,0 0.03125,0 -0.0076,0 0.03881,-5.48e-4 0.03125,0 a 0.53128643,0.53128643 0 0 0 0.125,-0.03125 c -0.0041,0.0013 0.03526,-0.0014 0.03125,0 -0.004,0.0014 0.0352,-0.0016 0.03125,0 -0.0039,0.0016 0.03513,-0.033 0.03125,-0.03125 -0.0039,0.0017 0.03505,-0.0019 0.03125,0 -0.0038,0.0019 0.03497,-0.0333 0.03125,-0.03125 -0.0036,0.0022 0.0348,-0.0336 0.03125,-0.03125 -0.0035,0.0023 0.0347,-0.0025 0.03125,0 -0.0034,0.0023 0.03455,-0.03365 0.03125,-0.03125 -0.0033,0.0024 0.03446,-0.0025 0.03125,0 -0.0032,0.0025 0.0031,-0.03391 0,-0.03125 -0.0031,0.0027 0.03425,-0.03402 0.03125,-0.03125 -0.003,0.0028 0.03414,-0.0029 0.03125,0 -0.0029,0.0029 0.0028,-0.03425 0,-0.03125 -0.0028,0.003 0.03391,-0.03435 0.03125,-0.03125 -0.0027,0.0031 0.03378,-0.0032 0.03125,0 -0.0025,0.0032 0.0024,-0.03455 0,-0.03125 -0.0024,0.0033 0.03353,-0.03464 0.03125,-0.03125 -0.0023,0.0034 0.0021,-0.03473 0,-0.03125 -0.0032,0.0051 0.03412,-0.03657 0.03125,-0.03125 -0.0029,0.0053 0.03381,-0.06798 0.03125,-0.0625 -0.0026,0.0055 0.0022,-0.03686 0,-0.03125 -0.0022,0.0056 0.03316,-0.03698 0.03125,-0.03125 -0.0019,0.0057 0.0016,-0.03708 0,-0.03125 -0.0016,0.0058 0.03249,-0.06842 0.03125,-0.0625 -0.0012,0.0059 8.97e-4,-0.03723 0,-0.03125 -8.97e-4,0.006 5.52e-4,-0.03727 0,-0.03125 a 0.53128643,0.53128643 0 0 0 0,-0.0625 l 0,-7.34375 0,-0.03125 c 0,0.0076 -5.48e-4,-0.07006 0,-0.0625 a 0.53128643,0.53128643 0 0 0 -0.03125,-0.125 c 0.0013,0.0041 -0.0014,-0.03526 0,-0.03125 0.0014,0.004 -0.0016,-0.0352 0,-0.03125 0.0016,0.0039 -0.033,-0.03513 -0.03125,-0.03125 0.0017,0.0039 -0.0019,-0.03505 0,-0.03125 0.0019,0.0038 -0.0333,-0.03497 -0.03125,-0.03125 0.0011,0.0018 0.0046,-0.02395 0,-0.03125 0.002,0.0036 -0.03339,-0.0035 -0.03125,0 0.0021,0.0035 -0.0023,-0.03464 0,-0.03125 0.0023,0.0034 -0.03365,-0.03455 -0.03125,-0.03125 0.0024,0.0033 -0.0025,-0.03445 0,-0.03125 0.0025,0.0032 -0.03391,-0.0031 -0.03125,0 0.0027,0.0031 -0.03402,-0.03425 -0.03125,-0.03125 0.0028,0.003 -0.0029,-0.03414 0,-0.03125 0.0029,0.0029 -0.03425,-0.0028 -0.03125,0 0.003,0.0028 -0.03435,-0.03391 -0.03125,-0.03125 0.0031,0.0027 -0.0032,-0.03378 0,-0.03125 0.0032,0.0025 -0.03455,-0.0024 -0.03125,0 0.0033,0.0024 -0.03464,-0.03352 -0.03125,-0.03125 0.0034,0.0023 -0.03473,-0.0021 -0.03125,0 0.0035,0.0021 -0.0036,-0.03325 0,-0.03125 -0.01063,-0.0061 -0.03391,-0.0014 -0.03125,0 0.0053,0.0029 -0.06798,-0.03381 -0.0625,-0.03125 0.0055,0.0026 -0.03686,-0.0022 -0.03125,0 0.0056,0.0022 -0.03698,-0.03316 -0.03125,-0.03125 0.0057,0.0019 -0.03708,-0.0016 -0.03125,0 0.0058,0.0016 -0.06842,-0.03249 -0.0625,-0.03125 0.0059,0.0012 -0.03723,-8.97e-4 -0.03125,0 0.006,8.97e-4 -0.03727,-5.52e-4 -0.03125,0 a 0.53128643,0.53128643 0 0 0 -0.03125,0 c 0.0038,2.74e-4 -0.01586,5.56e-4 -0.03125,0 0.0076,5.48e-4 -0.03883,0 -0.03125,0 0.0038,0 -0.01586,-5.56e-4 -0.03125,0 -0.01539,5.56e-4 -0.03503,2.74e-4 -0.03125,0 A 0.53128643,0.53128643 0 0 0 18.84375,12.6875 0.53128643,0.53128643 0 0 0 18.75,12.71875 c 0.0039,-0.0017 -0.03505,0.0019 -0.03125,0 0.0038,-0.0019 -0.03497,0.03331 -0.03125,0.03125 0.0036,-0.0022 -0.0348,0.0336 -0.03125,0.03125 0.0035,-0.0023 -0.0347,0.0025 -0.03125,0 a 0.53128643,0.53128643 0 0 0 -0.03125,0.0625 0.53128643,0.53128643 0 0 0 -0.03125,0 L 15.84375,15.5 a 0.53128643,0.53128643 0 0 0 -0.0625,0.0625 c 0.0025,-0.0034 -0.0023,0.0348 0,0.03125 0.0023,-0.0035 -0.03346,0.03489 -0.03125,0.03125 0.0021,-0.0037 -0.03315,0.03505 -0.03125,0.03125 0.0019,-0.0038 -0.0017,0.03513 0,0.03125 0.0017,-0.0039 -0.03284,0.0352 -0.03125,0.03125 0.0016,-0.0039 -0.0014,0.03526 0,0.03125 8.73e-4,-0.0019 0.0034,0.0233 0,0.03125 -0.0034,0.0079 -0.03204,0.002 -0.03125,0 0.0016,-0.0039 -0.0014,0.03526 0,0.03125 0.0014,-0.004 -0.0013,0.03531 0,0.03125 a 0.53128643,0.53128643 0 0 0 -0.03125,0.125 c 5.48e-4,-0.0076 0,0.03883 0,0.03125 0,-0.0038 -5.56e-4,0.01586 0,0.03125 5.56e-4,0.01539 2.74e-4,0.03503 0,0.03125 l 0,1.21875 -11.53125,0 0,-10.21875 4.0625,0 0.03125,0 c -0.00758,0 0.070064,-5.476e-4 0.0625,0 A 0.53128643,0.53128643 0 0 0 8.34375,7.03125 0.53128643,0.53128643 0 0 0 8.5,7 c -0.00381,0.0019 0.034975,-0.033305 0.03125,-0.03125 -0.00364,0.0022 0.034796,-0.0336 0.03125,-0.03125 -0.00355,0.00235 0.034698,-0.00249 0.03125,0 L 12.625,4.28125 A 0.53128643,0.53128643 0 0 0 12.6875,4.25 c -0.0052,0.00455 0.03614,-0.036135 0.03125,-0.03125 -0.0049,0.00489 0.0358,-0.036446 0.03125,-0.03125 -0.0046,0.0052 0.03545,-0.067984 0.03125,-0.0625 -0.0042,0.00548 0.03508,-0.036999 0.03125,-0.03125 -0.0038,0.00575 0.0347,-0.037239 0.03125,-0.03125 -0.0014,0.0024 -0.005,-0.021827 0,-0.03125 -0.0023,0.00355 0.03346,-0.034889 0.03125,-0.03125 -0.003,0.0062 0.03388,-0.03764 0.03125,-0.03125 -0.0013,0.00319 -0.0049,-0.018107 0,-0.03125 -8.73e-4,0.00194 -0.0034,-0.023301 0,-0.03125 0.0034,-0.00795 0.03204,-0.00197 0.03125,0 -0.0016,0.00395 0.0014,-0.035258 0,-0.03125 -0.0014,0.00401 0.0013,-0.035312 0,-0.03125 a 0.53128643,0.53128643 0 0 0 0.03125,-0.125 c -5.48e-4,0.00756 0,-0.038834 0,-0.03125 0,0.00758 -5.48e-4,-0.070064 0,-0.0625 0,0.00758 -5.48e-4,-0.038814 0,-0.03125 a 0.53128643,0.53128643 0 0 0 -0.03125,-0.125 c 0.0013,0.00406 -0.0014,-0.035258 0,-0.03125 0.0014,0.00401 -0.0016,-0.035197 0,-0.03125 7.94e-4,0.00197 -0.02786,0.00795 -0.03125,0 0.0013,0.00406 -0.0014,-0.035258 0,-0.03125 0.0014,0.00401 -0.0016,-0.035197 0,-0.03125 0.0016,0.00395 -0.033,-0.035129 -0.03125,-0.03125 0.0017,0.00388 -0.0019,-0.035055 0,-0.03125 9.51e-4,0.0019 -0.02723,0.00765 -0.03125,0 0.0023,0.00355 -0.0025,-0.034698 0,-0.03125 0.0022,0.00364 -0.0336,-0.034796 -0.03125,-0.03125 0.0023,0.00355 -0.0025,-0.034698 0,-0.03125 A 0.53128643,0.53128643 0 0 0 12.75,3.125 c 0.003,0.00307 -0.0344,-0.034194 -0.03125,-0.03125 0.0033,0.00281 -0.03463,-0.033926 -0.03125,-0.03125 0.0034,0.00268 -0.03474,-0.00253 -0.03125,0 0.0035,0.00253 -0.03484,-0.033639 -0.03125,-0.03125 0.0036,0.00239 -0.03494,-0.033489 -0.03125,-0.03125 0.0038,0.00209 -0.03511,-0.033179 -0.03125,-0.03125 0.0039,0.00193 -0.03518,-0.00177 -0.03125,0 0.0039,0.00177 -0.03525,-0.00161 -0.03125,0 0.004,0.00161 -0.03532,-0.03269 -0.03125,-0.03125 0.0041,0.00144 -0.03537,-0.00127 -0.03125,0 0.0041,0.00127 -0.03542,-0.0011 -0.03125,0 0.0042,0.0011 -0.03546,-0.032179 -0.03125,-0.03125 0.0042,9.288e-4 -0.0355,-7.55e-4 -0.03125,0 0.0042,7.55e-4 -0.03552,-5.799e-4 -0.03125,0 a 0.53128643,0.53128643 0 0 0 -0.03125,0 c 0.0076,5.476e-4 -0.03883,0 -0.03125,0 0.0038,0 -0.01586,-5.563e-4 -0.03125,0 l -0.03125,0 -11.5625,0 c 0.003782,2.738e-4 -0.0158611,5.563e-4 -0.03125,0 0.003782,2.738e-4 -0.0158611,5.563e-4 -0.03125,0 0.003782,2.738e-4 -0.0158611,5.563e-4 -0.03125,0 -0.0153889,-5.563e-4 -0.0350419,0 -0.03125,0 0.007584,0 -0.038814,5.476e-4 -0.03125,0 a 0.53128643,0.53128643 0 0 0 -0.0625,0 z"
       transform="translate(-0.00641988,-0.00314999)"
       id="path2995"
       style="fill:#000000;fill-opacity:0.53333285" />
    <path
       d="m 16.16152,1.9919991 0,2.933482 c -9.0611884,0.05866 -8.8851684,8.7898579 -8.8851684,8.7898579 0,0 3.2299134,-4.3882329 8.8851684,-3.515943 l 0,3.515943 5.919916,-5.8563749 -5.919916,-5.866965 z m -15.76879142,1.567348 0,17.0925659 18.51165042,0 0,-7.381362 -2.711089,2.658137 0,2.012136 -13.0365224,0 0,-11.7127489 4.850307,0 4.0242714,-2.668728 -11.63861742,0 z"
       id="path5"
       style="fill:#ffffff;fill-opacity:1" />
  </g>
</svg>
