<?xml version="1.0" encoding="UTF-8"?>
<svg xmlns="http://www.w3.org/2000/svg" width="24" height="24" viewBox="0 0 24 24">
	<path fill-opacity=".51" d="M6.80988052 1.55088785a.52020073.52020073 0 0 0 .09179383.0611959.52020073.52020073 0 0 0 .24478356.1529897c-.0039165-.00352487.0343187.00372072.030598 0-.0037207-.0037207.0035249.03449883 0 .03059796-.0035249-.0038969.0339172.0346741.030598.030598a.52020073.52020073 0 0 0 0 .030598.52020073.52020073 0 0 0 .030598 0c-.0024478-.003378.002252.03407 0 .030598-.002252-.0034759.0327619.034161.030598.030598-.0020562-.0036423.0324583.0343236.030598.030598-.0018603-.0037305.0016646.034396 0 .030598-.0016645-.003799.0321548.0344626.030598.030598-.0015666-.0038676.0013708.0345223 0 .030598-.0013708-.0039263.0012729.0345762 0 .030598a.52020073.52020073 0 0 0 .030598.1223918c-.0002683-.0037012-.0005444.01553 0 .0305979-.0005365-.0074022 0 .0380237 0 .030598 0-.0074218-.0005365.0380041 0 .030598-.0005444.0150679-.0002683.034301 0 .030598V4.549487c4.1560625.27709732 6.4998643 2.3970286 7.5882903 4.5896917 1.1410418 2.29865955 1.1026143 4.54196965 1.101526 4.58969165-.0000116.0005091 0 .0305979 0 .0305979 0-.0074414-.0005361.06859818 0 .0611959 0-.0074414-.0005361.0380002 0 .03059797a.52020073.52020073 0 0 0-.0611959.18358768.52020073.52020073 0 0 0 0 .030598c.0015569-.0038186-.0323085.034397-.0305979.030598.0017135-.0038186-.0018603.03431867 0 .03059796a.52020073.52020073 0 0 0-.0305979.0305979c.0033193-.0041124-.0341189.0344949-.0305979.0305979.002301-.0034269-.002438.033976 0 .030598a.52020073.52020073 0 0 0-.0305979.03059796c.0016547-.0020562-.023652-.0081268-.0305979 0-.006942.0081268-.0017624.0325464 0 .0305979.0035249-.0039165-.0037207.0343187 0 .030598.0037207-.0037207-.0344988.0035249-.0305979 0 .0038969-.0035249-.0346741.0339172-.030598.0305979a.52020073.52020073 0 0 0-.0305979.0305979c.003378-.00244788-.0340699.002252-.0305979 0 .0034759-.002252-.034161.0327618-.0305979.0305979.0036522-.0020562-.0343236.0324583-.030598.0305979.0037305-.0018603-.034396.0016646-.030598 0 .003799-.0016645-.0344626.0321548-.0305979.030598.0038676-.0015666-.0345223.0013708-.0305979 0 .0039264-.0013708-.0345752.00127286-.0305979 0a.52020073.52020073 0 0 0-.1223918.0305979c.00370118-.00026823-.01553-.0005444-.0305979 0s-.0343109 0-.030598 0c.0037109 0-.01553003.0005444-.03059793 0s-.03430104-.00026823-.03059795 0c.0074219 0-.0380041-.0005365-.0305979 0-.0150679-.0005444-.034301-.00026823-.03059794 0a.52020073.52020073 0 0 0-.1223918-.0305979c.0039753.00127287-.0345223-.0013708-.0305979 0 .0039263.0013708-.0344626-.0015666-.030598 0 .0038676.0015666-.034396-.03231143-.0305979-.03059795.00379906.0016645-.03432353-.0018604-.03059793 0 .0037305.00186032-.0342452-.032615-.0305979-.03059798.00356406.0021541-.03406995-.0328989-.03059794-.030598.0034759.002252-.033974-.0024478-.0305979 0a.52020073.52020073 0 0 0-.03059796-.0305979c.0040732.003329-.0344988-.0341229-.030598-.030598.003897.0035249-.0343137-.0037207-.0305979 0-.00810724-.0069518-.0019485-.0323604 0-.0305979.0035249.0039165-.0339153-.0346712-.030598-.030598.0035249.0039165-.0339152-.0346711-.0305979-.0305979a.52020073.52020073 0 0 0-.03059795-.030598s-2.6324455-3.58707-7.3435067-3.2127842v2.784413c0-.0074414-.0005366.0685981 0 .0611959a.52020073.52020073 0 0 0-.030598.1223917c.0012729-.0040145-.0013708.0345242 0 .0305979.0013708-.0039165-.0015666.0344655 0 .0305979.0015666-.0038186-.0323114.034397-.03059798.030598.0016645-.0038187-.0018604.0343186 0 .0305979.0018603-.0037207-.032615.0342403-.030598.0305979.00186038-.0035249-.0019583.0340837 0 .03059792-.004504.0071477-.0317435.0017624-.03059792 0 .0020562-.003427-.002252.0339172 0 .0305979.002252-.003329-.03294784.0338291-.0305979.030598.0023499-.0032311-.0024478.0337312 0 .030598.0024479-.00313326-.0332024.0030353-.0305979 0 .0026437-.0030353-.03331014.03353532-.03059794.0305979.0027416-.0029374-.0028395.0334277 0 .030598.0028395-.0028395-.0335353.0027416-.0305979 0 .0029374-.0027416-.0336332.03320245-.0305979.03059795.00303536-.0026437-.0031332.03307512 0 .0305979.00313327-.0024478-.03382904.00234995-.0305979 0 .0032311-.0023499-.0339172.0328206-.030598.030598.003329-.002252-.03400534.0020562-.030598 0 .003427-.0020562-.0035249.0325562 0 .03059793-.0104082.00597273-.0332024.0013708-.03059792 0 .0051894-.0028395-.06656152.03310454-.0611959.03059795.0053852-.00254575-.0360909.0021541-.0305979 0 .0054831-.0021541-.0362084.0324681-.030598.03059795.0055811-.0018604-.0363063.0015666-.0305979 0 .005679-.0015666-.0669923.0318121-.0611959.0305979.0057769-.001175-.0364531.00087827-.0305979 0 .0058748-.0008783-.03649236.00054047-.03059797 0a.52020073.52020073 0 0 0-.030598 0c.0037207-.0002683-.0155291-.0005444-.030598 0-.01506885.0005444-.0343088 0-.0305979 0 .0074414 0-.0380002-.0005366-.03059797 0-.0150689-.0005444-.0342991-.0002683-.030598 0a.52020073.52020073 0 0 0-.1835877-.0611959c.00391657.0013708-.0344655-.0015666-.0305979 0 .00381866.0015666-.034397-.03231143-.0305979-.03059794a.52020073.52020073 0 0 0-.0611959-.03059796c.0041124.00332905-.0344949-.03412284-.0305979-.03059795.0039165.00352482-.03431868-.0037207-.03059797 0 .0037207.0037207-.0035249-.0344949 0-.030598.0035249.0039165-.0339172-.0346712-.0305979-.030598a.52020073.52020073 0 0 0-.0305979 0L.2925183 8.5578172a.52020073.52020073 0 0 0-.0611959-.0611959c.00244785.00337803-.002252-.03406994 0-.03059793.00225202.00347592-.03276182-.03416102-.03059793-.03059795.00244783.00337802-.002252-.03406995 0-.03059794.002252.00347593-.03276183-.03416102-.03059795-.03059795.00166453.00379908-.03215476-.03446254-.03059794-.0305979.0015666.00386758-.0013708-.03452232 0-.03059795.00085478.00189952.00332906-.0228148 0-.03059794-.00332906-.00778412-.03137146-.0019289-.03059795 0 .00156662.00386758-.00137078-.0345223 0-.03059794.0013708.00392632-.00127287-.0345752 0-.03059795A.52020073.52020073 0 0 0 .0783327 8.098848c.00053656.00740227 0-.0380237 0-.03059793 0 .00742183.00053656-.06860206 0-.0611959 0 .00742185.00053656-.0380041 0-.03059794a.52020073.52020073 0 0 0 .03059793-.12239178c-.00127287.0039753.0013708-.0345223 0-.03059794-.00137078.0039264.00156662-.0344625 0-.0305979-.00077743.0019289.02727868.0077841.03059795 0-.00127288.0039753.0013708-.0345223 0-.0305979-.0013708.0039264.0015666-.0344626 0-.0305979-.00156662.0038676.03231143-.034396.03059794-.0305979-.00107704.0017821-.004504-.0234532 0-.0305979-.00093115.0018604.02666183.0074904.03059795 0-.002252.0034759.00244783-.033974 0-.0305979-.0021541.003564.0328989-.03407.03059793-.030598-.002252.003476.0024479-.033974 0-.0305979a.52020073.52020073 0 0 0 .0611959-.0611959l5.8136095-5.7524136a.52020073.52020073 0 0 0 .0611959-.0611958c-.003329.0024381.0340739-.0023009.030598 0-.00342694.002301.034162-.0327569.03059797-.0305979-.00186035.0010085.02310757.0039361.03059795 0-.00342697.002301.034162-.0327569.03059794-.0305979-.0036228.002017.03431866-.0324612.03059795-.0305979-.0037207.0018604.034397-.0017135.030598 0-.0018603.0008552.0228138.0033193.030598 0 .0077352-.0033193.0019583-.0313754 0-.0305979-.0038186.0015568.0345243-.0014002.030598 0-.0039165.0014002.0345733-.0012337.030598 0a.52020073.52020073 0 0 0 .1223918-.030598c-.0074414.0005362.0380198 0 .030598 0-.0074414 0 .0685982.0005362.0611959 0-.0074414 0 .0686177.000539.0611959 0-.0074414-.000539.037961.0010771.030598 0a.52020073.52020073 0 0 0 .0611959 0zm15.42136412 1.52989723a.52020073.52020073 0 0 0 .15298973.09179384.52020073.52020073 0 0 0 .18358766.12239178c-.00282764-.0028297.00271544.03353338 0 .03059794a.52020073.52020073 0 0 0 .03059795.03059795c-.0025992-.0030354.03307695.0031332.03059794 0a.52020073.52020073 0 0 0 0 .0305979c-.00235504-.0032312.03282547.0339191.03059795.0305979-.00222753-.0033193.00209662.0340034 0 .0305979-.00209662-.0034074.0325605.0034857.03059794 0 .0060055.0104082.0014043.0332024 0 .0305979-.0028085-.005209.0331021.0665576.030598.0611959-.002504-.0053657.0021913.0360948 0 .0305979-.0021913-.005493.0324693.0362113.030598.0305979-.0018711-.0056105.0015451.0363102 0 .0305979-.001545-.0057084.0318117.0669874.030598.0611959-.0012141-.0057965.0008784.0364502 0 .0305979-.0008783-.0058552.0005401.0364904 0 .0305979a.52020073.52020073 0 0 0 0 .0611959v16.7370758c0-.0074415-.0005361.0685981 0 .0611959a.52020073.52020073 0 0 0-.0305979.1223917c.0012367-.0040145-.0013972.0345243 0 .0305979.0013973-.0039165-.0015548.0344655 0 .030598.0015549-.0038187-.0323083.0343969-.0305979.0305979.0017104-.0038186-.0018629.0343187 0 .030598.0018629-.0037207-.0326103.0342403-.0305979.0305979.0018255-.0035249-.0019625.0340836 0 .0305979-.0045295.0071476-.0317485.0017624-.0305979 0 .0023012-.003427-.00244.0339759 0 .0305979.0022275-.0033291-.032953.0338291-.0305979.030598.0023551-.0032312-.002479.0337409 0 .0305979.002479-.0031332-.0331971.0030353-.0305979 0 .0025992-.0030353-.0333134.0335353-.0305979.0305979.0027155-.0029374-.0028276.0334277 0 .030598.0028277-.0028395-.0335334.0027416-.0305979 0 .0029356-.0027416-.0336369.0332024-.0305979.0305979.0030393-.0026437-.0031381.0330752 0 .0305979.0031381-.0024479-.0338298.0023499-.0305979 0 .0032322-.0023499-.0339189.0328304-.0305979.0305979.0033213-.002252-.034003.0020562-.0305979 0 .0034055-.0020562-.0034837.0325562 0 .0305979-.0104085.0059727-.0332022.0013708-.0305979 0 .005209-.0028395-.0665575.0331045-.0611959.0305979.0053618-.0025458-.0360948.0021541-.0305979 0 .0054969-.0021541-.0362118.0324681-.0305979.0305979.0056144-.0018604-.0363102.0015666-.0305979 0s-.0669875.0318121-.0611959.0305979c.0057916-.0011749-.0364499.0008783-.0305979 0 .0058523-.00087827-.0364908.0005405-.0305979 0a.52020073.52020073 0 0 0-.0611959 0H3.9336738c-.0150689.0005444-.03430888 0-.03059796 0 .0074414 0-.0380002-.0005365-.030598 0a.52020073.52020073 0 0 0-.1223918-.0305979c.00401444.0012729-.0345243-.0013708-.03059795 0 .0039166.0013708-.0344655-.0015666-.0305979 0 .0038186.0015666-.034397-.0323114-.0305979-.03059798.0038186.0016645-.0343187-.00186037-.030598 0 .0037207.00186034-.0342403-.0326052-.030598-.03059796.0035248.0021541-.0340739-.0328989-.030598-.03059797.003427.002252-.033976-.0024479-.0305979 0 .003329.002252-.0338291-.0329479-.030598-.030598.0032311.0023499-.033741-.0024478-.030598 0 .0031332.00244784-.0030353-.0332024 0-.03059794.0030353.00264366-.0335354-.03331015-.0305979-.03059795.0029374.00274156-.0334276-.0028395-.0305979 0 .0028395.0028395-.0027416-.03353536 0-.03059796.0027415.0029374-.0332025-.0336333-.030598-.030598.0026437.0030353-.0330751-.00313328-.0305979 0 .0024478.0031332-.0023499-.0338291 0-.030598.0023499.0032311-.0328304-.0339172-.0305979-.03059796.002252.0033291-.0020562-.0340053 0-.0305979.0031332.0049936-.0334081-.0358069-.030598-.03059795.0028395.0051894-.0331045-.06656156-.030598-.0611959.0025457.00538523-.0021541-.0360909 0-.0305979.0021541.0054831-.0324681-.0362084-.030598-.030598.0018603.0055811-.0015666-.03630626 0-.0305979.0015666.005679-.0318121-.06699236-.030598-.0611959.0011749.0057769-.0008783-.03645315 0-.03059793.0008783.0058748-.0005405-.0364923 0-.03059794a.52020073.52020073 0 0 0 0-.0611959V13.331096c0 .0074414.0005365-.06859817 0-.0611959a.52020073.52020073 0 0 0 .0305979-.1223918c-.0012729.0040145.0013707-.0345243 0-.0305979-.0013708.00391652.0015666-.0344655 0-.03059796-.0015667.00381865.0323114-.034397.0305979-.0305979-.0016645.0038186.0018603-.03431865 0-.0305979-.0018604.0037207.0326052-.0342403.0305979-.03059797-.0010771.00176242-.004504-.02345028 0-.0305979-.0019583.0035249.0326933-.003427.0305979 0-.0020562.003427.002252-.0339172 0-.030598-.002252.0033291.0329479-.0338291.030598-.0305979-.0023499.0032311.0024478-.0337312 0-.03059797-.0024478.00313326.0332024-.0030353.0305979 0-.0026437.00303535.0333102-.0335353.030598-.0305979-.0027416.0029374.0028395-.03342764 0-.03059795-.0028395.0028395.0335354-.0027416.030598 0-.0029374.0027416.0336332-.03320243.0305979-.03059793-.0030353.0026437.0031332-.03307512 0-.0305979-.0031332.0024478.0338291-.0023499.0305979 0s.0339172-.0328206.0305979-.030598c-.003329.002252.0340053-.0020562.030598 0-.003427.0020562.0035249-.0325562 0-.03059794.0104082-.0059727.0332024-.0013708.0305979 0-.0051894.0028395.0665615-.0331045.0611959-.030598-.0053852.0025458.0360909-.0021541.0305979 0-.0054832.0021541.0362084-.0324681.0305979-.0305979-.0055811.00186038.0363063-.0015666.0305979 0-.005679.0015666.06699234-.0318121.0611959-.03059792-.0057769.00117497.03645313-.0008783.0305979 0-.0058748.0008783.0364923-.0005405.0305979 0a.52020073.52020073 0 0 0 .03059795 0c-.0037207.0002683.01552903.0005444.0305979 0-.0074414.00053658.0380198 0 .03059796 0-.0037207 0 .01552903-.0005444.0305979 0 .0150689.0005444.0342991.0002683.03059795 0a.52020073.52020073 0 0 0 .1529897.0611959.52020073.52020073 0 0 0 .0917939.0305979c-.0038186-.0016645.0343187.0018604.030598 0-.0037207-.00186032.0342403.032615.0305979.03059798-.0035249-.0021541.0340739.0328989.030598.0305979-.003427-.002252.0339759.00244787.0305979 0a.52020073.52020073 0 0 0 .030598.0611959.52020073.52020073 0 0 0 .0305979 0L7.11586 15.4117568a.52020073.52020073 0 0 0 .06119587.06119587c-.00244784-.00332906.002252.03407387 0 .03059795-.002252-.00342697.03276183.034162.03059794.03059794-.0020561-.0036228.0324583.03431866.030598.03059795-.0018603-.0037207.0016645.034397 0 .030598-.0016645-.0038186.0321548.0344655.030598.030598-.0015666-.0038186.0013708.0345243 0 .030598-.0008548-.0018603-.003329.0228139 0 .030598.0033291.0077352.0313715.0019583.030598 0-.0015666-.0038186.0013708.0345243 0 .030598-.0013708-.0039165.0012729.0345733 0 .030598a.52020073.52020073 0 0 0 .030598.1223918c-.0005365-.0074414 0 .0380198 0 .030598 0-.0037207.0005444.0155291 0 .030598s-.0002682.0342991 0 .030598V17.15584h11.2906416V7.1503117h-4.0083308c.0074219 0-.068602-.0005362-.0611959 0a.52020073.52020073 0 0 0-.0917938-.03059795.52020073.52020073 0 0 0-.1529897-.03059794c.0037305.0018604-.0342452-.03261-.0305979-.0305979.003564.0021541-.03407-.032899-.030598-.030598.003476.0023009-.033974-.0024381-.0305979 0l-3.9471349-2.6008253a.52020073.52020073 0 0 0-.0611959-.0305979c.0050915.0044551-.0353859-.035381-.0305979-.0305979.0047978.004788-.035053-.0356855-.0305979-.0305979.004504.0050915-.0347103-.0665655-.0305979-.0611959.0041124.0053657-.034348-.036227-.0305979-.0305979.0037207.00563-.033976-.036462-.0305979-.0305979.0013708.0023499.0048957-.0213715 0-.0305979.002252.003476-.0327618-.034161-.0305979-.0305979.0029374.0060706-.033173-.0368546-.0305979-.030598.0012729.0031235.0047978-.0177291 0-.0305979.0008548.0018995.0033291-.0228148 0-.0305979-.003329-.0077841-.0313714-.0019289-.0305979 0 .0015666.0038676-.0013708-.0345223 0-.0305979.0013708.0039263-.0012729-.0345752 0-.0305979a.52020073.52020073 0 0 0-.0305979-.1223918c.0005366.0074022 0-.0380237 0-.030598 0 .0074219.0005366-.068602 0-.0611959 0 .0074219.0005366-.0380041 0-.0305979a.52020073.52020073 0 0 0 .0305979-.1223918c-.0012729.0039753.0013708-.0345223 0-.0305979-.0013708.0039263.0015666-.0344626 0-.0305979-.0007774.0019289.0272787.0077841.0305979 0-.0012728.0039753.0013708-.0345223 0-.0305979-.0013708.0039264.0015666-.0344625 0-.0305979-.0015666.0038676.0323115-.034396.030598-.0305979-.0016645.0037991.0018604-.0343235 0-.0305979-.0009311.0018604.0266619.0074904.030598 0-.002252.0034759.0024479-.033974 0-.0305979-.0021541.0035641.0328989-.0340699.030598-.0305979-.002252.003476.0024478-.033974 0-.0305979a.52020073.52020073 0 0 0 .0611959-.0611959c-.0029374.003006.0336822-.0334805.0305979-.0305979-.0032311.00275137.0339074-.0332181.030598-.03059794-.0033291.0026241.0340151-.0024772.0305979 0-.0034269.0024772.0341131-.0329371.030598-.030598-.0035249.0023401.034211-.0327902.030598-.030598-.0037207.0020464.0343774-.0324867.030598-.030598-.0038186.0018897.034446-.0017331.030598 0-.0038186.0017331.0345145-.0015764.03059797 0-.0039165.0015764.034583-.0320079.030598-.03059794-.0040145.0014099.03463193-.0012435.0305979 0-.0040144.0012435.034681-.0010771.030598 0-.0041124.001077.0347201-.0315076.0305979-.030598-.00411234.0009094.0347593-.0007392.030598 0-.00411235.00073926.0347789-.0005678.030598 0a.52020073.52020073 0 0 0 .0305979 0c-.0074414.0005362.0380198 0 .03059795 0-.0037207 0 .0155291-.0005447.0305979 0h11.351837c-.0037031.0002681.01553015.0005447.03059795 0-.0037031.0002681.01553013.0005447.03059793 0-.0037031.0002681.01553014.0005447.03059793 0 .0150678-.0005447.03431077 0 .030598 0-.0074258 0 .0380041.0005362.0305979 0a.52020073.52020073 0 0 0 .0611959 0z"/>
	<path fill="#fff" d="M6.79843456 2.188695v2.87227263c8.87211973.05743602 8.69977252 8.60645075 8.69977252 8.60645075s-3.16251877-4.29666904-8.69977252-3.44258014v3.44258014l-5.7963924-5.73417713L6.79843456 2.188695zM22.238198 3.72333906V20.4592554H4.11280742v-7.2273442l2.65452004 2.60267294v1.97015123H19.5318328V6.336382h-4.74910162L10.8424293 3.72333908H22.238198z"/>
</svg>
