<svg width="200" height="100" viewBox="0 0 200 100" fill="none" xmlns="http://www.w3.org/2000/svg">
<g clip-path="url(#clip0_191_853)">
<rect width="200" height="100" fill="white"/>
<rect x="45.2729" y="7.68268" width="105.088" height="115.24" rx="2" fill="#EAECF0"/>
<g clip-path="url(#clip1_191_853)">
<path d="M45.2729 58.5075H150.361V90.8203H45.2729V58.5075Z" fill="#C8CCD1"/>
<rect x="45.6631" y="61.7267" width="26.8966" height="25.6241" rx="2" fill="#404244"/>
<rect x="75.5562" y="61.7267" width="26.8966" height="25.6241" rx="2" fill="#404244"/>
<rect x="105.5" y="61.7267" width="26.8966" height="25.6241" rx="2" fill="#404244"/>
<rect x="137.198" y="61.7267" width="26.8966" height="25.6241" rx="2" fill="#404244"/>
<path fill-rule="evenodd" clip-rule="evenodd" d="M66.3113 67.4639H51.9113C50.9172 67.4639 50.1113 68.2698 50.1113 69.2639V80.0639C50.1113 81.058 50.9172 81.8639 51.9113 81.8639H66.3113C67.3055 81.8639 68.1113 81.058 68.1113 80.0639V69.2639C68.1113 68.2698 67.3055 67.4639 66.3113 67.4639ZM51.7583 79.1639L55.4393 74.4389L58.0673 77.5979L61.7393 72.8639L66.4643 79.1639H51.7583Z" fill="#A2A9B1"/>
<path fill-rule="evenodd" clip-rule="evenodd" d="M96.2045 67.4639H81.8045C80.8104 67.4639 80.0045 68.2698 80.0045 69.2639V80.0639C80.0045 81.058 80.8104 81.8639 81.8045 81.8639H96.2045C97.1986 81.8639 98.0045 81.058 98.0045 80.0639V69.2639C98.0045 68.2698 97.1986 67.4639 96.2045 67.4639ZM81.6515 79.1639L85.3325 74.4389L87.9605 77.5979L91.6325 72.8639L96.3575 79.1639H81.6515Z" fill="#A2A9B1"/>
<path fill-rule="evenodd" clip-rule="evenodd" d="M126.148 67.4639H111.748C110.754 67.4639 109.948 68.2698 109.948 69.2639V80.0639C109.948 81.058 110.754 81.8639 111.748 81.8639H126.148C127.142 81.8639 127.948 81.058 127.948 80.0639V69.2639C127.948 68.2698 127.142 67.4639 126.148 67.4639ZM111.595 79.1639L115.276 74.4389L117.904 77.5979L121.576 72.8639L126.301 79.1639H111.595Z" fill="#A2A9B1"/>
<path fill-rule="evenodd" clip-rule="evenodd" d="M157.561 67.4639H143.161C142.167 67.4639 141.361 68.2698 141.361 69.2639V80.0639C141.361 81.058 142.167 81.8639 143.161 81.8639H157.561C158.555 81.8639 159.361 81.058 159.361 80.0639V69.2639C159.361 68.2698 158.555 67.4639 157.561 67.4639ZM143.008 79.1639L146.689 74.4389L149.317 77.5979L152.989 72.8639L157.714 79.1639H143.008Z" fill="#A2A9B1"/>
</g>
<rect x="50" y="45" width="7.4083" height="6.85954" fill="#D9D9D9"/>
<rect x="72.1479" y="45" width="7.4083" height="6.85954" fill="#D9D9D9"/>
<rect x="94.2959" y="45" width="7.4083" height="6.85954" fill="#D9D9D9"/>
<rect x="116.444" y="45" width="7.4083" height="6.85954" fill="#D9D9D9"/>
<rect x="138.592" y="45" width="7.4083" height="6.85954" fill="#D9D9D9"/>
<path d="M150.361 9.68268C150.361 8.57811 149.466 7.68268 148.361 7.68268H47.2729C46.1684 7.68268 45.2729 8.57811 45.2729 9.68268V21.1274H150.361V9.68268Z" fill="#C8CCD1"/>
<rect width="7.4083" height="6.85954" transform="matrix(-1 0 0 1 145.971 11.2496)" fill="#D9D9D9"/>
<rect width="28.5357" height="6.85954" transform="matrix(-1 0 0 1 136.368 11.2496)" fill="#D9D9D9"/>
<rect width="9.60334" height="6.85954" transform="matrix(-1 0 0 1 59.2374 11.2496)" fill="#D9D9D9"/>
<rect width="22.4849" height="5.15211" rx="2" transform="matrix(-1 0 0 1 145.971 33.2002)" fill="#72777D"/>
<rect width="22.4849" height="5.15211" rx="2" transform="matrix(-1 0 0 1 119.074 33.2002)" fill="#72777D"/>
</g>
<defs>
<clipPath id="clip0_191_853">
<rect width="200" height="100" fill="white"/>
</clipPath>
<clipPath id="clip1_191_853">
<rect width="105.088" height="32.3127" fill="white" transform="translate(45.2729 58.5075)"/>
</clipPath>
</defs>
</svg>
